<?xml version="1.0" encoding="utf-8"?>
<svg viewBox="0 0 145.111 134.563" xmlns="http://www.w3.org/2000/svg">
  <defs>
    <linearGradient gradientUnits="userSpaceOnUse" x1="203.56" y1="393.276" x2="203.56" y2="631.864" id="gradient-28" spreadMethod="repeat">
      <stop offset="0" style="stop-color: #bada55"/>
      <stop offset="1" style="stop-color: #758d29"/>
    </linearGradient>
    <clipPath id="clippath14" transform="">
      <path d="M 176.674 631.479 C 175.954 630.726 176.716 629.855 177.231 629.026 L 177.231 629.026 C 182.66 620.278 188.014 611.482 193.431 602.725 L 193.431 602.725 C 193.96 601.87 194.368 601.166 193.495 600.201 L 193.495 600.201 C 184.324 606.192 174.569 611.05 164.364 614.953 L 164.364 614.953 C 146.851 621.65 128.912 625.762 110.003 622.78 L 110.003 622.78 C 87.94 619.301 74.949 604.724 74.197 582.587 L 74.197 582.587 C 73.864 572.762 76.084 563.366 79.654 554.287 L 79.654 554.287 C 88.322 532.242 102.471 514.037 119.74 498.17 L 119.74 498.17 C 140.926 478.703 164.624 463.707 192.099 455.719 L 192.099 455.719 C 197.97 452.497 204.229 450.139 210.869 448.664 L 210.869 448.664 C 214.689 447.815 218.549 447.107 222.502 447.285 L 222.502 447.285 C 224.424 446.974 226.362 447.103 228.291 447.129 L 228.291 447.129 C 231.058 447.166 233.833 447.175 236.547 447.85 L 236.547 447.85 C 236.774 447.757 236.98 447.788 237.164 447.952 L 237.164 447.952 C 237.359 447.944 237.559 447.902 237.747 447.934 L 237.747 447.934 C 243.515 448.885 249.104 450.432 254.487 452.748 L 254.487 452.748 C 268.499 458.777 279.582 468.259 287.591 481.192 L 287.591 481.192 C 290.848 486.45 293.347 491.874 295.133 497.444 L 295.133 497.444 C 295.288 496.379 295.872 495.441 296.629 494.324 L 296.629 494.324 C 304.884 482.145 311.558 469.221 312.839 454.257 L 312.839 454.257 C 314.003 440.672 309.619 429.451 297.641 421.979 L 297.641 421.979 C 289.669 417.008 280.764 415.457 271.549 415.309 L 271.549 415.309 C 252.143 414.997 234.032 420.373 216.46 428.023 L 216.46 428.023 C 215.39 428.488 213.542 428.58 213.901 430.258 L 213.901 430.258 C 214.124 431.308 215.126 431.281 216.072 431.254 L 216.072 431.254 C 216.374 431.246 216.669 431.237 216.932 431.264 L 216.932 431.264 C 229.147 432.48 241.367 433.663 253.585 434.856 L 253.585 434.856 C 253.589 435.014 253.592 435.172 253.596 435.332 L 253.596 435.332 C 227.484 439.452 201.372 443.572 175.261 447.692 L 175.261 447.692 C 175.188 447.442 175.115 447.193 175.042 446.944 L 175.042 446.944 C 193.343 429.053 211.646 411.165 229.947 393.276 L 229.947 393.276 C 230.26 393.521 230.572 393.768 230.884 394.014 L 230.884 394.014 C 230.294 395.078 229.749 396.172 229.107 397.203 L 229.107 397.203 C 223.932 405.512 218.731 413.804 213.563 422.116 L 213.563 422.116 C 213.037 422.961 211.855 423.94 212.628 424.867 L 212.628 424.867 C 213.642 426.08 214.778 424.814 215.672 424.26 L 215.672 424.26 C 223.322 419.518 231.35 415.511 239.668 412.125 L 239.668 412.125 C 257.685 404.79 276.214 399.928 295.868 402.736 L 295.868 402.736 C 312.195 405.069 324.92 412.692 330.58 429.146 L 330.58 429.146 C 334.111 439.408 333.328 449.823 330.691 460.156 L 330.691 460.156 C 326.377 477.071 317.74 491.767 307.126 505.396 L 307.126 505.396 C 304.551 508.702 302.003 512.102 298.37 515.425 L 298.37 515.425 C 298.607 520.537 298.313 525.749 297.47 531.058 L 297.47 531.058 C 295.406 544.06 290.08 555.673 281.542 565.751 L 281.542 565.751 C 272.012 576.996 260.195 584.732 246.014 588.833 L 246.014 588.833 C 243.022 589.698 239.944 590.075 236.897 590.638 L 236.897 590.638 C 232.427 591.466 227.934 591.803 223.397 591.331 L 223.397 591.331 C 223.202 591.533 222.957 591.511 222.706 591.498 L 222.706 591.498 C 221.657 591.444 220.616 591.347 219.575 591.244 L 219.575 591.244 C 206.064 604.444 192.749 617.846 178.834 630.627 L 178.834 630.627 C 178.395 631.03 177.975 631.864 177.386 631.864 L 177.386 631.864 C 177.174 631.864 176.94 631.756 176.674 631.479 M 117.419 522.394 C 107.264 534.744 99.231 548.412 95.882 564.289 L 95.882 564.289 C 93.117 577.393 94.436 589.692 105.039 599.346 L 105.039 599.346 C 112.149 605.821 120.922 608.525 130.273 609.298 L 130.273 609.298 C 151.798 611.078 171.797 605.196 191.227 596.702 L 191.227 596.702 C 191.915 596.401 193.004 596.226 192.854 595.215 L 192.854 595.215 C 192.695 594.157 191.591 594.391 190.84 594.316 L 190.84 594.316 C 184.812 593.71 178.781 593.141 172.751 592.562 L 172.751 592.562 C 165.879 591.903 159.007 591.248 152.136 590.592 L 152.136 590.592 C 152.919 589.772 153.689 589.535 154.477 589.41 L 154.477 589.41 C 167.363 587.371 180.25 585.342 193.138 583.311 L 193.138 583.311 C 192.595 583.023 192.044 582.755 191.506 582.452 L 191.506 582.452 C 188.41 580.708 185.548 578.644 182.625 576.659 L 182.625 576.659 C 181.608 575.968 180.753 575.035 179.824 574.214 L 179.824 574.214 C 180.655 573.865 181.295 573.865 181.936 573.865 L 181.936 573.865 C 192.43 573.863 202.924 573.862 213.419 573.866 L 213.419 573.866 C 213.762 573.866 214.105 573.939 214.447 573.978 L 214.447 573.978 C 214.992 573.944 215.536 573.885 216.08 573.883 L 216.08 573.883 C 217.797 573.878 219.515 573.887 221.234 573.896 L 221.234 573.896 C 224.896 573.916 228.557 573.935 232.214 573.819 L 232.214 573.819 C 237.41 573.655 242.504 572.773 247.277 570.547 L 247.277 570.547 C 259.233 564.971 264.622 552.598 261.843 540.598 L 261.843 540.598 C 259.991 532.591 255.136 527.113 247.647 523.876 L 247.647 523.876 C 246.957 523.578 246.189 523.397 245.466 522.713 L 245.466 522.713 C 246.683 522.318 247.714 521.991 248.739 521.647 L 248.739 521.647 C 253.723 519.974 258.255 517.571 261.681 513.452 L 261.681 513.452 C 265.777 508.528 267.429 502.76 267.493 496.444 L 267.493 496.444 C 267.611 484.821 262.844 475.854 252.849 469.85 L 252.849 469.85 C 248.53 467.257 243.555 466.753 238.679 466.046 L 238.679 466.046 C 236.671 465.755 234.631 465.69 232.657 465.171 L 232.657 465.171 C 232.439 465.387 232.253 465.357 232.096 465.098 L 232.096 465.098 C 230.544 465.124 229 464.997 227.454 464.87 L 227.454 464.87 C 225.745 464.729 224.034 464.589 222.312 464.656 L 222.312 464.656 C 219.991 464.745 217.66 464.607 215.333 464.571 L 215.333 464.571 C 214.924 464.863 214.468 464.832 214.02 464.801 L 214.02 464.801 C 213.878 464.791 213.736 464.78 213.598 464.781 L 213.598 464.781 C 206.371 464.788 199.144 464.783 191.918 464.779 L 191.918 464.779 C 162.962 477.877 138.158 497.172 117.419 522.394" style="fill: none; clip-rule: nonzero;"/>
    </clipPath>
    <linearGradient id="shading14" gradientUnits="userSpaceOnUse" x1="0" y1="0" x2="1" y2="0">
      <stop offset="0" style="stop-color: rgb(180, 41, 232);"/>
      <stop offset="1" style="stop-color: rgb(45, 107, 222);"/>
    </linearGradient>
    <linearGradient gradientUnits="userSpaceOnUse" x1="1.452" y1="-1.497" x2="1.452" y2="1.981" id="gradient-29" spreadMethod="repeat">
      <stop offset="0" style="stop-color: #bada55"/>
      <stop offset="1" style="stop-color: #758d29"/>
    </linearGradient>
    <linearGradient gradientUnits="userSpaceOnUse" x1="210.802" y1="530.914" x2="210.802" y2="551.921" id="gradient-30" spreadMethod="repeat">
      <stop offset="0" style="stop-color: #bada55"/>
      <stop offset="1" style="stop-color: #758d29"/>
    </linearGradient>
    <clipPath id="clippath15" transform="">
      <path d="M 194.988 551.74 C 194.698 551.899 194.409 551.905 194.121 551.735 L 194.121 551.735 C 192.849 551.94 192.247 551.091 192.06 550.112 L 192.06 550.112 C 191.865 549.087 192.293 548.176 193.495 547.915 L 193.495 547.915 C 193.931 547.612 194.418 547.628 194.902 547.642 L 194.902 547.642 C 195.01 547.646 195.118 547.649 195.226 547.649 L 195.226 547.649 C 201.031 547.641 206.835 547.642 212.639 547.624 L 212.639 547.624 C 213.178 547.622 213.746 547.602 214.249 547.434 L 214.249 547.434 C 215.191 547.119 215.694 546.408 215.627 545.386 L 215.627 545.386 C 215.563 544.41 214.943 543.843 214.056 543.645 L 214.056 543.645 C 213.437 543.507 212.774 543.551 212.131 543.536 L 212.131 543.536 C 211.351 543.516 210.569 543.525 209.789 543.534 L 209.789 543.534 C 208.341 543.55 206.893 543.568 205.448 543.405 L 205.448 543.405 C 198.45 543.656 191.45 543.451 184.451 543.431 L 184.451 543.431 C 183.242 543.428 182.561 542.525 182.47 541.375 L 182.47 541.375 C 182.371 540.104 183.248 539.512 184.366 539.278 L 184.366 539.278 C 184.732 539.201 185.117 539.207 185.502 539.213 L 185.502 539.213 C 185.618 539.215 185.735 539.217 185.851 539.217 L 185.851 539.217 C 191.912 539.187 197.974 539.155 204.035 539.141 L 204.035 539.141 C 205.315 539.138 206.603 538.809 207.875 539.216 L 207.875 539.216 C 208.385 538.921 209.073 539.064 209.497 538.546 L 209.497 538.546 C 210.057 537.86 210.397 537.142 210.052 536.226 L 210.052 536.226 C 209.657 535.178 208.823 534.838 207.819 534.818 L 207.819 534.818 C 205.438 534.771 203.056 534.762 200.674 534.738 L 200.674 534.738 C 198.293 535.009 195.908 535.004 193.52 534.838 L 193.52 534.838 L 193.218 534.845 C 190.713 535.327 188.188 535.03 185.673 535.008 L 185.673 535.008 C 185.413 535.005 185.118 534.788 184.906 534.597 L 184.906 534.597 C 184.211 533.977 183.95 533.164 184.269 532.3 L 184.269 532.3 C 184.64 531.293 185.495 530.979 186.534 530.979 L 186.534 530.979 C 191.202 530.981 195.871 530.977 200.541 530.973 L 200.541 530.973 C 204.573 530.97 208.605 530.967 212.638 530.968 L 212.638 530.968 C 213.527 530.968 214.416 531.042 215.306 531.082 L 215.306 531.082 C 220.371 530.973 225.451 530.621 230.486 531.445 L 230.486 531.445 C 237.061 532.523 240.622 538.409 238.556 544.632 L 238.556 544.632 C 237.137 548.905 233.574 551.372 228.303 551.602 L 228.303 551.602 C 221.944 551.879 215.581 551.859 209.218 551.839 L 209.218 551.839 C 205.825 551.828 202.43 551.817 199.037 551.852 L 199.037 551.852 C 198.796 551.855 198.553 551.771 198.31 551.728 L 198.31 551.728 C 197.741 551.855 197.171 551.921 196.602 551.921 L 196.602 551.921 C 196.064 551.921 195.526 551.862 194.988 551.74" style="fill: none; clip-rule: nonzero;"/>
    </clipPath>
    <linearGradient id="shading15" gradientUnits="userSpaceOnUse" x1="0" y1="0" x2="1" y2="0">
      <stop offset="0" style="stop-color: rgb(180, 41, 232);"/>
      <stop offset="1" style="stop-color: rgb(45, 107, 222);"/>
    </linearGradient>
    <linearGradient gradientUnits="userSpaceOnUse" x1="4.72" y1="-6.327" x2="4.72" y2="9.552" id="gradient-31" spreadMethod="repeat">
      <stop offset="0" style="stop-color: #bada55"/>
      <stop offset="1" style="stop-color: #758d29"/>
    </linearGradient>
    <linearGradient gradientUnits="userSpaceOnUse" x1="176.881" y1="534.011" x2="176.881" y2="538.355" id="gradient-32" spreadMethod="repeat">
      <stop offset="0" style="stop-color: #bada55"/>
      <stop offset="1" style="stop-color: #758d29"/>
    </linearGradient>
    <clipPath id="clippath16" transform="">
      <path d="M 173.782 538.295 C 172.569 538.158 171.707 537.461 171.769 536.135 L 171.769 536.135 C 171.824 534.956 172.513 534.126 173.73 534.078 L 173.73 534.078 C 175.818 533.995 177.913 533.985 179.999 534.069 L 179.999 534.069 C 181.281 534.121 181.999 534.981 181.996 536.246 L 181.996 536.246 C 181.994 537.56 181.16 538.229 179.901 538.308 L 179.901 538.308 C 178.91 538.369 177.91 538.32 176.915 538.32 L 176.915 538.32 C 176.274 538.32 175.629 538.354 174.989 538.355 L 174.989 538.355 C 174.584 538.355 174.181 538.341 173.782 538.295" style="fill: none; clip-rule: nonzero;"/>
    </clipPath>
    <linearGradient id="shading16" gradientUnits="userSpaceOnUse" x1="0" y1="0" x2="1" y2="0">
      <stop offset="0" style="stop-color: rgb(180, 41, 232);"/>
      <stop offset="1" style="stop-color: rgb(45, 107, 222);"/>
    </linearGradient>
    <linearGradient gradientUnits="userSpaceOnUse" x1="27.196" y1="-35.562" x2="27.196" y2="52.41" id="gradient-33" spreadMethod="repeat">
      <stop offset="0" style="stop-color: #bada55"/>
      <stop offset="1" style="stop-color: #758d29"/>
    </linearGradient>
    <linearGradient gradientUnits="userSpaceOnUse" x1="171.155" y1="540.589" x2="171.155" y2="544.857" id="gradient-34" spreadMethod="repeat">
      <stop offset="0" style="stop-color: #bada55"/>
      <stop offset="1" style="stop-color: #758d29"/>
    </linearGradient>
    <clipPath id="clippath17" transform="">
      <path d="M 168.065 544.781 C 166.813 544.725 166.021 543.924 166.025 542.653 L 166.025 542.653 C 166.029 541.33 166.961 540.735 168.165 540.635 L 168.165 540.635 C 169.15 540.553 170.147 540.618 171.139 540.618 L 171.139 540.618 L 171.139 540.594 C 172.081 540.594 173.024 540.61 173.965 540.59 L 173.965 540.59 C 175.303 540.562 175.989 541.39 176.251 542.516 L 176.251 542.516 C 176.49 543.535 175.423 544.729 174.159 544.791 L 174.159 544.791 C 173.217 544.836 172.273 544.857 171.329 544.857 L 171.329 544.857 C 170.24 544.857 169.151 544.829 168.065 544.781" style="fill: none; clip-rule: nonzero;"/>
    </clipPath>
    <linearGradient id="shading17" gradientUnits="userSpaceOnUse" x1="0" y1="0" x2="1" y2="0">
      <stop offset="0" style="stop-color: rgb(180, 41, 232);"/>
      <stop offset="1" style="stop-color: rgb(45, 107, 222);"/>
    </linearGradient>
    <linearGradient gradientUnits="userSpaceOnUse" x1="27.678" y1="-34.822" x2="27.678" y2="52.897" id="gradient-35" spreadMethod="repeat">
      <stop offset="0" style="stop-color: #bada55"/>
      <stop offset="1" style="stop-color: #758d29"/>
    </linearGradient>
    <linearGradient gradientUnits="userSpaceOnUse" x1="183.911" y1="546.41" x2="183.911" y2="550.75" id="gradient-36" spreadMethod="repeat">
      <stop offset="0" style="stop-color: #bada55"/>
      <stop offset="1" style="stop-color: #758d29"/>
    </linearGradient>
    <clipPath id="clippath18" transform="">
      <path d="M 183.905 550.737 C 183.5 550.737 183.096 550.737 182.692 550.737 L 182.692 550.737 C 182.153 550.737 181.614 550.736 181.076 550.738 L 181.076 550.738 C 179.779 550.742 178.997 550.084 178.838 548.824 L 178.838 548.824 C 178.666 547.466 179.527 546.691 180.71 546.586 L 180.71 546.586 C 182.876 546.396 185.067 546.289 187.233 546.643 L 187.233 546.643 C 188.423 546.836 189.129 547.589 188.987 548.822 L 188.987 548.822 C 188.852 549.995 188.084 550.674 186.883 550.727 L 186.883 550.727 C 186.496 550.745 186.109 550.75 185.721 550.75 L 185.721 550.75 C 185.116 550.75 184.51 550.737 183.905 550.737" style="fill: none; clip-rule: nonzero;"/>
    </clipPath>
    <linearGradient id="shading18" gradientUnits="userSpaceOnUse" x1="0" y1="0" x2="1" y2="0">
      <stop offset="0" style="stop-color: rgb(180, 41, 232);"/>
      <stop offset="1" style="stop-color: rgb(45, 107, 222);"/>
    </linearGradient>
    <linearGradient gradientUnits="userSpaceOnUse" x1="26.615" y1="-34.49" x2="26.615" y2="53.84" id="gradient-37" spreadMethod="repeat">
      <stop offset="0" style="stop-color: #bada55"/>
      <stop offset="1" style="stop-color: #758d29"/>
    </linearGradient>
    <linearGradient gradientUnits="userSpaceOnUse" x1="179.214" y1="492.098" x2="179.214" y2="496.493" id="gradient-38" spreadMethod="repeat">
      <stop offset="0" style="stop-color: #bada55"/>
      <stop offset="1" style="stop-color: #758d29"/>
    </linearGradient>
    <clipPath id="clippath19" transform="">
      <path d="M 175.766 496.219 C 174.532 495.99 174.056 495.13 174.15 493.922 L 174.15 493.922 C 174.239 492.77 174.97 492.25 176.023 492.179 L 176.023 492.179 C 177.013 492.114 178.012 492.166 179.006 492.166 L 179.006 492.166 L 179.006 492.118 C 180.052 492.118 181.101 492.064 182.141 492.133 L 182.141 492.133 C 183.384 492.214 184.212 492.868 184.285 494.176 L 184.285 494.176 C 184.354 495.428 183.609 496.24 182.456 496.329 L 182.456 496.329 C 181.326 496.417 180.19 496.493 179.055 496.493 L 179.055 496.493 C 177.955 496.493 176.857 496.422 175.766 496.219" style="fill: none; clip-rule: nonzero;"/>
    </clipPath>
    <linearGradient id="shading19" gradientUnits="userSpaceOnUse" x1="0" y1="0" x2="1" y2="0">
      <stop offset="0" style="stop-color: rgb(180, 41, 232);"/>
      <stop offset="1" style="stop-color: rgb(45, 107, 222);"/>
    </linearGradient>
    <linearGradient gradientUnits="userSpaceOnUse" x1="27.176" y1="-39.967" x2="27.176" y2="48.695" id="gradient-39" spreadMethod="repeat">
      <stop offset="0" style="stop-color: #bada55"/>
      <stop offset="1" style="stop-color: #758d29"/>
    </linearGradient>
    <linearGradient gradientUnits="userSpaceOnUse" x1="186.223" y1="504.523" x2="186.223" y2="508.834" id="gradient-40" spreadMethod="repeat">
      <stop offset="0" style="stop-color: #bada55"/>
      <stop offset="1" style="stop-color: #758d29"/>
    </linearGradient>
    <clipPath id="clippath20" transform="">
      <path d="M 183.006 508.775 C 181.773 508.729 181.141 507.94 181.116 506.71 L 181.116 506.71 C 181.09 505.434 181.787 504.754 183.007 504.665 L 183.007 504.665 C 183.997 504.594 184.996 504.652 185.99 504.652 L 185.99 504.652 C 186.489 504.689 186.986 504.642 187.484 504.594 L 187.484 504.594 C 188.121 504.534 188.759 504.473 189.406 504.59 L 189.406 504.59 C 190.641 504.814 191.335 505.531 191.331 506.687 L 191.331 506.687 C 191.326 507.92 190.585 508.768 189.276 508.798 L 189.276 508.798 C 188.307 508.82 187.337 508.834 186.367 508.834 L 186.367 508.834 C 185.246 508.834 184.125 508.816 183.006 508.775" style="fill: none; clip-rule: nonzero;"/>
    </clipPath>
    <linearGradient id="shading20" gradientUnits="userSpaceOnUse" x1="0" y1="0" x2="1" y2="0">
      <stop offset="0" style="stop-color: rgb(180, 41, 232);"/>
      <stop offset="1" style="stop-color: rgb(45, 107, 222);"/>
    </linearGradient>
    <linearGradient gradientUnits="userSpaceOnUse" x1="26.323" y1="-38.504" x2="26.323" y2="49.601" id="gradient-41" spreadMethod="repeat">
      <stop offset="0" style="stop-color: #bada55"/>
      <stop offset="1" style="stop-color: #758d29"/>
    </linearGradient>
    <linearGradient gradientUnits="userSpaceOnUse" x1="173.384" y1="498.628" x2="173.384" y2="502.826" id="gradient-42" spreadMethod="repeat">
      <stop offset="0" style="stop-color: #bada55"/>
      <stop offset="1" style="stop-color: #758d29"/>
    </linearGradient>
    <clipPath id="clippath21" transform="">
      <path d="M 173.46 502.811 L 173.46 502.777 C 172.419 502.777 171.375 502.826 170.339 502.764 L 170.339 502.764 C 169.207 502.696 168.457 502.03 168.357 500.911 L 168.357 500.911 C 168.253 499.768 168.906 498.965 170.039 498.835 L 170.039 498.835 C 172.253 498.577 174.49 498.557 176.705 498.793 L 176.705 498.793 C 177.906 498.922 178.499 499.795 178.414 501.005 L 178.414 501.005 C 178.33 502.197 177.55 502.745 176.432 502.801 L 176.432 502.801 C 176.052 502.821 175.673 502.826 175.293 502.826 L 175.293 502.826 C 174.682 502.826 174.071 502.811 173.46 502.811" style="fill: none; clip-rule: nonzero;"/>
    </clipPath>
    <linearGradient id="shading21" gradientUnits="userSpaceOnUse" x1="0" y1="0" x2="1" y2="0">
      <stop offset="0" style="stop-color: rgb(180, 41, 232);"/>
      <stop offset="1" style="stop-color: rgb(45, 107, 222);"/>
    </linearGradient>
    <linearGradient gradientUnits="userSpaceOnUse" x1="27.953" y1="-39.626" x2="27.953" y2="49.694" id="gradient-43" spreadMethod="repeat">
      <stop offset="0" style="stop-color: #bada55"/>
      <stop offset="1" style="stop-color: #758d29"/>
    </linearGradient>
    <linearGradient gradientUnits="userSpaceOnUse" x1="213.662" y1="489.154" x2="213.662" y2="510.029" id="gradient-44" spreadMethod="repeat">
      <stop offset="0" style="stop-color: #bada55"/>
      <stop offset="1" style="stop-color: #758d29"/>
    </linearGradient>
    <clipPath id="clippath22" transform="">
      <path d="M 197.28 509.944 C 195.89 509.93 195.28 508.688 195.671 507.297 L 195.671 507.297 C 195.845 506.052 196.674 505.735 197.792 505.737 L 197.792 505.737 C 202.272 505.743 206.752 505.727 211.231 505.717 L 211.231 505.717 C 211.531 505.716 211.832 505.72 212.134 505.724 L 212.134 505.724 C 212.879 505.732 213.625 505.742 214.365 505.683 L 214.365 505.683 C 215.566 505.586 216.565 504.554 216.434 503.535 L 216.434 503.535 C 216.283 502.357 215.573 501.672 214.325 501.656 L 214.325 501.656 C 213.927 501.651 213.53 501.639 213.133 501.635 L 213.133 501.635 C 209.802 501.595 206.471 501.557 203.139 501.519 L 203.139 501.519 C 198.088 502.002 193.021 501.829 187.96 501.801 L 187.96 501.801 C 186.599 501.794 185.745 500.71 185.854 499.576 L 185.854 499.576 C 185.983 498.252 186.821 497.509 188.269 497.488 L 188.269 497.488 C 191.8 497.44 195.333 497.468 198.862 497.353 L 198.862 497.353 C 202.388 497.239 205.911 497.029 209.442 497.193 L 209.442 497.193 C 211.419 496.16 211.593 495.342 210.304 493.116 L 210.304 493.116 C 209.426 492.909 208.49 493.103 207.636 492.724 L 207.636 492.724 C 207.156 492.863 206.675 492.864 206.195 492.725 L 206.195 492.725 C 205.893 492.979 205.543 492.962 205.197 492.946 L 205.197 492.946 C 205.099 492.942 205.002 492.937 204.907 492.939 L 204.907 492.939 C 201.182 493.007 197.458 493.063 193.734 493.111 L 193.734 493.111 C 192.74 493.124 191.74 493.168 190.756 493.074 L 190.756 493.074 C 189.664 492.968 189.097 492.207 189.049 491.165 L 189.049 491.165 C 189.003 490.132 189.336 489.289 190.617 489.323 L 190.617 489.323 C 190.86 489.284 191.104 489.212 191.347 489.211 L 191.347 489.211 C 204.091 489.181 216.835 489.146 229.579 489.155 L 229.579 489.155 C 230.762 489.155 231.95 489.415 233.126 489.613 L 233.126 489.613 C 240.122 490.8 243.572 498.137 240.139 504.379 L 240.139 504.379 C 237.917 508.421 234.177 509.522 230.018 509.664 L 230.018 509.664 C 224.447 509.854 218.871 509.872 213.297 509.925 L 213.297 509.925 C 212.014 509.936 210.715 510.124 209.443 509.773 L 209.443 509.773 C 207.491 509.973 205.536 510.029 203.58 510.029 L 203.58 510.029 C 201.48 510.029 199.379 509.964 197.28 509.944" style="fill: none; clip-rule: nonzero;"/>
    </clipPath>
    <linearGradient id="shading22" gradientUnits="userSpaceOnUse" x1="0" y1="0" x2="1" y2="0">
      <stop offset="0" style="stop-color: rgb(180, 41, 232);"/>
      <stop offset="1" style="stop-color: rgb(45, 107, 222);"/>
    </linearGradient>
    <linearGradient gradientUnits="userSpaceOnUse" x1="4.748" y1="-7.197" x2="4.748" y2="8.98" id="gradient-45" spreadMethod="repeat">
      <stop offset="0" style="stop-color: #bada55"/>
      <stop offset="1" style="stop-color: #758d29"/>
    </linearGradient>
  </defs>
  <g transform="matrix(0.5220839381217957, 0, 0, -0.5220839381217957, -33.71987533569335, 334.88604736328125)">
    <path d="M 176.674 631.479 C 175.954 630.726 176.716 629.855 177.231 629.026 L 177.231 629.026 C 182.66 620.278 188.014 611.482 193.431 602.725 L 193.431 602.725 C 193.96 601.87 194.368 601.166 193.495 600.201 L 193.495 600.201 C 184.324 606.192 174.569 611.05 164.364 614.953 L 164.364 614.953 C 146.851 621.65 128.912 625.762 110.003 622.78 L 110.003 622.78 C 87.94 619.301 74.949 604.724 74.197 582.587 L 74.197 582.587 C 73.864 572.762 76.084 563.366 79.654 554.287 L 79.654 554.287 C 88.322 532.242 102.471 514.037 119.74 498.17 L 119.74 498.17 C 140.926 478.703 164.624 463.707 192.099 455.719 L 192.099 455.719 C 197.97 452.497 204.229 450.139 210.869 448.664 L 210.869 448.664 C 214.689 447.815 218.549 447.107 222.502 447.285 L 222.502 447.285 C 224.424 446.974 226.362 447.103 228.291 447.129 L 228.291 447.129 C 231.058 447.166 233.833 447.175 236.547 447.85 L 236.547 447.85 C 236.774 447.757 236.98 447.788 237.164 447.952 L 237.164 447.952 C 237.359 447.944 237.559 447.902 237.747 447.934 L 237.747 447.934 C 243.515 448.885 249.104 450.432 254.487 452.748 L 254.487 452.748 C 268.499 458.777 279.582 468.259 287.591 481.192 L 287.591 481.192 C 290.848 486.45 293.347 491.874 295.133 497.444 L 295.133 497.444 C 295.288 496.379 295.872 495.441 296.629 494.324 L 296.629 494.324 C 304.884 482.145 311.558 469.221 312.839 454.257 L 312.839 454.257 C 314.003 440.672 309.619 429.451 297.641 421.979 L 297.641 421.979 C 289.669 417.008 280.764 415.457 271.549 415.309 L 271.549 415.309 C 252.143 414.997 234.032 420.373 216.46 428.023 L 216.46 428.023 C 215.39 428.488 213.542 428.58 213.901 430.258 L 213.901 430.258 C 214.124 431.308 215.126 431.281 216.072 431.254 L 216.072 431.254 C 216.374 431.246 216.669 431.237 216.932 431.264 L 216.932 431.264 C 229.147 432.48 241.367 433.663 253.585 434.856 L 253.585 434.856 C 253.589 435.014 253.592 435.172 253.596 435.332 L 253.596 435.332 C 227.484 439.452 201.372 443.572 175.261 447.692 L 175.261 447.692 C 175.188 447.442 175.115 447.193 175.042 446.944 L 175.042 446.944 C 193.343 429.053 211.646 411.165 229.947 393.276 L 229.947 393.276 C 230.26 393.521 230.572 393.768 230.884 394.014 L 230.884 394.014 C 230.294 395.078 229.749 396.172 229.107 397.203 L 229.107 397.203 C 223.932 405.512 218.731 413.804 213.563 422.116 L 213.563 422.116 C 213.037 422.961 211.855 423.94 212.628 424.867 L 212.628 424.867 C 213.642 426.08 214.778 424.814 215.672 424.26 L 215.672 424.26 C 223.322 419.518 231.35 415.511 239.668 412.125 L 239.668 412.125 C 257.685 404.79 276.214 399.928 295.868 402.736 L 295.868 402.736 C 312.195 405.069 324.92 412.692 330.58 429.146 L 330.58 429.146 C 334.111 439.408 333.328 449.823 330.691 460.156 L 330.691 460.156 C 326.377 477.071 317.74 491.767 307.126 505.396 L 307.126 505.396 C 304.551 508.702 302.003 512.102 298.37 515.425 L 298.37 515.425 C 298.607 520.537 298.313 525.749 297.47 531.058 L 297.47 531.058 C 295.406 544.06 290.08 555.673 281.542 565.751 L 281.542 565.751 C 272.012 576.996 260.195 584.732 246.014 588.833 L 246.014 588.833 C 243.022 589.698 239.944 590.075 236.897 590.638 L 236.897 590.638 C 232.427 591.466 227.934 591.803 223.397 591.331 L 223.397 591.331 C 223.202 591.533 222.957 591.511 222.706 591.498 L 222.706 591.498 C 221.657 591.444 220.616 591.347 219.575 591.244 L 219.575 591.244 C 206.064 604.444 192.749 617.846 178.834 630.627 L 178.834 630.627 C 178.395 631.03 177.975 631.864 177.386 631.864 L 177.386 631.864 C 177.174 631.864 176.94 631.756 176.674 631.479 M 117.419 522.394 C 107.264 534.744 99.231 548.412 95.882 564.289 L 95.882 564.289 C 93.117 577.393 94.436 589.692 105.039 599.346 L 105.039 599.346 C 112.149 605.821 120.922 608.525 130.273 609.298 L 130.273 609.298 C 151.798 611.078 171.797 605.196 191.227 596.702 L 191.227 596.702 C 191.915 596.401 193.004 596.226 192.854 595.215 L 192.854 595.215 C 192.695 594.157 191.591 594.391 190.84 594.316 L 190.84 594.316 C 184.812 593.71 178.781 593.141 172.751 592.562 L 172.751 592.562 C 165.879 591.903 159.007 591.248 152.136 590.592 L 152.136 590.592 C 152.919 589.772 153.689 589.535 154.477 589.41 L 154.477 589.41 C 167.363 587.371 180.25 585.342 193.138 583.311 L 193.138 583.311 C 192.595 583.023 192.044 582.755 191.506 582.452 L 191.506 582.452 C 188.41 580.708 185.548 578.644 182.625 576.659 L 182.625 576.659 C 181.608 575.968 180.753 575.035 179.824 574.214 L 179.824 574.214 C 180.655 573.865 181.295 573.865 181.936 573.865 L 181.936 573.865 C 192.43 573.863 202.924 573.862 213.419 573.866 L 213.419 573.866 C 213.762 573.866 214.105 573.939 214.447 573.978 L 214.447 573.978 C 214.992 573.944 215.536 573.885 216.08 573.883 L 216.08 573.883 C 217.797 573.878 219.515 573.887 221.234 573.896 L 221.234 573.896 C 224.896 573.916 228.557 573.935 232.214 573.819 L 232.214 573.819 C 237.41 573.655 242.504 572.773 247.277 570.547 L 247.277 570.547 C 259.233 564.971 264.622 552.598 261.843 540.598 L 261.843 540.598 C 259.991 532.591 255.136 527.113 247.647 523.876 L 247.647 523.876 C 246.957 523.578 246.189 523.397 245.466 522.713 L 245.466 522.713 C 246.683 522.318 247.714 521.991 248.739 521.647 L 248.739 521.647 C 253.723 519.974 258.255 517.571 261.681 513.452 L 261.681 513.452 C 265.777 508.528 267.429 502.76 267.493 496.444 L 267.493 496.444 C 267.611 484.821 262.844 475.854 252.849 469.85 L 252.849 469.85 C 248.53 467.257 243.555 466.753 238.679 466.046 L 238.679 466.046 C 236.671 465.755 234.631 465.69 232.657 465.171 L 232.657 465.171 C 232.439 465.387 232.253 465.357 232.096 465.098 L 232.096 465.098 C 230.544 465.124 229 464.997 227.454 464.87 L 227.454 464.87 C 225.745 464.729 224.034 464.589 222.312 464.656 L 222.312 464.656 C 219.991 464.745 217.66 464.607 215.333 464.571 L 215.333 464.571 C 214.924 464.863 214.468 464.832 214.02 464.801 L 214.02 464.801 C 213.878 464.791 213.736 464.78 213.598 464.781 L 213.598 464.781 C 206.371 464.788 199.144 464.783 191.918 464.779 L 191.918 464.779 C 162.962 477.877 138.158 497.172 117.419 522.394" style="fill: none; stroke: url('#gradient-28'); paint-order: stroke;"/>
  </g>
  <g style="clip-path: url('#clippath14');" transform="matrix(0.5220839381217957, 0, 0, -0.5220839381217957, -33.71987533569335, 334.88604736328125)">
    <g transform="matrix(258.7905579 0 0 -258.7905579 74.1643906 512.5699463)">
      <rect x="-0.2865807439105181" y="-1.4970795567035642" width="3.477715753245416" height="3.477715753245416" style="fill: url('#shading14'); stroke: url('#gradient-29'); paint-order: stroke;"/>
    </g>
  </g>
  <g transform="matrix(0.5220839381217957, 0, 0, -0.5220839381217957, -33.71987533569335, 334.88604736328125)">
    <path d="M 194.988 551.74 C 194.698 551.899 194.409 551.905 194.121 551.735 L 194.121 551.735 C 192.849 551.94 192.247 551.091 192.06 550.112 L 192.06 550.112 C 191.865 549.087 192.293 548.176 193.495 547.915 L 193.495 547.915 C 193.931 547.612 194.418 547.628 194.902 547.642 L 194.902 547.642 C 195.01 547.646 195.118 547.649 195.226 547.649 L 195.226 547.649 C 201.031 547.641 206.835 547.642 212.639 547.624 L 212.639 547.624 C 213.178 547.622 213.746 547.602 214.249 547.434 L 214.249 547.434 C 215.191 547.119 215.694 546.408 215.627 545.386 L 215.627 545.386 C 215.563 544.41 214.943 543.843 214.056 543.645 L 214.056 543.645 C 213.437 543.507 212.774 543.551 212.131 543.536 L 212.131 543.536 C 211.351 543.516 210.569 543.525 209.789 543.534 L 209.789 543.534 C 208.341 543.55 206.893 543.568 205.448 543.405 L 205.448 543.405 C 198.45 543.656 191.45 543.451 184.451 543.431 L 184.451 543.431 C 183.242 543.428 182.561 542.525 182.47 541.375 L 182.47 541.375 C 182.371 540.104 183.248 539.512 184.366 539.278 L 184.366 539.278 C 184.732 539.201 185.117 539.207 185.502 539.213 L 185.502 539.213 C 185.618 539.215 185.735 539.217 185.851 539.217 L 185.851 539.217 C 191.912 539.187 197.974 539.155 204.035 539.141 L 204.035 539.141 C 205.315 539.138 206.603 538.809 207.875 539.216 L 207.875 539.216 C 208.385 538.921 209.073 539.064 209.497 538.546 L 209.497 538.546 C 210.057 537.86 210.397 537.142 210.052 536.226 L 210.052 536.226 C 209.657 535.178 208.823 534.838 207.819 534.818 L 207.819 534.818 C 205.438 534.771 203.056 534.762 200.674 534.738 L 200.674 534.738 C 198.293 535.009 195.908 535.004 193.52 534.838 L 193.52 534.838 L 193.218 534.845 C 190.713 535.327 188.188 535.03 185.673 535.008 L 185.673 535.008 C 185.413 535.005 185.118 534.788 184.906 534.597 L 184.906 534.597 C 184.211 533.977 183.95 533.164 184.269 532.3 L 184.269 532.3 C 184.64 531.293 185.495 530.979 186.534 530.979 L 186.534 530.979 C 191.202 530.981 195.871 530.977 200.541 530.973 L 200.541 530.973 C 204.573 530.97 208.605 530.967 212.638 530.968 L 212.638 530.968 C 213.527 530.968 214.416 531.042 215.306 531.082 L 215.306 531.082 C 220.371 530.973 225.451 530.621 230.486 531.445 L 230.486 531.445 C 237.061 532.523 240.622 538.409 238.556 544.632 L 238.556 544.632 C 237.137 548.905 233.574 551.372 228.303 551.602 L 228.303 551.602 C 221.944 551.879 215.581 551.859 209.218 551.839 L 209.218 551.839 C 205.825 551.828 202.43 551.817 199.037 551.852 L 199.037 551.852 C 198.796 551.855 198.553 551.771 198.31 551.728 L 198.31 551.728 C 197.741 551.855 197.171 551.921 196.602 551.921 L 196.602 551.921 C 196.064 551.921 195.526 551.862 194.988 551.74" style="fill: none; stroke: url('#gradient-30'); paint-order: stroke;"/>
  </g>
  <g style="clip-path: url('#clippath15');" transform="matrix(0.5220839381217957, 0, 0, -0.5220839381217957, -33.71987533569335, 334.88604736328125)">
    <g transform="matrix(56.6790237 0 0 -56.6790237 182.46315 541.4172363)">
      <rect x="-3.2192359375449158" y="-6.326551522799079" width="15.878890306291568" height="15.878890306291568" style="fill: url('#shading15'); stroke: url('#gradient-31'); paint-order: stroke;"/>
    </g>
  </g>
  <g transform="matrix(0.5220839381217957, 0, 0, -0.5220839381217957, -33.71987533569335, 334.88604736328125)">
    <path d="M 173.782 538.295 C 172.569 538.158 171.707 537.461 171.769 536.135 L 171.769 536.135 C 171.824 534.956 172.513 534.126 173.73 534.078 L 173.73 534.078 C 175.818 533.995 177.913 533.985 179.999 534.069 L 179.999 534.069 C 181.281 534.121 181.999 534.981 181.996 536.246 L 181.996 536.246 C 181.994 537.56 181.16 538.229 179.901 538.308 L 179.901 538.308 C 178.91 538.369 177.91 538.32 176.915 538.32 L 176.915 538.32 C 176.274 538.32 175.629 538.354 174.989 538.355 L 174.989 538.355 C 174.584 538.355 174.181 538.341 173.782 538.295" style="fill: none; stroke: url('#gradient-32'); paint-order: stroke;"/>
  </g>
  <g style="clip-path: url('#clippath16');" transform="matrix(0.5220839381217957, 0, 0, -0.5220839381217957, -33.71987533569335, 334.88604736328125)">
    <g transform="matrix(10.2306337 0 0 -10.2306337 171.7657471 536.1826172)">
      <rect x="-16.789355589967023" y="-35.561568664119015" width="87.97109019747231" height="87.97109019747232" style="fill: url('#shading16'); stroke: url('#gradient-33'); paint-order: stroke;"/>
    </g>
  </g>
  <g transform="matrix(0.5220839381217957, 0, 0, -0.5220839381217957, -33.71987533569335, 334.88604736328125)">
    <path d="M 168.065 544.781 C 166.813 544.725 166.021 543.924 166.025 542.653 L 166.025 542.653 C 166.029 541.33 166.961 540.735 168.165 540.635 L 168.165 540.635 C 169.15 540.553 170.147 540.618 171.139 540.618 L 171.139 540.618 L 171.139 540.594 C 172.081 540.594 173.024 540.61 173.965 540.59 L 173.965 540.59 C 175.303 540.562 175.989 541.39 176.251 542.516 L 176.251 542.516 C 176.49 543.535 175.423 544.729 174.159 544.791 L 174.159 544.791 C 173.217 544.836 172.273 544.857 171.329 544.857 L 171.329 544.857 C 170.24 544.857 169.151 544.829 168.065 544.781" style="fill: none; stroke: url('#gradient-34'); paint-order: stroke;"/>
  </g>
  <g style="clip-path: url('#clippath17');" transform="matrix(0.5220839381217957, 0, 0, -0.5220839381217957, -33.71987533569335, 334.88604736328125)">
    <g transform="matrix(10.2600927 0 0 -10.2600927 166.0251007 542.7232666)">
      <rect x="-16.181637491442938" y="-34.821979084068126" width="87.71850570122042" height="87.71850570122042" style="fill: url('#shading17'); stroke: url('#gradient-35'); paint-order: stroke;"/>
    </g>
  </g>
  <g transform="matrix(0.5220839381217957, 0, 0, -0.5220839381217957, -33.71987533569335, 334.88604736328125)">
    <path d="M 183.905 550.737 C 183.5 550.737 183.096 550.737 182.692 550.737 L 182.692 550.737 C 182.153 550.737 181.614 550.736 181.076 550.738 L 181.076 550.738 C 179.779 550.742 178.997 550.084 178.838 548.824 L 178.838 548.824 C 178.666 547.466 179.527 546.691 180.71 546.586 L 180.71 546.586 C 182.876 546.396 185.067 546.289 187.233 546.643 L 187.233 546.643 C 188.423 546.836 189.129 547.589 188.987 548.822 L 188.987 548.822 C 188.852 549.995 188.084 550.674 186.883 550.727 L 186.883 550.727 C 186.496 550.745 186.109 550.75 185.721 550.75 L 185.721 550.75 C 185.116 550.75 184.51 550.737 183.905 550.737" style="fill: none; stroke: url('#gradient-36'); paint-order: stroke;"/>
  </g>
  <g style="clip-path: url('#clippath18');" transform="matrix(0.5220839381217957, 0, 0, -0.5220839381217957, -33.71987533569335, 334.88604736328125)">
    <g transform="matrix(10.1891003 0 0 -10.1891003 178.8160248 548.5802612)">
      <rect x="-17.54973643747525" y="-34.48977127058019" width="88.32968304375215" height="88.32968304375215" style="fill: url('#shading18'); stroke: url('#gradient-37'); paint-order: stroke;"/>
    </g>
  </g>
  <g transform="matrix(0.5220839381217957, 0, 0, -0.5220839381217957, -33.71987533569335, 334.88604736328125)">
    <path d="M 175.766 496.219 C 174.532 495.99 174.056 495.13 174.15 493.922 L 174.15 493.922 C 174.239 492.77 174.97 492.25 176.023 492.179 L 176.023 492.179 C 177.013 492.114 178.012 492.166 179.006 492.166 L 179.006 492.166 L 179.006 492.118 C 180.052 492.118 181.101 492.064 182.141 492.133 L 182.141 492.133 C 183.384 492.214 184.212 492.868 184.285 494.176 L 184.285 494.176 C 184.354 495.428 183.609 496.24 182.456 496.329 L 182.456 496.329 C 181.326 496.417 180.19 496.493 179.055 496.493 L 179.055 496.493 C 177.955 496.493 176.857 496.422 175.766 496.219" style="fill: none; stroke: url('#gradient-38'); paint-order: stroke;"/>
  </g>
  <g style="clip-path: url('#clippath19');" transform="matrix(0.5220839381217957, 0, 0, -0.5220839381217957, -33.71987533569335, 334.88604736328125)">
    <g transform="matrix(10.1509485 0 0 -10.1509485 174.138443 494.2957458)">
      <rect x="-17.154893752046913" y="-39.96712762359104" width="88.66166545914405" height="88.66166545914405" style="fill: url('#shading19'); stroke: url('#gradient-39'); paint-order: stroke;"/>
    </g>
  </g>
  <g transform="matrix(0.5220839381217957, 0, 0, -0.5220839381217957, -33.71987533569335, 334.88604736328125)">
    <path d="M 183.006 508.775 C 181.773 508.729 181.141 507.94 181.116 506.71 L 181.116 506.71 C 181.09 505.434 181.787 504.754 183.007 504.665 L 183.007 504.665 C 183.997 504.594 184.996 504.652 185.99 504.652 L 185.99 504.652 C 186.489 504.689 186.986 504.642 187.484 504.594 L 187.484 504.594 C 188.121 504.534 188.759 504.473 189.406 504.59 L 189.406 504.59 C 190.641 504.814 191.335 505.531 191.331 506.687 L 191.331 506.687 C 191.326 507.92 190.585 508.768 189.276 508.798 L 189.276 508.798 C 188.307 508.82 187.337 508.834 186.367 508.834 L 186.367 508.834 C 185.246 508.834 184.125 508.816 183.006 508.775" style="fill: none; stroke: url('#gradient-40'); paint-order: stroke;"/>
  </g>
  <g style="clip-path: url('#clippath20');" transform="matrix(0.5220839381217957, 0, 0, -0.5220839381217957, -33.71987533569335, 334.88604736328125)">
    <g transform="matrix(10.2149982 0 0 -10.2149982 181.1154785 506.6787109)">
      <rect x="-17.730348547687456" y="-38.50429352988041" width="88.10574239748765" height="88.10574239748765" style="fill: url('#shading20'); stroke: url('#gradient-41'); paint-order: stroke;"/>
    </g>
  </g>
  <g transform="matrix(0.5220839381217957, 0, 0, -0.5220839381217957, -33.71987533569335, 334.88604736328125)">
    <path d="M 173.46 502.811 L 173.46 502.777 C 172.419 502.777 171.375 502.826 170.339 502.764 L 170.339 502.764 C 169.207 502.696 168.457 502.03 168.357 500.911 L 168.357 500.911 C 168.253 499.768 168.906 498.965 170.039 498.835 L 170.039 498.835 C 172.253 498.577 174.49 498.557 176.705 498.793 L 176.705 498.793 C 177.906 498.922 178.499 499.795 178.414 501.005 L 178.414 501.005 C 178.33 502.197 177.55 502.745 176.432 502.801 L 176.432 502.801 C 176.052 502.821 175.673 502.826 175.293 502.826 L 175.293 502.826 C 174.682 502.826 174.071 502.811 173.46 502.811" style="fill: none; stroke: url('#gradient-42'); paint-order: stroke;"/>
  </g>
  <g style="clip-path: url('#clippath21');" transform="matrix(0.5220839381217957, 0, 0, -0.5220839381217957, -33.71987533569335, 334.88604736328125)">
    <g transform="matrix(10.0761461 0 0 -10.0761461 168.3461151 500.727356)">
      <rect x="-16.707391241577966" y="-39.6255314321018" width="89.31986406985503" height="89.31986406985503" style="fill: url('#shading21'); stroke: url('#gradient-43'); paint-order: stroke;"/>
    </g>
  </g>
  <g transform="matrix(0.5220839381217957, 0, 0, -0.5220839381217957, -33.71987533569335, 334.88604736328125)">
    <path d="M 197.28 509.944 C 195.89 509.93 195.28 508.688 195.671 507.297 L 195.671 507.297 C 195.845 506.052 196.674 505.735 197.792 505.737 L 197.792 505.737 C 202.272 505.743 206.752 505.727 211.231 505.717 L 211.231 505.717 C 211.531 505.716 211.832 505.72 212.134 505.724 L 212.134 505.724 C 212.879 505.732 213.625 505.742 214.365 505.683 L 214.365 505.683 C 215.566 505.586 216.565 504.554 216.434 503.535 L 216.434 503.535 C 216.283 502.357 215.573 501.672 214.325 501.656 L 214.325 501.656 C 213.927 501.651 213.53 501.639 213.133 501.635 L 213.133 501.635 C 209.802 501.595 206.471 501.557 203.139 501.519 L 203.139 501.519 C 198.088 502.002 193.021 501.829 187.96 501.801 L 187.96 501.801 C 186.599 501.794 185.745 500.71 185.854 499.576 L 185.854 499.576 C 185.983 498.252 186.821 497.509 188.269 497.488 L 188.269 497.488 C 191.8 497.44 195.333 497.468 198.862 497.353 L 198.862 497.353 C 202.388 497.239 205.911 497.029 209.442 497.193 L 209.442 497.193 C 211.419 496.16 211.593 495.342 210.304 493.116 L 210.304 493.116 C 209.426 492.909 208.49 493.103 207.636 492.724 L 207.636 492.724 C 207.156 492.863 206.675 492.864 206.195 492.725 L 206.195 492.725 C 205.893 492.979 205.543 492.962 205.197 492.946 L 205.197 492.946 C 205.099 492.942 205.002 492.937 204.907 492.939 L 204.907 492.939 C 201.182 493.007 197.458 493.063 193.734 493.111 L 193.734 493.111 C 192.74 493.124 191.74 493.168 190.756 493.074 L 190.756 493.074 C 189.664 492.968 189.097 492.207 189.049 491.165 L 189.049 491.165 C 189.003 490.132 189.336 489.289 190.617 489.323 L 190.617 489.323 C 190.86 489.284 191.104 489.212 191.347 489.211 L 191.347 489.211 C 204.091 489.181 216.835 489.146 229.579 489.155 L 229.579 489.155 C 230.762 489.155 231.95 489.415 233.126 489.613 L 233.126 489.613 C 240.122 490.8 243.572 498.137 240.139 504.379 L 240.139 504.379 C 237.917 508.421 234.177 509.522 230.018 509.664 L 230.018 509.664 C 224.447 509.854 218.871 509.872 213.297 509.925 L 213.297 509.925 C 212.014 509.936 210.715 510.124 209.443 509.773 L 209.443 509.773 C 207.491 509.973 205.536 510.029 203.58 510.029 L 203.58 510.029 C 201.48 510.029 199.379 509.964 197.28 509.944" style="fill: none; stroke: url('#gradient-44'); paint-order: stroke;"/>
  </g>
  <g style="clip-path: url('#clippath22');" transform="matrix(0.5220839381217957, 0, 0, -0.5220839381217957, -33.71987533569335, 334.88604736328125)">
    <g transform="matrix(55.6347771 0 0 -55.6347771 185.8450623 499.5909729)">
      <rect x="-3.3404476837564254" y="-7.197099511700928" width="16.176931892479892" height="16.176931892479892" style="fill: url('#shading22'); stroke: url('#gradient-45'); paint-order: stroke;"/>
    </g>
  </g>
</svg>