<?xml version="1.0" encoding="utf-8"?>
<svg viewBox="0 10.611 497.849 218.13" xmlns="http://www.w3.org/2000/svg">
  <defs>
    <linearGradient gradientUnits="userSpaceOnUse" x1="364.266" y1="491.528" x2="364.266" y2="531.035" id="gradient-0" spreadMethod="repeat">
      <stop offset="0" style="stop-color: #bada55"/>
      <stop offset="1" style="stop-color: #758d29"/>
    </linearGradient>
    <clipPath id="clippath0" transform="">
      <path d="M 351.778 529.359 C 348.565 528.242 345.74 526.685 343.303 524.688 L 343.303 524.688 C 340.864 522.692 338.977 520.339 337.639 517.629 L 337.639 517.629 C 336.299 514.919 335.631 511.947 335.631 508.714 L 335.631 508.714 C 335.631 505.101 336.582 502.011 338.486 499.443 L 338.486 499.443 C 340.389 496.876 342.915 494.915 346.068 493.56 L 346.068 493.56 C 349.22 492.206 352.638 491.528 356.327 491.528 L 356.327 491.528 C 361.084 491.528 365.172 492.455 368.592 494.309 L 368.592 494.309 C 369.47 494.786 370.299 495.317 371.085 495.895 L 371.085 495.895 L 370.153 492.098 L 383.355 492.098 L 392.9 530.464 L 378.985 530.464 L 377.701 525.29 C 376.363 527.001 374.599 528.329 372.383 529.252 L 372.383 529.252 C 369.528 530.44 366.108 531.035 362.125 531.035 L 362.125 531.035 C 358.437 531.035 354.989 530.476 351.778 529.359 M 352.535 503.01 C 350.602 504.53 349.637 506.598 349.637 509.214 L 349.637 509.214 C 349.637 511.733 350.246 513.931 351.465 515.81 L 351.465 515.81 C 352.683 517.688 354.364 519.162 356.505 520.232 L 356.505 520.232 C 358.646 521.302 361.054 521.836 363.73 521.836 L 363.73 521.836 C 367.178 521.836 369.87 521.075 371.803 519.554 L 371.803 519.554 C 373.735 518.032 374.702 515.964 374.702 513.349 L 374.702 513.349 C 374.702 510.829 374.092 508.63 372.874 506.753 L 372.874 506.753 C 371.654 504.875 369.988 503.401 367.879 502.332 L 367.879 502.332 C 365.766 501.262 363.344 500.727 360.608 500.727 L 360.608 500.727 C 357.159 500.727 354.468 501.487 352.535 503.01" style="fill: none; clip-rule: nonzero;"/>
    </clipPath>
    <linearGradient id="shading0" gradientUnits="userSpaceOnUse" x1="0" y1="0" x2="1" y2="0">
      <stop offset="0" style="stop-color: rgb(180, 41, 232);"/>
      <stop offset="1" style="stop-color: rgb(45, 107, 222);"/>
    </linearGradient>
    <linearGradient gradientUnits="userSpaceOnUse" x1="1.997" y1="-6.788" x2="1.997" y2="8.928" id="gradient-1" spreadMethod="repeat">
      <stop offset="0" style="stop-color: #bada55"/>
      <stop offset="1" style="stop-color: #758d29"/>
    </linearGradient>
    <linearGradient gradientUnits="userSpaceOnUse" x1="422.515" y1="491.528" x2="422.515" y2="531.035" id="gradient-2" spreadMethod="repeat">
      <stop offset="0" style="stop-color: #bada55"/>
      <stop offset="1" style="stop-color: #758d29"/>
    </linearGradient>
    <clipPath id="clippath1" transform="">
      <path d="M 411.186 528.111 C 406.784 526.161 403.336 523.511 400.838 520.16 L 400.838 520.16 C 398.34 516.809 397.092 512.993 397.092 508.714 L 397.092 508.714 C 397.092 505.243 398.102 502.224 400.125 499.658 L 400.125 499.658 C 402.145 497.091 404.986 495.094 408.643 493.667 L 408.643 493.667 C 412.301 492.241 416.596 491.528 421.534 491.528 L 421.534 491.528 C 426.469 491.528 430.945 492.335 434.958 493.952 L 434.958 493.952 C 438.973 495.568 442.109 497.827 444.37 500.727 L 444.37 500.727 L 434.111 505.862 C 432.742 504.103 431.048 502.806 429.026 501.975 L 429.026 501.975 C 427.004 501.143 424.774 500.727 422.336 500.727 L 422.336 500.727 C 418.768 500.727 416.017 501.499 414.085 503.045 L 414.085 503.045 C 412.151 504.59 411.186 506.669 411.186 509.285 L 411.186 509.285 C 411.186 511.756 411.81 513.931 413.06 515.81 L 413.06 515.81 C 414.308 517.688 416.003 519.162 418.144 520.232 L 418.144 520.232 C 420.285 521.302 422.722 521.836 425.459 521.836 L 425.459 521.836 C 427.956 521.836 430.111 521.419 431.926 520.589 L 431.926 520.589 C 433.739 519.755 435.151 518.437 436.163 516.631 L 436.163 516.631 L 447.938 521.337 C 446.153 524.427 443.389 526.815 439.642 528.504 L 439.642 528.504 C 435.895 530.191 431.464 531.035 426.351 531.035 L 426.351 531.035 C 420.641 531.035 415.586 530.06 411.186 528.111" style="fill: none; clip-rule: nonzero;"/>
    </clipPath>
    <linearGradient id="shading1" gradientUnits="userSpaceOnUse" x1="0" y1="0" x2="1" y2="0">
      <stop offset="0" style="stop-color: rgb(180, 41, 232);"/>
      <stop offset="1" style="stop-color: rgb(45, 107, 222);"/>
    </linearGradient>
    <linearGradient gradientUnits="userSpaceOnUse" x1="1.041" y1="-7.645" x2="1.041" y2="10.055" id="gradient-3" spreadMethod="repeat">
      <stop offset="0" style="stop-color: #bada55"/>
      <stop offset="1" style="stop-color: #758d29"/>
    </linearGradient>
    <linearGradient gradientUnits="userSpaceOnUse" x1="478.98" y1="492.098" x2="478.98" y2="545.012" id="gradient-4" spreadMethod="repeat">
      <stop offset="0" style="stop-color: #bada55"/>
      <stop offset="1" style="stop-color: #758d29"/>
    </linearGradient>
    <clipPath id="clippath2" transform="">
      <path d="M 461.764 545.012 L 448.562 492.098 L 462.477 492.098 L 464.782 501.336 L 473.3 507.01 L 484.689 492.098 L 500.835 492.098 L 484.34 513.76 L 509.397 530.464 L 491.29 530.464 L 468.287 515.384 L 475.68 545.012 Z" style="fill: none; clip-rule: nonzero;"/>
    </clipPath>
    <linearGradient id="shading2" gradientUnits="userSpaceOnUse" x1="0" y1="0" x2="1" y2="0">
      <stop offset="0" style="stop-color: rgb(180, 41, 232);"/>
      <stop offset="1" style="stop-color: rgb(45, 107, 222);"/>
    </linearGradient>
    <linearGradient gradientUnits="userSpaceOnUse" x1="0.024" y1="-6.27" x2="0.024" y2="8.524" id="gradient-5" spreadMethod="repeat">
      <stop offset="0" style="stop-color: #bada55"/>
      <stop offset="1" style="stop-color: #758d29"/>
    </linearGradient>
    <linearGradient gradientUnits="userSpaceOnUse" x1="530.359" y1="491.528" x2="530.359" y2="531.035" id="gradient-6" spreadMethod="repeat">
      <stop offset="0" style="stop-color: #bada55"/>
      <stop offset="1" style="stop-color: #758d29"/>
    </linearGradient>
    <clipPath id="clippath3" transform="">
      <path d="M 519.029 528.111 C 514.63 526.161 511.182 523.511 508.683 520.16 L 508.683 520.16 C 506.186 516.809 504.937 512.993 504.937 508.714 L 504.937 508.714 C 504.937 505.243 505.947 502.224 507.97 499.658 L 507.97 499.658 C 509.99 497.091 512.83 495.094 516.489 493.667 L 516.489 493.667 C 520.145 492.241 524.442 491.528 529.38 491.528 L 529.38 491.528 C 534.316 491.528 538.791 492.335 542.803 493.952 L 542.803 493.952 C 546.818 495.568 549.954 497.827 552.214 500.727 L 552.214 500.727 L 541.955 505.862 C 540.587 504.103 538.891 502.806 536.871 501.975 L 536.871 501.975 C 534.847 501.143 532.62 500.727 530.181 500.727 L 530.181 500.727 C 526.612 500.727 523.861 501.499 521.929 503.045 L 521.929 503.045 C 519.997 504.59 519.029 506.669 519.029 509.285 L 519.029 509.285 C 519.029 511.756 519.656 513.931 520.905 515.81 L 520.905 515.81 C 522.153 517.688 523.849 519.162 525.988 520.232 L 525.988 520.232 C 528.129 521.302 530.568 521.836 533.304 521.836 L 533.304 521.836 C 535.8 521.836 537.955 521.419 539.771 520.589 L 539.771 520.589 C 541.583 519.755 542.995 518.437 544.007 516.631 L 544.007 516.631 L 555.781 521.337 C 553.998 524.427 551.234 526.815 547.486 528.504 L 547.486 528.504 C 543.74 530.191 539.311 531.035 534.195 531.035 L 534.195 531.035 C 528.487 531.035 523.433 530.06 519.029 528.111" style="fill: none; clip-rule: nonzero;"/>
    </clipPath>
    <linearGradient id="shading3" gradientUnits="userSpaceOnUse" x1="0" y1="0" x2="1" y2="0">
      <stop offset="0" style="stop-color: rgb(180, 41, 232);"/>
      <stop offset="1" style="stop-color: rgb(45, 107, 222);"/>
    </linearGradient>
    <linearGradient gradientUnits="userSpaceOnUse" x1="-1.08" y1="-7.645" x2="-1.08" y2="10.056" id="gradient-7" spreadMethod="repeat">
      <stop offset="0" style="stop-color: #bada55"/>
      <stop offset="1" style="stop-color: #758d29"/>
    </linearGradient>
    <linearGradient gradientUnits="userSpaceOnUse" x1="583.615" y1="491.528" x2="583.615" y2="531.035" id="gradient-8" spreadMethod="repeat">
      <stop offset="0" style="stop-color: #bada55"/>
      <stop offset="1" style="stop-color: #758d29"/>
    </linearGradient>
    <clipPath id="clippath4" transform="">
      <path d="M 571.081 528.111 C 566.71 526.161 563.277 523.511 560.778 520.16 L 560.778 520.16 C 558.281 516.809 557.033 512.993 557.033 508.714 L 557.033 508.714 C 557.033 505.243 558.027 502.224 560.021 499.658 L 560.021 499.658 C 562.013 497.091 564.822 495.094 568.45 493.667 L 568.45 493.667 C 572.077 492.241 576.329 491.528 581.206 491.528 L 581.206 491.528 C 586.856 491.528 591.852 492.502 596.192 494.452 L 596.192 494.452 C 600.532 496.4 603.953 499.063 606.451 502.439 L 606.451 502.439 C 608.948 505.814 610.196 509.617 610.196 513.849 L 610.196 513.849 C 610.196 517.366 609.2 520.397 607.209 522.94 L 607.209 522.94 C 605.215 525.485 602.421 527.47 598.824 528.896 L 598.824 528.896 C 595.226 530.322 590.959 531.035 586.023 531.035 L 586.023 531.035 C 580.432 531.035 575.453 530.06 571.081 528.111 M 573.981 502.973 C 572.077 504.517 571.126 506.598 571.126 509.214 L 571.126 509.214 C 571.126 511.733 571.735 513.944 572.955 515.846 L 572.955 515.846 C 574.173 517.747 575.839 519.232 577.95 520.303 L 577.95 520.303 C 580.061 521.372 582.484 521.907 585.22 521.907 L 585.22 521.907 C 588.668 521.907 591.346 521.122 593.249 519.554 L 593.249 519.554 C 595.151 517.985 596.102 515.917 596.102 513.349 L 596.102 513.349 C 596.102 510.829 595.508 508.619 594.319 506.718 L 594.319 506.718 C 593.129 504.815 591.479 503.33 589.368 502.26 L 589.368 502.26 C 587.255 501.191 584.832 500.656 582.098 500.656 L 582.098 500.656 C 578.589 500.656 575.883 501.428 573.981 502.973" style="fill: none; clip-rule: nonzero;"/>
    </clipPath>
    <linearGradient id="shading4" gradientUnits="userSpaceOnUse" x1="0" y1="0" x2="1" y2="0" gradientTransform="matrix(53.163754, 0, 0, 53.163754, 557.032776, -511.281647)">
      <stop offset="0" style="stop-color: rgb(180, 41, 232);"/>
      <stop offset="1" style="stop-color: rgb(45, 107, 222);"/>
    </linearGradient>
    <linearGradient gradientUnits="userSpaceOnUse" x1="450" y1="-900" x2="450" y2="0" id="gradient-9" spreadMethod="repeat">
      <stop offset="0" style="stop-color: #bada55"/>
      <stop offset="1" style="stop-color: #758d29"/>
    </linearGradient>
    <linearGradient gradientUnits="userSpaceOnUse" x1="657.956" y1="492.098" x2="657.956" y2="531.035" id="gradient-10" spreadMethod="repeat">
      <stop offset="0" style="stop-color: #bada55"/>
      <stop offset="1" style="stop-color: #758d29"/>
    </linearGradient>
    <clipPath id="clippath5" transform="">
      <path d="M 671.522 528.396 C 669.477 527.428 667.653 526.189 666.013 524.732 L 666.013 524.732 C 665.737 525.152 665.44 525.558 665.101 525.937 L 665.101 525.937 C 663.583 527.623 661.636 528.896 659.258 529.752 L 659.258 529.752 C 656.878 530.608 654.202 531.035 651.228 531.035 L 651.228 531.035 C 647.541 531.035 644.062 530.368 640.792 529.039 L 640.792 529.039 C 639.116 528.357 637.586 527.481 636.191 526.424 L 636.191 526.424 L 637.223 530.464 L 624.021 530.464 L 614.479 492.098 L 628.393 492.098 L 633.21 511.638 C 634.102 515.061 635.618 517.545 637.76 519.09 L 637.76 519.09 C 639.899 520.635 642.605 521.408 645.877 521.408 L 645.877 521.408 C 648.968 521.408 651.125 520.647 652.344 519.126 L 652.344 519.126 C 653.563 517.603 653.817 515.418 653.102 512.565 L 653.102 512.565 L 648.019 492.098 L 661.934 492.098 L 666.841 511.78 C 667.673 515.109 669.158 517.545 671.3 519.09 L 671.3 519.09 C 673.44 520.635 676.146 521.408 679.417 521.408 L 679.417 521.408 C 682.509 521.408 684.68 520.647 685.929 519.126 L 685.929 519.126 C 687.179 517.603 687.415 515.418 686.642 512.565 L 686.642 512.565 L 681.558 492.098 L 695.473 492.098 L 700.737 513.349 C 701.747 517.201 701.659 520.433 700.469 523.048 L 700.469 523.048 C 699.279 525.663 697.287 527.647 694.493 529.004 L 694.493 529.004 C 691.696 530.358 688.279 531.035 684.234 531.035 L 684.234 531.035 C 679.476 531.035 675.238 530.155 671.522 528.396" style="fill: none; clip-rule: nonzero;"/>
    </clipPath>
    <linearGradient id="shading5" gradientUnits="userSpaceOnUse" x1="0" y1="0" x2="1" y2="0">
      <stop offset="0" style="stop-color: rgb(180, 41, 232);"/>
      <stop offset="1" style="stop-color: rgb(45, 107, 222);"/>
    </linearGradient>
    <linearGradient gradientUnits="userSpaceOnUse" x1="-1.892" y1="-4.467" x2="-1.892" y2="5.883" id="gradient-11" spreadMethod="repeat">
      <stop offset="0" style="stop-color: #bada55"/>
      <stop offset="1" style="stop-color: #758d29"/>
    </linearGradient>
    <linearGradient gradientUnits="userSpaceOnUse" x1="80.496" y1="294.597" x2="80.496" y2="386.295" id="gradient-12" spreadMethod="repeat">
      <stop offset="0" style="stop-color: #bada55"/>
      <stop offset="1" style="stop-color: #758d29"/>
    </linearGradient>
    <clipPath id="clippath6" transform="">
      <path d="M 48.626 386.295 L 25.685 294.597 L 114.496 294.597 L 118.922 311.626 L 56.327 311.626 L 61.636 332.848 L 114.989 332.848 L 119.084 349.354 L 65.764 349.354 L 70.745 369.265 L 130.883 369.265 L 135.307 386.295 Z" style="fill: none; clip-rule: nonzero;"/>
    </clipPath>
    <linearGradient id="shading6" gradientUnits="userSpaceOnUse" x1="0" y1="0" x2="1" y2="0">
      <stop offset="0" style="stop-color: rgb(180, 41, 232);"/>
      <stop offset="1" style="stop-color: rgb(45, 107, 222);"/>
    </linearGradient>
    <linearGradient gradientUnits="userSpaceOnUse" x1="3.871" y1="-5.104" x2="3.871" y2="3.106" id="gradient-13" spreadMethod="repeat">
      <stop offset="0" style="stop-color: #bada55"/>
      <stop offset="1" style="stop-color: #758d29"/>
    </linearGradient>
    <linearGradient gradientUnits="userSpaceOnUse" x1="177.994" y1="294.597" x2="177.994" y2="365.073" id="gradient-14" spreadMethod="repeat">
      <stop offset="0" style="stop-color: #bada55"/>
      <stop offset="1" style="stop-color: #758d29"/>
    </linearGradient>
    <clipPath id="clippath7" transform="">
      <path d="M 206.752 365.073 L 182.249 344.379 L 168.246 365.073 L 141.698 365.073 L 165.209 330.808 L 121.054 294.597 L 150.22 294.597 L 175.547 316.153 L 190.038 294.597 L 217.075 294.597 L 192.573 329.834 L 234.935 365.073 Z" style="fill: none; clip-rule: nonzero;"/>
    </clipPath>
    <linearGradient id="shading7" gradientUnits="userSpaceOnUse" x1="0" y1="0" x2="1" y2="0">
      <stop offset="0" style="stop-color: rgb(180, 41, 232);"/>
      <stop offset="1" style="stop-color: rgb(45, 107, 222);"/>
    </linearGradient>
    <linearGradient gradientUnits="userSpaceOnUse" x1="2.888" y1="-5.007" x2="2.888" y2="2.896" id="gradient-15" spreadMethod="repeat">
      <stop offset="0" style="stop-color: #bada55"/>
      <stop offset="1" style="stop-color: #758d29"/>
    </linearGradient>
    <linearGradient gradientUnits="userSpaceOnUse" x1="275.9" y1="293.548" x2="275.9" y2="366.121" id="gradient-16" spreadMethod="repeat">
      <stop offset="0" style="stop-color: #bada55"/>
      <stop offset="1" style="stop-color: #758d29"/>
    </linearGradient>
    <clipPath id="clippath8" transform="">
      <path d="M 255.089 360.75 C 247.003 357.168 240.669 352.3 236.082 346.145 L 236.082 346.145 C 231.493 339.988 229.2 332.979 229.2 325.118 L 229.2 325.118 C 229.2 318.743 231.056 313.198 234.77 308.482 L 234.77 308.482 C 238.484 303.766 243.7 300.098 250.419 297.479 L 250.419 297.479 C 257.138 294.858 265.028 293.548 274.098 293.548 L 274.098 293.548 C 283.164 293.548 291.385 295.033 298.759 298.002 L 298.759 298.002 C 306.131 300.971 311.891 305.119 316.046 310.446 L 316.046 310.446 L 297.202 319.879 C 294.689 316.648 291.574 314.266 287.863 312.739 L 287.863 312.739 C 284.145 311.211 280.049 310.446 275.571 310.446 L 275.571 310.446 C 269.017 310.446 263.964 311.865 260.414 314.705 L 260.414 314.705 C 256.863 317.542 255.089 321.362 255.089 326.166 L 255.089 326.166 C 255.089 330.707 256.237 334.701 258.53 338.153 L 258.53 338.153 C 260.825 341.602 263.938 344.31 267.871 346.274 L 267.871 346.274 C 271.803 348.241 276.281 349.223 281.306 349.223 L 281.306 349.223 C 285.894 349.223 289.854 348.457 293.186 346.931 L 293.186 346.931 C 296.518 345.4 299.111 342.977 300.97 339.66 L 300.97 339.66 L 322.6 348.305 C 319.323 353.983 314.242 358.369 307.362 361.471 L 307.362 361.471 C 300.478 364.569 292.341 366.121 282.947 366.121 L 282.947 366.121 C 272.46 366.121 263.173 364.331 255.089 360.75" style="fill: none; clip-rule: nonzero;"/>
    </clipPath>
    <linearGradient id="shading8" gradientUnits="userSpaceOnUse" x1="0" y1="0" x2="1" y2="0">
      <stop offset="0" style="stop-color: rgb(180, 41, 232);"/>
      <stop offset="1" style="stop-color: rgb(45, 107, 222);"/>
    </linearGradient>
    <linearGradient gradientUnits="userSpaceOnUse" x1="2.364" y1="-6.105" x2="2.364" y2="3.531" id="gradient-17" spreadMethod="repeat">
      <stop offset="0" style="stop-color: #bada55"/>
      <stop offset="1" style="stop-color: #758d29"/>
    </linearGradient>
    <linearGradient gradientUnits="userSpaceOnUse" x1="374.214" y1="294.597" x2="374.214" y2="391.796" id="gradient-18" spreadMethod="repeat">
      <stop offset="0" style="stop-color: #bada55"/>
      <stop offset="1" style="stop-color: #758d29"/>
    </linearGradient>
    <clipPath id="clippath9" transform="">
      <path d="M 347.995 391.796 L 323.745 294.597 L 349.306 294.597 L 358.156 330.358 C 359.794 336.47 362.77 341.012 367.086 343.983 L 367.086 343.983 C 371.398 346.95 376.78 348.436 383.227 348.436 L 383.227 348.436 C 389.453 348.436 393.737 347.039 396.088 344.244 L 396.088 344.244 C 398.436 341.447 398.957 337.477 397.645 332.323 L 397.645 332.323 L 388.142 294.597 L 413.706 294.597 L 423.536 333.634 C 425.281 340.708 425.036 346.646 422.798 351.449 L 422.798 351.449 C 420.557 356.251 416.817 359.898 411.575 362.389 L 411.575 362.389 C 406.33 364.876 399.993 366.121 392.566 366.121 L 392.566 366.121 C 385.574 366.121 378.937 364.92 372.659 362.518 L 372.659 362.518 C 370.012 361.507 367.588 360.196 365.301 358.698 L 365.301 358.698 L 373.559 391.796 Z" style="fill: none; clip-rule: nonzero;"/>
    </clipPath>
    <linearGradient id="shading9" gradientUnits="userSpaceOnUse" x1="0" y1="0" x2="1" y2="0">
      <stop offset="0" style="stop-color: rgb(180, 41, 232);"/>
      <stop offset="1" style="stop-color: rgb(45, 107, 222);"/>
    </linearGradient>
    <linearGradient gradientUnits="userSpaceOnUse" x1="1.251" y1="-5.516" x2="1.251" y2="3.4" id="gradient-19" spreadMethod="repeat">
      <stop offset="0" style="stop-color: #bada55"/>
      <stop offset="1" style="stop-color: #758d29"/>
    </linearGradient>
    <linearGradient gradientUnits="userSpaceOnUse" x1="491.702" y1="293.548" x2="491.702" y2="366.121" id="gradient-20" spreadMethod="repeat">
      <stop offset="0" style="stop-color: #bada55"/>
      <stop offset="1" style="stop-color: #758d29"/>
    </linearGradient>
    <clipPath id="clippath10" transform="">
      <path d="M 468.76 363.043 C 462.861 360.99 457.671 358.13 453.193 354.463 L 453.193 354.463 C 448.715 350.795 445.247 346.472 442.789 341.494 L 442.789 341.494 C 440.331 336.514 439.101 331.057 439.101 325.118 L 439.101 325.118 C 439.101 318.48 440.847 312.806 444.347 308.089 L 444.347 308.089 C 447.84 303.373 452.48 299.77 458.274 297.281 L 458.274 297.281 C 464.062 294.793 470.344 293.548 477.118 293.548 L 477.118 293.548 C 485.858 293.548 493.366 295.252 499.648 298.657 L 499.648 298.657 C 501.261 299.533 502.785 300.509 504.229 301.571 L 504.229 301.571 L 502.517 294.597 L 526.768 294.597 L 544.302 365.073 L 518.738 365.073 L 516.382 355.567 C 513.923 358.71 510.683 361.149 506.613 362.846 L 506.613 362.846 C 501.37 365.028 495.086 366.121 487.768 366.121 L 487.768 366.121 C 480.994 366.121 474.66 365.094 468.76 363.043 M 470.154 314.64 C 466.601 317.433 464.827 321.232 464.827 326.036 L 464.827 326.036 C 464.827 330.663 465.947 334.701 468.187 338.153 L 468.187 338.153 C 470.426 341.602 473.513 344.31 477.445 346.274 L 477.445 346.274 C 481.379 348.241 485.802 349.223 490.718 349.223 L 490.718 349.223 C 497.051 349.223 501.995 347.825 505.547 345.03 L 505.547 345.03 C 509.096 342.235 510.874 338.435 510.874 333.634 L 510.874 333.634 C 510.874 329.003 509.75 324.965 507.513 321.516 L 507.513 321.516 C 505.275 318.065 502.216 315.358 498.336 313.394 L 498.336 313.394 C 494.457 311.43 490.005 310.446 484.983 310.446 L 484.983 310.446 C 478.646 310.446 473.702 311.843 470.154 314.64" style="fill: none; clip-rule: nonzero;"/>
    </clipPath>
    <linearGradient id="shading10" gradientUnits="userSpaceOnUse" x1="0" y1="0" x2="1" y2="0">
      <stop offset="0" style="stop-color: rgb(180, 41, 232);"/>
      <stop offset="1" style="stop-color: rgb(45, 107, 222);"/>
    </linearGradient>
    <linearGradient gradientUnits="userSpaceOnUse" x1="0.104" y1="-5.42" x2="0.104" y2="3.135" id="gradient-21" spreadMethod="repeat">
      <stop offset="0" style="stop-color: #bada55"/>
      <stop offset="1" style="stop-color: #758d29"/>
    </linearGradient>
    <linearGradient gradientUnits="userSpaceOnUse" x1="600.841" y1="294.597" x2="600.841" y2="366.121" id="gradient-22" spreadMethod="repeat">
      <stop offset="0" style="stop-color: #bada55"/>
      <stop offset="1" style="stop-color: #758d29"/>
    </linearGradient>
    <clipPath id="clippath11" transform="">
      <path d="M 599.277 362.518 C 595.976 361.256 592.974 359.594 590.233 357.574 L 590.233 357.574 L 592.147 365.073 L 567.895 365.073 L 550.363 294.597 L 575.923 294.597 L 584.773 330.358 C 586.412 336.47 589.388 341.012 593.704 343.983 L 593.704 343.983 C 598.017 346.95 603.399 348.436 609.844 348.436 L 609.844 348.436 C 616.072 348.436 620.356 347.039 622.706 344.244 L 622.706 344.244 C 625.054 341.447 625.576 337.477 624.263 332.323 L 624.263 332.323 L 614.759 294.597 L 640.323 294.597 L 650.155 333.634 C 651.9 340.708 651.683 346.646 649.497 351.449 L 649.497 351.449 C 647.311 356.251 643.601 359.898 638.356 362.389 L 638.356 362.389 C 633.112 364.876 626.72 366.121 619.184 366.121 L 619.184 366.121 C 612.193 366.121 605.555 364.92 599.277 362.518" style="fill: none; clip-rule: nonzero;"/>
    </clipPath>
    <linearGradient id="shading11" gradientUnits="userSpaceOnUse" x1="0" y1="0" x2="1" y2="0">
      <stop offset="0" style="stop-color: rgb(180, 41, 232);"/>
      <stop offset="1" style="stop-color: rgb(45, 107, 222);"/>
    </linearGradient>
    <linearGradient gradientUnits="userSpaceOnUse" x1="-0.994" y1="-5.643" x2="-0.994" y2="3.272" id="gradient-23" spreadMethod="repeat">
      <stop offset="0" style="stop-color: #bada55"/>
      <stop offset="1" style="stop-color: #758d29"/>
    </linearGradient>
    <linearGradient gradientUnits="userSpaceOnUse" x1="715.943" y1="268.136" x2="715.943" y2="366.121" id="gradient-24" spreadMethod="repeat">
      <stop offset="0" style="stop-color: #bada55"/>
      <stop offset="1" style="stop-color: #758d29"/>
    </linearGradient>
    <clipPath id="clippath12" transform="">
      <path d="M 695.787 363.173 C 689.832 361.209 684.644 358.457 680.222 354.921 L 680.222 354.921 C 675.796 351.383 672.357 347.301 669.9 342.672 L 669.9 342.672 C 667.442 338.042 666.211 333.022 666.211 327.608 L 666.211 327.608 C 666.211 321.406 667.957 316.1 671.453 311.692 L 671.453 311.692 C 674.951 307.282 679.648 303.898 685.548 301.539 L 685.548 301.539 C 691.444 299.182 698.001 298.002 705.209 298.002 L 705.209 298.002 C 713.732 298.002 721.076 299.617 727.25 302.85 L 727.25 302.85 C 729.01 303.771 730.637 304.826 732.189 305.957 L 732.189 305.957 L 731.426 302.85 C 729.896 296.824 726.923 292.283 722.497 289.226 L 722.497 289.226 C 718.073 286.17 711.436 284.639 702.589 284.639 L 702.589 284.639 C 696.469 284.639 690.651 285.34 685.137 286.737 L 685.137 286.737 C 679.62 288.134 675.112 289.968 671.618 292.238 L 671.618 292.238 L 659.492 277.437 C 664.628 274.38 670.771 272.065 677.926 270.493 L 677.926 270.493 C 685.082 268.922 692.921 268.136 701.44 268.136 L 701.44 268.136 C 716.733 268.136 729.105 271.127 738.556 277.107 L 738.556 277.107 C 748.005 283.09 754.423 292.851 757.81 306.387 L 757.81 306.387 L 772.393 365.073 L 747.979 365.073 L 745.271 353.668 C 745.214 353.756 745.169 353.852 745.11 353.939 L 745.11 353.939 C 742.216 358.216 738.146 361.318 732.903 363.239 L 732.903 363.239 C 727.658 365.158 721.813 366.121 715.37 366.121 L 715.37 366.121 C 708.266 366.121 701.741 365.139 695.787 363.173 M 697.343 318.504 C 693.74 320.992 691.936 324.376 691.936 328.657 L 691.936 328.657 C 691.936 332.671 693.057 336.231 695.298 339.332 L 695.298 339.332 C 697.535 342.431 700.595 344.855 704.473 346.602 L 704.473 346.602 C 708.349 348.349 712.802 349.223 717.827 349.223 L 717.827 349.223 C 724.054 349.223 728.914 347.979 732.411 345.489 L 732.411 345.489 C 735.906 342.999 737.654 339.614 737.654 335.337 L 737.654 335.337 C 737.654 331.32 736.563 327.758 734.377 324.66 L 734.377 324.66 C 732.191 321.559 729.189 319.136 725.365 317.389 L 725.365 317.389 C 721.541 315.643 717.115 314.77 712.093 314.77 L 712.093 314.77 C 705.866 314.77 700.951 316.014 697.343 318.504" style="fill: none; clip-rule: nonzero;"/>
    </clipPath>
    <linearGradient id="shading12" gradientUnits="userSpaceOnUse" x1="0" y1="0" x2="1" y2="0">
      <stop offset="0" style="stop-color: rgb(180, 41, 232);"/>
      <stop offset="1" style="stop-color: rgb(45, 107, 222);"/>
    </linearGradient>
    <linearGradient gradientUnits="userSpaceOnUse" x1="-1.856" y1="-5.163" x2="-1.856" y2="2.809" id="gradient-25" spreadMethod="repeat">
      <stop offset="0" style="stop-color: #bada55"/>
      <stop offset="1" style="stop-color: #758d29"/>
    </linearGradient>
    <linearGradient gradientUnits="userSpaceOnUse" x1="827.368" y1="293.548" x2="827.368" y2="366.121" id="gradient-26" spreadMethod="repeat">
      <stop offset="0" style="stop-color: #bada55"/>
      <stop offset="1" style="stop-color: #758d29"/>
    </linearGradient>
    <clipPath id="clippath13" transform="">
      <path d="M 805.411 360.75 C 797.598 357.168 791.482 352.3 787.057 346.145 L 787.057 346.145 C 782.632 339.988 780.421 332.979 780.421 325.118 L 780.421 325.118 C 780.421 318.743 782.276 313.198 785.993 308.482 L 785.993 308.482 C 789.704 303.766 794.923 300.098 801.642 297.479 L 801.642 297.479 C 808.36 294.858 816.306 293.548 825.483 293.548 L 825.483 293.548 C 832.144 293.548 838.674 294.314 845.062 295.841 L 845.062 295.841 C 851.454 297.368 857.215 299.747 862.35 302.98 L 862.35 302.98 L 851.701 316.473 C 848.751 314.378 845.199 312.76 841.051 311.626 L 841.051 311.626 C 836.896 310.49 832.584 309.923 828.105 309.923 L 828.105 309.923 C 820.458 309.923 814.749 311.254 810.98 313.919 L 810.98 313.919 C 807.62 316.294 805.767 319.768 805.404 324.333 L 805.404 324.333 L 872.838 324.333 C 873.275 325.991 873.631 327.739 873.904 329.572 L 873.904 329.572 C 874.175 331.407 874.314 333.241 874.314 335.075 L 874.314 335.075 C 874.314 341.447 872.591 346.931 869.153 351.515 L 869.153 351.515 C 865.711 356.099 860.877 359.68 854.651 362.257 L 854.651 362.257 C 848.424 364.831 840.993 366.121 832.363 366.121 L 832.363 366.121 C 822.206 366.121 813.217 364.331 805.411 360.75 M 808.276 338.742 C 810.245 342.497 813.166 345.444 817.045 347.585 L 817.045 347.585 C 820.921 349.724 825.647 350.795 831.217 350.795 L 831.217 350.795 C 835.695 350.795 839.519 350.074 842.69 348.633 L 842.69 348.633 C 845.856 347.192 848.148 345.138 849.57 342.475 L 849.57 342.475 C 850.519 340.692 850.909 338.602 850.833 336.253 L 850.833 336.253 L 807.172 336.253 C 807.503 337.101 807.855 337.938 808.276 338.742" style="fill: none; clip-rule: nonzero;"/>
    </clipPath>
    <linearGradient id="shading13" gradientUnits="userSpaceOnUse" x1="0" y1="0" x2="1" y2="0">
      <stop offset="0" style="stop-color: rgb(180, 41, 232);"/>
      <stop offset="1" style="stop-color: rgb(45, 107, 222);"/>
    </linearGradient>
    <linearGradient gradientUnits="userSpaceOnUse" x1="-3.519" y1="-6.072" x2="-3.519" y2="3.513" id="gradient-27" spreadMethod="repeat">
      <stop offset="0" style="stop-color: #bada55"/>
      <stop offset="1" style="stop-color: #758d29"/>
    </linearGradient>
    <linearGradient gradientUnits="userSpaceOnUse" x1="203.56" y1="393.276" x2="203.56" y2="631.864" id="gradient-28" spreadMethod="repeat">
      <stop offset="0" style="stop-color: #bada55"/>
      <stop offset="1" style="stop-color: #758d29"/>
    </linearGradient>
    <clipPath id="clippath14" transform="">
      <path d="M 176.674 631.479 C 175.954 630.726 176.716 629.855 177.231 629.026 L 177.231 629.026 C 182.66 620.278 188.014 611.482 193.431 602.725 L 193.431 602.725 C 193.96 601.87 194.368 601.166 193.495 600.201 L 193.495 600.201 C 184.324 606.192 174.569 611.05 164.364 614.953 L 164.364 614.953 C 146.851 621.65 128.912 625.762 110.003 622.78 L 110.003 622.78 C 87.94 619.301 74.949 604.724 74.197 582.587 L 74.197 582.587 C 73.864 572.762 76.084 563.366 79.654 554.287 L 79.654 554.287 C 88.322 532.242 102.471 514.037 119.74 498.17 L 119.74 498.17 C 140.926 478.703 164.624 463.707 192.099 455.719 L 192.099 455.719 C 197.97 452.497 204.229 450.139 210.869 448.664 L 210.869 448.664 C 214.689 447.815 218.549 447.107 222.502 447.285 L 222.502 447.285 C 224.424 446.974 226.362 447.103 228.291 447.129 L 228.291 447.129 C 231.058 447.166 233.833 447.175 236.547 447.85 L 236.547 447.85 C 236.774 447.757 236.98 447.788 237.164 447.952 L 237.164 447.952 C 237.359 447.944 237.559 447.902 237.747 447.934 L 237.747 447.934 C 243.515 448.885 249.104 450.432 254.487 452.748 L 254.487 452.748 C 268.499 458.777 279.582 468.259 287.591 481.192 L 287.591 481.192 C 290.848 486.45 293.347 491.874 295.133 497.444 L 295.133 497.444 C 295.288 496.379 295.872 495.441 296.629 494.324 L 296.629 494.324 C 304.884 482.145 311.558 469.221 312.839 454.257 L 312.839 454.257 C 314.003 440.672 309.619 429.451 297.641 421.979 L 297.641 421.979 C 289.669 417.008 280.764 415.457 271.549 415.309 L 271.549 415.309 C 252.143 414.997 234.032 420.373 216.46 428.023 L 216.46 428.023 C 215.39 428.488 213.542 428.58 213.901 430.258 L 213.901 430.258 C 214.124 431.308 215.126 431.281 216.072 431.254 L 216.072 431.254 C 216.374 431.246 216.669 431.237 216.932 431.264 L 216.932 431.264 C 229.147 432.48 241.367 433.663 253.585 434.856 L 253.585 434.856 C 253.589 435.014 253.592 435.172 253.596 435.332 L 253.596 435.332 C 227.484 439.452 201.372 443.572 175.261 447.692 L 175.261 447.692 C 175.188 447.442 175.115 447.193 175.042 446.944 L 175.042 446.944 C 193.343 429.053 211.646 411.165 229.947 393.276 L 229.947 393.276 C 230.26 393.521 230.572 393.768 230.884 394.014 L 230.884 394.014 C 230.294 395.078 229.749 396.172 229.107 397.203 L 229.107 397.203 C 223.932 405.512 218.731 413.804 213.563 422.116 L 213.563 422.116 C 213.037 422.961 211.855 423.94 212.628 424.867 L 212.628 424.867 C 213.642 426.08 214.778 424.814 215.672 424.26 L 215.672 424.26 C 223.322 419.518 231.35 415.511 239.668 412.125 L 239.668 412.125 C 257.685 404.79 276.214 399.928 295.868 402.736 L 295.868 402.736 C 312.195 405.069 324.92 412.692 330.58 429.146 L 330.58 429.146 C 334.111 439.408 333.328 449.823 330.691 460.156 L 330.691 460.156 C 326.377 477.071 317.74 491.767 307.126 505.396 L 307.126 505.396 C 304.551 508.702 302.003 512.102 298.37 515.425 L 298.37 515.425 C 298.607 520.537 298.313 525.749 297.47 531.058 L 297.47 531.058 C 295.406 544.06 290.08 555.673 281.542 565.751 L 281.542 565.751 C 272.012 576.996 260.195 584.732 246.014 588.833 L 246.014 588.833 C 243.022 589.698 239.944 590.075 236.897 590.638 L 236.897 590.638 C 232.427 591.466 227.934 591.803 223.397 591.331 L 223.397 591.331 C 223.202 591.533 222.957 591.511 222.706 591.498 L 222.706 591.498 C 221.657 591.444 220.616 591.347 219.575 591.244 L 219.575 591.244 C 206.064 604.444 192.749 617.846 178.834 630.627 L 178.834 630.627 C 178.395 631.03 177.975 631.864 177.386 631.864 L 177.386 631.864 C 177.174 631.864 176.94 631.756 176.674 631.479 M 117.419 522.394 C 107.264 534.744 99.231 548.412 95.882 564.289 L 95.882 564.289 C 93.117 577.393 94.436 589.692 105.039 599.346 L 105.039 599.346 C 112.149 605.821 120.922 608.525 130.273 609.298 L 130.273 609.298 C 151.798 611.078 171.797 605.196 191.227 596.702 L 191.227 596.702 C 191.915 596.401 193.004 596.226 192.854 595.215 L 192.854 595.215 C 192.695 594.157 191.591 594.391 190.84 594.316 L 190.84 594.316 C 184.812 593.71 178.781 593.141 172.751 592.562 L 172.751 592.562 C 165.879 591.903 159.007 591.248 152.136 590.592 L 152.136 590.592 C 152.919 589.772 153.689 589.535 154.477 589.41 L 154.477 589.41 C 167.363 587.371 180.25 585.342 193.138 583.311 L 193.138 583.311 C 192.595 583.023 192.044 582.755 191.506 582.452 L 191.506 582.452 C 188.41 580.708 185.548 578.644 182.625 576.659 L 182.625 576.659 C 181.608 575.968 180.753 575.035 179.824 574.214 L 179.824 574.214 C 180.655 573.865 181.295 573.865 181.936 573.865 L 181.936 573.865 C 192.43 573.863 202.924 573.862 213.419 573.866 L 213.419 573.866 C 213.762 573.866 214.105 573.939 214.447 573.978 L 214.447 573.978 C 214.992 573.944 215.536 573.885 216.08 573.883 L 216.08 573.883 C 217.797 573.878 219.515 573.887 221.234 573.896 L 221.234 573.896 C 224.896 573.916 228.557 573.935 232.214 573.819 L 232.214 573.819 C 237.41 573.655 242.504 572.773 247.277 570.547 L 247.277 570.547 C 259.233 564.971 264.622 552.598 261.843 540.598 L 261.843 540.598 C 259.991 532.591 255.136 527.113 247.647 523.876 L 247.647 523.876 C 246.957 523.578 246.189 523.397 245.466 522.713 L 245.466 522.713 C 246.683 522.318 247.714 521.991 248.739 521.647 L 248.739 521.647 C 253.723 519.974 258.255 517.571 261.681 513.452 L 261.681 513.452 C 265.777 508.528 267.429 502.76 267.493 496.444 L 267.493 496.444 C 267.611 484.821 262.844 475.854 252.849 469.85 L 252.849 469.85 C 248.53 467.257 243.555 466.753 238.679 466.046 L 238.679 466.046 C 236.671 465.755 234.631 465.69 232.657 465.171 L 232.657 465.171 C 232.439 465.387 232.253 465.357 232.096 465.098 L 232.096 465.098 C 230.544 465.124 229 464.997 227.454 464.87 L 227.454 464.87 C 225.745 464.729 224.034 464.589 222.312 464.656 L 222.312 464.656 C 219.991 464.745 217.66 464.607 215.333 464.571 L 215.333 464.571 C 214.924 464.863 214.468 464.832 214.02 464.801 L 214.02 464.801 C 213.878 464.791 213.736 464.78 213.598 464.781 L 213.598 464.781 C 206.371 464.788 199.144 464.783 191.918 464.779 L 191.918 464.779 C 162.962 477.877 138.158 497.172 117.419 522.394" style="fill: none; clip-rule: nonzero;"/>
    </clipPath>
    <linearGradient id="shading14" gradientUnits="userSpaceOnUse" x1="0" y1="0" x2="1" y2="0">
      <stop offset="0" style="stop-color: rgb(180, 41, 232);"/>
      <stop offset="1" style="stop-color: rgb(45, 107, 222);"/>
    </linearGradient>
    <linearGradient gradientUnits="userSpaceOnUse" x1="1.452" y1="-1.497" x2="1.452" y2="1.981" id="gradient-29" spreadMethod="repeat">
      <stop offset="0" style="stop-color: #bada55"/>
      <stop offset="1" style="stop-color: #758d29"/>
    </linearGradient>
    <linearGradient gradientUnits="userSpaceOnUse" x1="210.802" y1="530.914" x2="210.802" y2="551.921" id="gradient-30" spreadMethod="repeat">
      <stop offset="0" style="stop-color: #bada55"/>
      <stop offset="1" style="stop-color: #758d29"/>
    </linearGradient>
    <clipPath id="clippath15" transform="">
      <path d="M 194.988 551.74 C 194.698 551.899 194.409 551.905 194.121 551.735 L 194.121 551.735 C 192.849 551.94 192.247 551.091 192.06 550.112 L 192.06 550.112 C 191.865 549.087 192.293 548.176 193.495 547.915 L 193.495 547.915 C 193.931 547.612 194.418 547.628 194.902 547.642 L 194.902 547.642 C 195.01 547.646 195.118 547.649 195.226 547.649 L 195.226 547.649 C 201.031 547.641 206.835 547.642 212.639 547.624 L 212.639 547.624 C 213.178 547.622 213.746 547.602 214.249 547.434 L 214.249 547.434 C 215.191 547.119 215.694 546.408 215.627 545.386 L 215.627 545.386 C 215.563 544.41 214.943 543.843 214.056 543.645 L 214.056 543.645 C 213.437 543.507 212.774 543.551 212.131 543.536 L 212.131 543.536 C 211.351 543.516 210.569 543.525 209.789 543.534 L 209.789 543.534 C 208.341 543.55 206.893 543.568 205.448 543.405 L 205.448 543.405 C 198.45 543.656 191.45 543.451 184.451 543.431 L 184.451 543.431 C 183.242 543.428 182.561 542.525 182.47 541.375 L 182.47 541.375 C 182.371 540.104 183.248 539.512 184.366 539.278 L 184.366 539.278 C 184.732 539.201 185.117 539.207 185.502 539.213 L 185.502 539.213 C 185.618 539.215 185.735 539.217 185.851 539.217 L 185.851 539.217 C 191.912 539.187 197.974 539.155 204.035 539.141 L 204.035 539.141 C 205.315 539.138 206.603 538.809 207.875 539.216 L 207.875 539.216 C 208.385 538.921 209.073 539.064 209.497 538.546 L 209.497 538.546 C 210.057 537.86 210.397 537.142 210.052 536.226 L 210.052 536.226 C 209.657 535.178 208.823 534.838 207.819 534.818 L 207.819 534.818 C 205.438 534.771 203.056 534.762 200.674 534.738 L 200.674 534.738 C 198.293 535.009 195.908 535.004 193.52 534.838 L 193.52 534.838 L 193.218 534.845 C 190.713 535.327 188.188 535.03 185.673 535.008 L 185.673 535.008 C 185.413 535.005 185.118 534.788 184.906 534.597 L 184.906 534.597 C 184.211 533.977 183.95 533.164 184.269 532.3 L 184.269 532.3 C 184.64 531.293 185.495 530.979 186.534 530.979 L 186.534 530.979 C 191.202 530.981 195.871 530.977 200.541 530.973 L 200.541 530.973 C 204.573 530.97 208.605 530.967 212.638 530.968 L 212.638 530.968 C 213.527 530.968 214.416 531.042 215.306 531.082 L 215.306 531.082 C 220.371 530.973 225.451 530.621 230.486 531.445 L 230.486 531.445 C 237.061 532.523 240.622 538.409 238.556 544.632 L 238.556 544.632 C 237.137 548.905 233.574 551.372 228.303 551.602 L 228.303 551.602 C 221.944 551.879 215.581 551.859 209.218 551.839 L 209.218 551.839 C 205.825 551.828 202.43 551.817 199.037 551.852 L 199.037 551.852 C 198.796 551.855 198.553 551.771 198.31 551.728 L 198.31 551.728 C 197.741 551.855 197.171 551.921 196.602 551.921 L 196.602 551.921 C 196.064 551.921 195.526 551.862 194.988 551.74" style="fill: none; clip-rule: nonzero;"/>
    </clipPath>
    <linearGradient id="shading15" gradientUnits="userSpaceOnUse" x1="0" y1="0" x2="1" y2="0">
      <stop offset="0" style="stop-color: rgb(180, 41, 232);"/>
      <stop offset="1" style="stop-color: rgb(45, 107, 222);"/>
    </linearGradient>
    <linearGradient gradientUnits="userSpaceOnUse" x1="4.72" y1="-6.327" x2="4.72" y2="9.552" id="gradient-31" spreadMethod="repeat">
      <stop offset="0" style="stop-color: #bada55"/>
      <stop offset="1" style="stop-color: #758d29"/>
    </linearGradient>
    <linearGradient gradientUnits="userSpaceOnUse" x1="176.881" y1="534.011" x2="176.881" y2="538.355" id="gradient-32" spreadMethod="repeat">
      <stop offset="0" style="stop-color: #bada55"/>
      <stop offset="1" style="stop-color: #758d29"/>
    </linearGradient>
    <clipPath id="clippath16" transform="">
      <path d="M 173.782 538.295 C 172.569 538.158 171.707 537.461 171.769 536.135 L 171.769 536.135 C 171.824 534.956 172.513 534.126 173.73 534.078 L 173.73 534.078 C 175.818 533.995 177.913 533.985 179.999 534.069 L 179.999 534.069 C 181.281 534.121 181.999 534.981 181.996 536.246 L 181.996 536.246 C 181.994 537.56 181.16 538.229 179.901 538.308 L 179.901 538.308 C 178.91 538.369 177.91 538.32 176.915 538.32 L 176.915 538.32 C 176.274 538.32 175.629 538.354 174.989 538.355 L 174.989 538.355 C 174.584 538.355 174.181 538.341 173.782 538.295" style="fill: none; clip-rule: nonzero;"/>
    </clipPath>
    <linearGradient id="shading16" gradientUnits="userSpaceOnUse" x1="0" y1="0" x2="1" y2="0">
      <stop offset="0" style="stop-color: rgb(180, 41, 232);"/>
      <stop offset="1" style="stop-color: rgb(45, 107, 222);"/>
    </linearGradient>
    <linearGradient gradientUnits="userSpaceOnUse" x1="27.196" y1="-35.562" x2="27.196" y2="52.41" id="gradient-33" spreadMethod="repeat">
      <stop offset="0" style="stop-color: #bada55"/>
      <stop offset="1" style="stop-color: #758d29"/>
    </linearGradient>
    <linearGradient gradientUnits="userSpaceOnUse" x1="171.155" y1="540.589" x2="171.155" y2="544.857" id="gradient-34" spreadMethod="repeat">
      <stop offset="0" style="stop-color: #bada55"/>
      <stop offset="1" style="stop-color: #758d29"/>
    </linearGradient>
    <clipPath id="clippath17" transform="">
      <path d="M 168.065 544.781 C 166.813 544.725 166.021 543.924 166.025 542.653 L 166.025 542.653 C 166.029 541.33 166.961 540.735 168.165 540.635 L 168.165 540.635 C 169.15 540.553 170.147 540.618 171.139 540.618 L 171.139 540.618 L 171.139 540.594 C 172.081 540.594 173.024 540.61 173.965 540.59 L 173.965 540.59 C 175.303 540.562 175.989 541.39 176.251 542.516 L 176.251 542.516 C 176.49 543.535 175.423 544.729 174.159 544.791 L 174.159 544.791 C 173.217 544.836 172.273 544.857 171.329 544.857 L 171.329 544.857 C 170.24 544.857 169.151 544.829 168.065 544.781" style="fill: none; clip-rule: nonzero;"/>
    </clipPath>
    <linearGradient id="shading17" gradientUnits="userSpaceOnUse" x1="0" y1="0" x2="1" y2="0">
      <stop offset="0" style="stop-color: rgb(180, 41, 232);"/>
      <stop offset="1" style="stop-color: rgb(45, 107, 222);"/>
    </linearGradient>
    <linearGradient gradientUnits="userSpaceOnUse" x1="27.678" y1="-34.822" x2="27.678" y2="52.897" id="gradient-35" spreadMethod="repeat">
      <stop offset="0" style="stop-color: #bada55"/>
      <stop offset="1" style="stop-color: #758d29"/>
    </linearGradient>
    <linearGradient gradientUnits="userSpaceOnUse" x1="183.911" y1="546.41" x2="183.911" y2="550.75" id="gradient-36" spreadMethod="repeat">
      <stop offset="0" style="stop-color: #bada55"/>
      <stop offset="1" style="stop-color: #758d29"/>
    </linearGradient>
    <clipPath id="clippath18" transform="">
      <path d="M 183.905 550.737 C 183.5 550.737 183.096 550.737 182.692 550.737 L 182.692 550.737 C 182.153 550.737 181.614 550.736 181.076 550.738 L 181.076 550.738 C 179.779 550.742 178.997 550.084 178.838 548.824 L 178.838 548.824 C 178.666 547.466 179.527 546.691 180.71 546.586 L 180.71 546.586 C 182.876 546.396 185.067 546.289 187.233 546.643 L 187.233 546.643 C 188.423 546.836 189.129 547.589 188.987 548.822 L 188.987 548.822 C 188.852 549.995 188.084 550.674 186.883 550.727 L 186.883 550.727 C 186.496 550.745 186.109 550.75 185.721 550.75 L 185.721 550.75 C 185.116 550.75 184.51 550.737 183.905 550.737" style="fill: none; clip-rule: nonzero;"/>
    </clipPath>
    <linearGradient id="shading18" gradientUnits="userSpaceOnUse" x1="0" y1="0" x2="1" y2="0">
      <stop offset="0" style="stop-color: rgb(180, 41, 232);"/>
      <stop offset="1" style="stop-color: rgb(45, 107, 222);"/>
    </linearGradient>
    <linearGradient gradientUnits="userSpaceOnUse" x1="26.615" y1="-34.49" x2="26.615" y2="53.84" id="gradient-37" spreadMethod="repeat">
      <stop offset="0" style="stop-color: #bada55"/>
      <stop offset="1" style="stop-color: #758d29"/>
    </linearGradient>
    <linearGradient gradientUnits="userSpaceOnUse" x1="179.214" y1="492.098" x2="179.214" y2="496.493" id="gradient-38" spreadMethod="repeat">
      <stop offset="0" style="stop-color: #bada55"/>
      <stop offset="1" style="stop-color: #758d29"/>
    </linearGradient>
    <clipPath id="clippath19" transform="">
      <path d="M 175.766 496.219 C 174.532 495.99 174.056 495.13 174.15 493.922 L 174.15 493.922 C 174.239 492.77 174.97 492.25 176.023 492.179 L 176.023 492.179 C 177.013 492.114 178.012 492.166 179.006 492.166 L 179.006 492.166 L 179.006 492.118 C 180.052 492.118 181.101 492.064 182.141 492.133 L 182.141 492.133 C 183.384 492.214 184.212 492.868 184.285 494.176 L 184.285 494.176 C 184.354 495.428 183.609 496.24 182.456 496.329 L 182.456 496.329 C 181.326 496.417 180.19 496.493 179.055 496.493 L 179.055 496.493 C 177.955 496.493 176.857 496.422 175.766 496.219" style="fill: none; clip-rule: nonzero;"/>
    </clipPath>
    <linearGradient id="shading19" gradientUnits="userSpaceOnUse" x1="0" y1="0" x2="1" y2="0">
      <stop offset="0" style="stop-color: rgb(180, 41, 232);"/>
      <stop offset="1" style="stop-color: rgb(45, 107, 222);"/>
    </linearGradient>
    <linearGradient gradientUnits="userSpaceOnUse" x1="27.176" y1="-39.967" x2="27.176" y2="48.695" id="gradient-39" spreadMethod="repeat">
      <stop offset="0" style="stop-color: #bada55"/>
      <stop offset="1" style="stop-color: #758d29"/>
    </linearGradient>
    <linearGradient gradientUnits="userSpaceOnUse" x1="186.223" y1="504.523" x2="186.223" y2="508.834" id="gradient-40" spreadMethod="repeat">
      <stop offset="0" style="stop-color: #bada55"/>
      <stop offset="1" style="stop-color: #758d29"/>
    </linearGradient>
    <clipPath id="clippath20" transform="">
      <path d="M 183.006 508.775 C 181.773 508.729 181.141 507.94 181.116 506.71 L 181.116 506.71 C 181.09 505.434 181.787 504.754 183.007 504.665 L 183.007 504.665 C 183.997 504.594 184.996 504.652 185.99 504.652 L 185.99 504.652 C 186.489 504.689 186.986 504.642 187.484 504.594 L 187.484 504.594 C 188.121 504.534 188.759 504.473 189.406 504.59 L 189.406 504.59 C 190.641 504.814 191.335 505.531 191.331 506.687 L 191.331 506.687 C 191.326 507.92 190.585 508.768 189.276 508.798 L 189.276 508.798 C 188.307 508.82 187.337 508.834 186.367 508.834 L 186.367 508.834 C 185.246 508.834 184.125 508.816 183.006 508.775" style="fill: none; clip-rule: nonzero;"/>
    </clipPath>
    <linearGradient id="shading20" gradientUnits="userSpaceOnUse" x1="0" y1="0" x2="1" y2="0">
      <stop offset="0" style="stop-color: rgb(180, 41, 232);"/>
      <stop offset="1" style="stop-color: rgb(45, 107, 222);"/>
    </linearGradient>
    <linearGradient gradientUnits="userSpaceOnUse" x1="26.323" y1="-38.504" x2="26.323" y2="49.601" id="gradient-41" spreadMethod="repeat">
      <stop offset="0" style="stop-color: #bada55"/>
      <stop offset="1" style="stop-color: #758d29"/>
    </linearGradient>
    <linearGradient gradientUnits="userSpaceOnUse" x1="173.384" y1="498.628" x2="173.384" y2="502.826" id="gradient-42" spreadMethod="repeat">
      <stop offset="0" style="stop-color: #bada55"/>
      <stop offset="1" style="stop-color: #758d29"/>
    </linearGradient>
    <clipPath id="clippath21" transform="">
      <path d="M 173.46 502.811 L 173.46 502.777 C 172.419 502.777 171.375 502.826 170.339 502.764 L 170.339 502.764 C 169.207 502.696 168.457 502.03 168.357 500.911 L 168.357 500.911 C 168.253 499.768 168.906 498.965 170.039 498.835 L 170.039 498.835 C 172.253 498.577 174.49 498.557 176.705 498.793 L 176.705 498.793 C 177.906 498.922 178.499 499.795 178.414 501.005 L 178.414 501.005 C 178.33 502.197 177.55 502.745 176.432 502.801 L 176.432 502.801 C 176.052 502.821 175.673 502.826 175.293 502.826 L 175.293 502.826 C 174.682 502.826 174.071 502.811 173.46 502.811" style="fill: none; clip-rule: nonzero;"/>
    </clipPath>
    <linearGradient id="shading21" gradientUnits="userSpaceOnUse" x1="0" y1="0" x2="1" y2="0">
      <stop offset="0" style="stop-color: rgb(180, 41, 232);"/>
      <stop offset="1" style="stop-color: rgb(45, 107, 222);"/>
    </linearGradient>
    <linearGradient gradientUnits="userSpaceOnUse" x1="27.953" y1="-39.626" x2="27.953" y2="49.694" id="gradient-43" spreadMethod="repeat">
      <stop offset="0" style="stop-color: #bada55"/>
      <stop offset="1" style="stop-color: #758d29"/>
    </linearGradient>
    <linearGradient gradientUnits="userSpaceOnUse" x1="213.662" y1="489.154" x2="213.662" y2="510.029" id="gradient-44" spreadMethod="repeat">
      <stop offset="0" style="stop-color: #bada55"/>
      <stop offset="1" style="stop-color: #758d29"/>
    </linearGradient>
    <clipPath id="clippath22" transform="">
      <path d="M 197.28 509.944 C 195.89 509.93 195.28 508.688 195.671 507.297 L 195.671 507.297 C 195.845 506.052 196.674 505.735 197.792 505.737 L 197.792 505.737 C 202.272 505.743 206.752 505.727 211.231 505.717 L 211.231 505.717 C 211.531 505.716 211.832 505.72 212.134 505.724 L 212.134 505.724 C 212.879 505.732 213.625 505.742 214.365 505.683 L 214.365 505.683 C 215.566 505.586 216.565 504.554 216.434 503.535 L 216.434 503.535 C 216.283 502.357 215.573 501.672 214.325 501.656 L 214.325 501.656 C 213.927 501.651 213.53 501.639 213.133 501.635 L 213.133 501.635 C 209.802 501.595 206.471 501.557 203.139 501.519 L 203.139 501.519 C 198.088 502.002 193.021 501.829 187.96 501.801 L 187.96 501.801 C 186.599 501.794 185.745 500.71 185.854 499.576 L 185.854 499.576 C 185.983 498.252 186.821 497.509 188.269 497.488 L 188.269 497.488 C 191.8 497.44 195.333 497.468 198.862 497.353 L 198.862 497.353 C 202.388 497.239 205.911 497.029 209.442 497.193 L 209.442 497.193 C 211.419 496.16 211.593 495.342 210.304 493.116 L 210.304 493.116 C 209.426 492.909 208.49 493.103 207.636 492.724 L 207.636 492.724 C 207.156 492.863 206.675 492.864 206.195 492.725 L 206.195 492.725 C 205.893 492.979 205.543 492.962 205.197 492.946 L 205.197 492.946 C 205.099 492.942 205.002 492.937 204.907 492.939 L 204.907 492.939 C 201.182 493.007 197.458 493.063 193.734 493.111 L 193.734 493.111 C 192.74 493.124 191.74 493.168 190.756 493.074 L 190.756 493.074 C 189.664 492.968 189.097 492.207 189.049 491.165 L 189.049 491.165 C 189.003 490.132 189.336 489.289 190.617 489.323 L 190.617 489.323 C 190.86 489.284 191.104 489.212 191.347 489.211 L 191.347 489.211 C 204.091 489.181 216.835 489.146 229.579 489.155 L 229.579 489.155 C 230.762 489.155 231.95 489.415 233.126 489.613 L 233.126 489.613 C 240.122 490.8 243.572 498.137 240.139 504.379 L 240.139 504.379 C 237.917 508.421 234.177 509.522 230.018 509.664 L 230.018 509.664 C 224.447 509.854 218.871 509.872 213.297 509.925 L 213.297 509.925 C 212.014 509.936 210.715 510.124 209.443 509.773 L 209.443 509.773 C 207.491 509.973 205.536 510.029 203.58 510.029 L 203.58 510.029 C 201.48 510.029 199.379 509.964 197.28 509.944" style="fill: none; clip-rule: nonzero;"/>
    </clipPath>
    <linearGradient id="shading22" gradientUnits="userSpaceOnUse" x1="0" y1="0" x2="1" y2="0">
      <stop offset="0" style="stop-color: rgb(180, 41, 232);"/>
      <stop offset="1" style="stop-color: rgb(45, 107, 222);"/>
    </linearGradient>
    <linearGradient gradientUnits="userSpaceOnUse" x1="4.748" y1="-7.197" x2="4.748" y2="8.98" id="gradient-45" spreadMethod="repeat">
      <stop offset="0" style="stop-color: #bada55"/>
      <stop offset="1" style="stop-color: #758d29"/>
    </linearGradient>
  </defs>
  <g transform="matrix(0.5220839381217957, 0, 0, -0.5220839381217957, 7.604969024658203, 350.8148193359375)">
    <path d="M 351.778 529.359 C 348.565 528.242 345.74 526.685 343.303 524.688 L 343.303 524.688 C 340.864 522.692 338.977 520.339 337.639 517.629 L 337.639 517.629 C 336.299 514.919 335.631 511.947 335.631 508.714 L 335.631 508.714 C 335.631 505.101 336.582 502.011 338.486 499.443 L 338.486 499.443 C 340.389 496.876 342.915 494.915 346.068 493.56 L 346.068 493.56 C 349.22 492.206 352.638 491.528 356.327 491.528 L 356.327 491.528 C 361.084 491.528 365.172 492.455 368.592 494.309 L 368.592 494.309 C 369.47 494.786 370.299 495.317 371.085 495.895 L 371.085 495.895 L 370.153 492.098 L 383.355 492.098 L 392.9 530.464 L 378.985 530.464 L 377.701 525.29 C 376.363 527.001 374.599 528.329 372.383 529.252 L 372.383 529.252 C 369.528 530.44 366.108 531.035 362.125 531.035 L 362.125 531.035 C 358.437 531.035 354.989 530.476 351.778 529.359 M 352.535 503.01 C 350.602 504.53 349.637 506.598 349.637 509.214 L 349.637 509.214 C 349.637 511.733 350.246 513.931 351.465 515.81 L 351.465 515.81 C 352.683 517.688 354.364 519.162 356.505 520.232 L 356.505 520.232 C 358.646 521.302 361.054 521.836 363.73 521.836 L 363.73 521.836 C 367.178 521.836 369.87 521.075 371.803 519.554 L 371.803 519.554 C 373.735 518.032 374.702 515.964 374.702 513.349 L 374.702 513.349 C 374.702 510.829 374.092 508.63 372.874 506.753 L 372.874 506.753 C 371.654 504.875 369.988 503.401 367.879 502.332 L 367.879 502.332 C 365.766 501.262 363.344 500.727 360.608 500.727 L 360.608 500.727 C 357.159 500.727 354.468 501.487 352.535 503.01" style="fill: none; stroke: url('#gradient-0'); paint-order: stroke;"/>
  </g>
  <g style="clip-path: url('#clippath0');" transform="matrix(0.5220839381217957, 0, 0, -0.5220839381217957, 7.604969024658203, 350.8148193359375)">
    <g transform="matrix(57.2688484 0 0 -57.2688484 335.6309814 511.2816467)">
      <rect x="-5.860620403185896" y="-6.787605551013662" width="15.71535005757161" height="15.71535005757161" style="fill: url('#shading0'); stroke: url('#gradient-1'); paint-order: stroke;"/>
    </g>
  </g>
  <g transform="matrix(0.5220839381217957, 0, 0, -0.5220839381217957, 7.604969024658203, 350.8148193359375)">
    <path d="M 411.186 528.111 C 406.784 526.161 403.336 523.511 400.838 520.16 L 400.838 520.16 C 398.34 516.809 397.092 512.993 397.092 508.714 L 397.092 508.714 C 397.092 505.243 398.102 502.224 400.125 499.658 L 400.125 499.658 C 402.145 497.091 404.986 495.094 408.643 493.667 L 408.643 493.667 C 412.301 492.241 416.596 491.528 421.534 491.528 L 421.534 491.528 C 426.469 491.528 430.945 492.335 434.958 493.952 L 434.958 493.952 C 438.973 495.568 442.109 497.827 444.37 500.727 L 444.37 500.727 L 434.111 505.862 C 432.742 504.103 431.048 502.806 429.026 501.975 L 429.026 501.975 C 427.004 501.143 424.774 500.727 422.336 500.727 L 422.336 500.727 C 418.768 500.727 416.017 501.499 414.085 503.045 L 414.085 503.045 C 412.151 504.59 411.186 506.669 411.186 509.285 L 411.186 509.285 C 411.186 511.756 411.81 513.931 413.06 515.81 L 413.06 515.81 C 414.308 517.688 416.003 519.162 418.144 520.232 L 418.144 520.232 C 420.285 521.302 422.722 521.836 425.459 521.836 L 425.459 521.836 C 427.956 521.836 430.111 521.419 431.926 520.589 L 431.926 520.589 C 433.739 519.755 435.151 518.437 436.163 516.631 L 436.163 516.631 L 447.938 521.337 C 446.153 524.427 443.389 526.815 439.642 528.504 L 439.642 528.504 C 435.895 530.191 431.464 531.035 426.351 531.035 L 426.351 531.035 C 420.641 531.035 415.586 530.06 411.186 528.111" style="fill: none; stroke: url('#gradient-2'); paint-order: stroke;"/>
  </g>
  <g style="clip-path: url('#clippath1');" transform="matrix(0.5220839381217957, 0, 0, -0.5220839381217957, 7.604969024658203, 350.8148193359375)">
    <g transform="matrix(50.8464622 0 0 -50.8464622 397.0916138 511.2816467)">
      <rect x="-7.809621291606794" y="-7.644943944595617" width="17.70034651496363" height="17.70034651496363" style="fill: url('#shading1'); stroke: url('#gradient-3'); paint-order: stroke;"/>
    </g>
  </g>
  <g transform="matrix(0.5220839381217957, 0, 0, -0.5220839381217957, 7.604969024658203, 350.8148193359375)">
    <path d="M 461.764 545.012 L 448.562 492.098 L 462.477 492.098 L 464.782 501.336 L 473.3 507.01 L 484.689 492.098 L 500.835 492.098 L 484.34 513.76 L 509.397 530.464 L 491.29 530.464 L 468.287 515.384 L 475.68 545.012 Z" style="fill: none; stroke: url('#gradient-4'); paint-order: stroke;"/>
  </g>
  <g style="clip-path: url('#clippath2');" transform="matrix(0.5220839381217957, 0, 0, -0.5220839381217957, 7.604969024658203, 350.8148193359375)">
    <g transform="matrix(60.8365784 0 0 -60.8365784 448.5613098 518.5553589)">
      <rect x="-7.373217258385458" y="-6.269988403884334" width="14.793731397622455" height="14.793731397622455" style="fill: url('#shading2'); stroke: url('#gradient-5'); paint-order: stroke;"/>
    </g>
  </g>
  <g transform="matrix(0.5220839381217957, 0, 0, -0.5220839381217957, 7.604969024658203, 350.8148193359375)">
    <path d="M 519.029 528.111 C 514.63 526.161 511.182 523.511 508.683 520.16 L 508.683 520.16 C 506.186 516.809 504.937 512.993 504.937 508.714 L 504.937 508.714 C 504.937 505.243 505.947 502.224 507.97 499.658 L 507.97 499.658 C 509.99 497.091 512.83 495.094 516.489 493.667 L 516.489 493.667 C 520.145 492.241 524.442 491.528 529.38 491.528 L 529.38 491.528 C 534.316 491.528 538.791 492.335 542.803 493.952 L 542.803 493.952 C 546.818 495.568 549.954 497.827 552.214 500.727 L 552.214 500.727 L 541.955 505.862 C 540.587 504.103 538.891 502.806 536.871 501.975 L 536.871 501.975 C 534.847 501.143 532.62 500.727 530.181 500.727 L 530.181 500.727 C 526.612 500.727 523.861 501.499 521.929 503.045 L 521.929 503.045 C 519.997 504.59 519.029 506.669 519.029 509.285 L 519.029 509.285 C 519.029 511.756 519.656 513.931 520.905 515.81 L 520.905 515.81 C 522.153 517.688 523.849 519.162 525.988 520.232 L 525.988 520.232 C 528.129 521.302 530.568 521.836 533.304 521.836 L 533.304 521.836 C 535.8 521.836 537.955 521.419 539.771 520.589 L 539.771 520.589 C 541.583 519.755 542.995 518.437 544.007 516.631 L 544.007 516.631 L 555.781 521.337 C 553.998 524.427 551.234 526.815 547.486 528.504 L 547.486 528.504 C 543.74 530.191 539.311 531.035 534.195 531.035 L 534.195 531.035 C 528.487 531.035 523.433 530.06 519.029 528.111" style="fill: none; stroke: url('#gradient-6'); paint-order: stroke;"/>
  </g>
  <g style="clip-path: url('#clippath3');" transform="matrix(0.5220839381217957, 0, 0, -0.5220839381217957, 7.604969024658203, 350.8148193359375)">
    <g transform="matrix(50.8448868 0 0 -50.8448868 504.9366455 511.2816467)">
      <rect x="-9.930922798317647" y="-7.645180818850795" width="17.700894950168323" height="17.700894950168323" style="fill: url('#shading3'); stroke: url('#gradient-7'); paint-order: stroke;"/>
    </g>
  </g>
  <g transform="matrix(0.5220839381217957, 0, 0, -0.5220839381217957, 7.604969024658203, 350.8148193359375)">
    <path d="M 571.081 528.111 C 566.71 526.161 563.277 523.511 560.778 520.16 L 560.778 520.16 C 558.281 516.809 557.033 512.993 557.033 508.714 L 557.033 508.714 C 557.033 505.243 558.027 502.224 560.021 499.658 L 560.021 499.658 C 562.013 497.091 564.822 495.094 568.45 493.667 L 568.45 493.667 C 572.077 492.241 576.329 491.528 581.206 491.528 L 581.206 491.528 C 586.856 491.528 591.852 492.502 596.192 494.452 L 596.192 494.452 C 600.532 496.4 603.953 499.063 606.451 502.439 L 606.451 502.439 C 608.948 505.814 610.196 509.617 610.196 513.849 L 610.196 513.849 C 610.196 517.366 609.2 520.397 607.209 522.94 L 607.209 522.94 C 605.215 525.485 602.421 527.47 598.824 528.896 L 598.824 528.896 C 595.226 530.322 590.959 531.035 586.023 531.035 L 586.023 531.035 C 580.432 531.035 575.453 530.06 571.081 528.111 M 573.981 502.973 C 572.077 504.517 571.126 506.598 571.126 509.214 L 571.126 509.214 C 571.126 511.733 571.735 513.944 572.955 515.846 L 572.955 515.846 C 574.173 517.747 575.839 519.232 577.95 520.303 L 577.95 520.303 C 580.061 521.372 582.484 521.907 585.22 521.907 L 585.22 521.907 C 588.668 521.907 591.346 521.122 593.249 519.554 L 593.249 519.554 C 595.151 517.985 596.102 515.917 596.102 513.349 L 596.102 513.349 C 596.102 510.829 595.508 508.619 594.319 506.718 L 594.319 506.718 C 593.129 504.815 591.479 503.33 589.368 502.26 L 589.368 502.26 C 587.255 501.191 584.832 500.656 582.098 500.656 L 582.098 500.656 C 578.589 500.656 575.883 501.428 573.981 502.973" style="fill: none; stroke: url('#gradient-8'); paint-order: stroke;"/>
  </g>
  <g style="clip-path: url('#clippath4');" transform="matrix(0.5220839381217957, 0, 0, -0.5220839381217957, 7.604969024658203, 350.8148193359375)">
    <rect y="-900" width="900" height="900" style="fill: url('#shading4'); stroke: url('#gradient-9'); paint-order: stroke;" transform="matrix(1, 0, 0, -1, 0, 0)"/>
  </g>
  <g transform="matrix(0.5220839381217957, 0, 0, -0.5220839381217957, 7.604969024658203, 350.8148193359375)">
    <path d="M 671.522 528.396 C 669.477 527.428 667.653 526.189 666.013 524.732 L 666.013 524.732 C 665.737 525.152 665.44 525.558 665.101 525.937 L 665.101 525.937 C 663.583 527.623 661.636 528.896 659.258 529.752 L 659.258 529.752 C 656.878 530.608 654.202 531.035 651.228 531.035 L 651.228 531.035 C 647.541 531.035 644.062 530.368 640.792 529.039 L 640.792 529.039 C 639.116 528.357 637.586 527.481 636.191 526.424 L 636.191 526.424 L 637.223 530.464 L 624.021 530.464 L 614.479 492.098 L 628.393 492.098 L 633.21 511.638 C 634.102 515.061 635.618 517.545 637.76 519.09 L 637.76 519.09 C 639.899 520.635 642.605 521.408 645.877 521.408 L 645.877 521.408 C 648.968 521.408 651.125 520.647 652.344 519.126 L 652.344 519.126 C 653.563 517.603 653.817 515.418 653.102 512.565 L 653.102 512.565 L 648.019 492.098 L 661.934 492.098 L 666.841 511.78 C 667.673 515.109 669.158 517.545 671.3 519.09 L 671.3 519.09 C 673.44 520.635 676.146 521.408 679.417 521.408 L 679.417 521.408 C 682.509 521.408 684.68 520.647 685.929 519.126 L 685.929 519.126 C 687.179 517.603 687.415 515.418 686.642 512.565 L 686.642 512.565 L 681.558 492.098 L 695.473 492.098 L 700.737 513.349 C 701.747 517.201 701.659 520.433 700.469 523.048 L 700.469 523.048 C 699.279 525.663 697.287 527.647 694.493 529.004 L 694.493 529.004 C 691.696 530.358 688.279 531.035 684.234 531.035 L 684.234 531.035 C 679.476 531.035 675.238 530.155 671.522 528.396" style="fill: none; stroke: url('#gradient-10'); paint-order: stroke;"/>
  </g>
  <g style="clip-path: url('#clippath5');" transform="matrix(0.5220839381217957, 0, 0, -0.5220839381217957, 7.604969024658203, 350.8148193359375)">
    <g transform="matrix(86.9554367 0 0 -86.9554367 614.4780884 511.566864)">
      <rect x="-7.066586193109188" y="-4.467036803461882" width="10.350129148394007" height="10.350129148394007" style="fill: url('#shading5'); stroke: url('#gradient-11'); paint-order: stroke;"/>
    </g>
  </g>
  <g transform="matrix(0.5220839381217957, 0, 0, -0.5220839381217957, 7.604969024658203, 350.8148193359375)">
    <path d="M 48.626 386.295 L 25.685 294.597 L 114.496 294.597 L 118.922 311.626 L 56.327 311.626 L 61.636 332.848 L 114.989 332.848 L 119.084 349.354 L 65.764 349.354 L 70.745 369.265 L 130.883 369.265 L 135.307 386.295 Z" style="fill: none; stroke: url('#gradient-12'); paint-order: stroke;"/>
  </g>
  <g style="clip-path: url('#clippath6');" transform="matrix(0.5220839381217957, 0, 0, -0.5220839381217957, 7.604969024658203, 350.8148193359375)">
    <g transform="matrix(109.6210098 0 0 -109.6210098 25.6857147 340.4454346)">
      <rect x="-0.23431379392383594" y="-5.10444636863763" width="8.210104993942503" height="8.210104993942503" style="fill: url('#shading6'); stroke: url('#gradient-13'); paint-order: stroke;"/>
    </g>
  </g>
  <g transform="matrix(0.5220839381217957, 0, 0, -0.5220839381217957, 7.604969024658203, 350.8148193359375)">
    <path d="M 206.752 365.073 L 182.249 344.379 L 168.246 365.073 L 141.698 365.073 L 165.209 330.808 L 121.054 294.597 L 150.22 294.597 L 175.547 316.153 L 190.038 294.597 L 217.075 294.597 L 192.573 329.834 L 234.935 365.073 Z" style="fill: none; stroke: url('#gradient-14'); paint-order: stroke;"/>
  </g>
  <g style="clip-path: url('#clippath7');" transform="matrix(0.5220839381217957, 0, 0, -0.5220839381217957, 7.604969024658203, 350.8148193359375)">
    <g transform="matrix(113.8820724 0 0 -113.8820724 121.0530167 329.8347778)">
      <rect x="-1.0629681577519308" y="-5.006628437506376" width="7.902912030252093" height="7.902912030252094" style="fill: url('#shading7'); stroke: url('#gradient-15'); paint-order: stroke;"/>
    </g>
  </g>
  <g transform="matrix(0.5220839381217957, 0, 0, -0.5220839381217957, 7.604969024658203, 350.8148193359375)">
    <path d="M 255.089 360.75 C 247.003 357.168 240.669 352.3 236.082 346.145 L 236.082 346.145 C 231.493 339.988 229.2 332.979 229.2 325.118 L 229.2 325.118 C 229.2 318.743 231.056 313.198 234.77 308.482 L 234.77 308.482 C 238.484 303.766 243.7 300.098 250.419 297.479 L 250.419 297.479 C 257.138 294.858 265.028 293.548 274.098 293.548 L 274.098 293.548 C 283.164 293.548 291.385 295.033 298.759 298.002 L 298.759 298.002 C 306.131 300.971 311.891 305.119 316.046 310.446 L 316.046 310.446 L 297.202 319.879 C 294.689 316.648 291.574 314.266 287.863 312.739 L 287.863 312.739 C 284.145 311.211 280.049 310.446 275.571 310.446 L 275.571 310.446 C 269.017 310.446 263.964 311.865 260.414 314.705 L 260.414 314.705 C 256.863 317.542 255.089 321.362 255.089 326.166 L 255.089 326.166 C 255.089 330.707 256.237 334.701 258.53 338.153 L 258.53 338.153 C 260.825 341.602 263.938 344.31 267.871 346.274 L 267.871 346.274 C 271.803 348.241 276.281 349.223 281.306 349.223 L 281.306 349.223 C 285.894 349.223 289.854 348.457 293.186 346.931 L 293.186 346.931 C 296.518 345.4 299.111 342.977 300.97 339.66 L 300.97 339.66 L 322.6 348.305 C 319.323 353.983 314.242 358.369 307.362 361.471 L 307.362 361.471 C 300.478 364.569 292.341 366.121 282.947 366.121 L 282.947 366.121 C 272.46 366.121 263.173 364.331 255.089 360.75" style="fill: none; stroke: url('#gradient-16'); paint-order: stroke;"/>
  </g>
  <g style="clip-path: url('#clippath8');" transform="matrix(0.5220839381217957, 0, 0, -0.5220839381217957, 7.604969024658203, 350.8148193359375)">
    <g transform="matrix(93.3988724 0 0 -93.3988724 229.2006073 329.8347778)">
      <rect x="-2.453997584878765" y="-6.104626400179109" width="9.636090638713107" height="9.636090638713107" style="fill: url('#shading8'); stroke: url('#gradient-17'); paint-order: stroke;"/>
    </g>
  </g>
  <g transform="matrix(0.5220839381217957, 0, 0, -0.5220839381217957, 7.604969024658203, 350.8148193359375)">
    <path d="M 347.995 391.796 L 323.745 294.597 L 349.306 294.597 L 358.156 330.358 C 359.794 336.47 362.77 341.012 367.086 343.983 L 367.086 343.983 C 371.398 346.95 376.78 348.436 383.227 348.436 L 383.227 348.436 C 389.453 348.436 393.737 347.039 396.088 344.244 L 396.088 344.244 C 398.436 341.447 398.957 337.477 397.645 332.323 L 397.645 332.323 L 388.142 294.597 L 413.706 294.597 L 423.536 333.634 C 425.281 340.708 425.036 346.646 422.798 351.449 L 422.798 351.449 C 420.557 356.251 416.817 359.898 411.575 362.389 L 411.575 362.389 C 406.33 364.876 399.993 366.121 392.566 366.121 L 392.566 366.121 C 385.574 366.121 378.937 364.92 372.659 362.518 L 372.659 362.518 C 370.012 361.507 367.588 360.196 365.301 358.698 L 365.301 358.698 L 373.559 391.796 Z" style="fill: none; stroke: url('#gradient-18'); paint-order: stroke;"/>
  </g>
  <g style="clip-path: url('#clippath9');" transform="matrix(0.5220839381217957, 0, 0, -0.5220839381217957, 7.604969024658203, 350.8148193359375)">
    <g transform="matrix(100.9378738 0 0 -100.9378738 323.7457886 343.196167)">
      <rect x="-3.2073767398892845" y="-5.516302375293346" width="8.916375648879578" height="8.916375648879578" style="fill: url('#shading9'); stroke: url('#gradient-19'); paint-order: stroke;"/>
    </g>
  </g>
  <g transform="matrix(0.5220839381217957, 0, 0, -0.5220839381217957, 7.604969024658203, 350.8148193359375)">
    <path d="M 468.76 363.043 C 462.861 360.99 457.671 358.13 453.193 354.463 L 453.193 354.463 C 448.715 350.795 445.247 346.472 442.789 341.494 L 442.789 341.494 C 440.331 336.514 439.101 331.057 439.101 325.118 L 439.101 325.118 C 439.101 318.48 440.847 312.806 444.347 308.089 L 444.347 308.089 C 447.84 303.373 452.48 299.77 458.274 297.281 L 458.274 297.281 C 464.062 294.793 470.344 293.548 477.118 293.548 L 477.118 293.548 C 485.858 293.548 493.366 295.252 499.648 298.657 L 499.648 298.657 C 501.261 299.533 502.785 300.509 504.229 301.571 L 504.229 301.571 L 502.517 294.597 L 526.768 294.597 L 544.302 365.073 L 518.738 365.073 L 516.382 355.567 C 513.923 358.71 510.683 361.149 506.613 362.846 L 506.613 362.846 C 501.37 365.028 495.086 366.121 487.768 366.121 L 487.768 366.121 C 480.994 366.121 474.66 365.094 468.76 363.043 M 470.154 314.64 C 466.601 317.433 464.827 321.232 464.827 326.036 L 464.827 326.036 C 464.827 330.663 465.947 334.701 468.187 338.153 L 468.187 338.153 C 470.426 341.602 473.513 344.31 477.445 346.274 L 477.445 346.274 C 481.379 348.241 485.802 349.223 490.718 349.223 L 490.718 349.223 C 497.051 349.223 501.995 347.825 505.547 345.03 L 505.547 345.03 C 509.096 342.235 510.874 338.435 510.874 333.634 L 510.874 333.634 C 510.874 329.003 509.75 324.965 507.513 321.516 L 507.513 321.516 C 505.275 318.065 502.216 315.358 498.336 313.394 L 498.336 313.394 C 494.457 311.43 490.005 310.446 484.983 310.446 L 484.983 310.446 C 478.646 310.446 473.702 311.843 470.154 314.64" style="fill: none; stroke: url('#gradient-20'); paint-order: stroke;"/>
  </g>
  <g style="clip-path: url('#clippath10');" transform="matrix(0.5220839381217957, 0, 0, -0.5220839381217957, 7.604969024658203, 350.8148193359375)">
    <g transform="matrix(105.200737 0 0 -105.200737 439.1012878 329.8347778)">
      <rect x="-4.173937372701106" y="-5.4197835344062275" width="8.555073145542696" height="8.555073145542696" style="fill: url('#shading10'); stroke: url('#gradient-21'); paint-order: stroke;"/>
    </g>
  </g>
  <g transform="matrix(0.5220839381217957, 0, 0, -0.5220839381217957, 7.604969024658203, 350.8148193359375)">
    <path d="M 599.277 362.518 C 595.976 361.256 592.974 359.594 590.233 357.574 L 590.233 357.574 L 592.147 365.073 L 567.895 365.073 L 550.363 294.597 L 575.923 294.597 L 584.773 330.358 C 586.412 336.47 589.388 341.012 593.704 343.983 L 593.704 343.983 C 598.017 346.95 603.399 348.436 609.844 348.436 L 609.844 348.436 C 616.072 348.436 620.356 347.039 622.706 344.244 L 622.706 344.244 C 625.054 341.447 625.576 337.477 624.263 332.323 L 624.263 332.323 L 614.759 294.597 L 640.323 294.597 L 650.155 333.634 C 651.9 340.708 651.683 346.646 649.497 351.449 L 649.497 351.449 C 647.311 356.251 643.601 359.898 638.356 362.389 L 638.356 362.389 C 633.112 364.876 626.72 366.121 619.184 366.121 L 619.184 366.121 C 612.193 366.121 605.555 364.92 599.277 362.518" style="fill: none; stroke: url('#gradient-22'); paint-order: stroke;"/>
  </g>
  <g style="clip-path: url('#clippath11');" transform="matrix(0.5220839381217957, 0, 0, -0.5220839381217957, 7.604969024658203, 350.8148193359375)">
    <g transform="matrix(100.9542847 0 0 -100.9542847 550.3636475 330.3587036)">
      <rect x="-5.451612570337987" y="-5.642566812223672" width="8.914926223037268" height="8.914926223037268" style="fill: url('#shading11'); stroke: url('#gradient-23'); paint-order: stroke;"/>
    </g>
  </g>
  <g transform="matrix(0.5220839381217957, 0, 0, -0.5220839381217957, 7.604969024658203, 350.8148193359375)">
    <path d="M 695.787 363.173 C 689.832 361.209 684.644 358.457 680.222 354.921 L 680.222 354.921 C 675.796 351.383 672.357 347.301 669.9 342.672 L 669.9 342.672 C 667.442 338.042 666.211 333.022 666.211 327.608 L 666.211 327.608 C 666.211 321.406 667.957 316.1 671.453 311.692 L 671.453 311.692 C 674.951 307.282 679.648 303.898 685.548 301.539 L 685.548 301.539 C 691.444 299.182 698.001 298.002 705.209 298.002 L 705.209 298.002 C 713.732 298.002 721.076 299.617 727.25 302.85 L 727.25 302.85 C 729.01 303.771 730.637 304.826 732.189 305.957 L 732.189 305.957 L 731.426 302.85 C 729.896 296.824 726.923 292.283 722.497 289.226 L 722.497 289.226 C 718.073 286.17 711.436 284.639 702.589 284.639 L 702.589 284.639 C 696.469 284.639 690.651 285.34 685.137 286.737 L 685.137 286.737 C 679.62 288.134 675.112 289.968 671.618 292.238 L 671.618 292.238 L 659.492 277.437 C 664.628 274.38 670.771 272.065 677.926 270.493 L 677.926 270.493 C 685.082 268.922 692.921 268.136 701.44 268.136 L 701.44 268.136 C 716.733 268.136 729.105 271.127 738.556 277.107 L 738.556 277.107 C 748.005 283.09 754.423 292.851 757.81 306.387 L 757.81 306.387 L 772.393 365.073 L 747.979 365.073 L 745.271 353.668 C 745.214 353.756 745.169 353.852 745.11 353.939 L 745.11 353.939 C 742.216 358.216 738.146 361.318 732.903 363.239 L 732.903 363.239 C 727.658 365.158 721.813 366.121 715.37 366.121 L 715.37 366.121 C 708.266 366.121 701.741 365.139 695.787 363.173 M 697.343 318.504 C 693.74 320.992 691.936 324.376 691.936 328.657 L 691.936 328.657 C 691.936 332.671 693.057 336.231 695.298 339.332 L 695.298 339.332 C 697.535 342.431 700.595 344.855 704.473 346.602 L 704.473 346.602 C 708.349 348.349 712.802 349.223 717.827 349.223 L 717.827 349.223 C 724.054 349.223 728.914 347.979 732.411 345.489 L 732.411 345.489 C 735.906 342.999 737.654 339.614 737.654 335.337 L 737.654 335.337 C 737.654 331.32 736.563 327.758 734.377 324.66 L 734.377 324.66 C 732.191 321.559 729.189 319.136 725.365 317.389 L 725.365 317.389 C 721.541 315.643 717.115 314.77 712.093 314.77 L 712.093 314.77 C 705.866 314.77 700.951 316.014 697.343 318.504" style="fill: none; stroke: url('#gradient-24'); paint-order: stroke;"/>
  </g>
  <g style="clip-path: url('#clippath12');" transform="matrix(0.5220839381217957, 0, 0, -0.5220839381217957, 7.604969024658203, 350.8148193359375)">
    <g transform="matrix(112.9007568 0 0 -112.9007568 659.4925537 317.1282959)">
      <rect x="-5.841347501932778" y="-5.1626908500935755" width="7.971602897173848" height="7.971602897173848" style="fill: url('#shading12'); stroke: url('#gradient-25'); paint-order: stroke;"/>
    </g>
  </g>
  <g transform="matrix(0.5220839381217957, 0, 0, -0.5220839381217957, 7.604969024658203, 350.8148193359375)">
    <path d="M 805.411 360.75 C 797.598 357.168 791.482 352.3 787.057 346.145 L 787.057 346.145 C 782.632 339.988 780.421 332.979 780.421 325.118 L 780.421 325.118 C 780.421 318.743 782.276 313.198 785.993 308.482 L 785.993 308.482 C 789.704 303.766 794.923 300.098 801.642 297.479 L 801.642 297.479 C 808.36 294.858 816.306 293.548 825.483 293.548 L 825.483 293.548 C 832.144 293.548 838.674 294.314 845.062 295.841 L 845.062 295.841 C 851.454 297.368 857.215 299.747 862.35 302.98 L 862.35 302.98 L 851.701 316.473 C 848.751 314.378 845.199 312.76 841.051 311.626 L 841.051 311.626 C 836.896 310.49 832.584 309.923 828.105 309.923 L 828.105 309.923 C 820.458 309.923 814.749 311.254 810.98 313.919 L 810.98 313.919 C 807.62 316.294 805.767 319.768 805.404 324.333 L 805.404 324.333 L 872.838 324.333 C 873.275 325.991 873.631 327.739 873.904 329.572 L 873.904 329.572 C 874.175 331.407 874.314 333.241 874.314 335.075 L 874.314 335.075 C 874.314 341.447 872.591 346.931 869.153 351.515 L 869.153 351.515 C 865.711 356.099 860.877 359.68 854.651 362.257 L 854.651 362.257 C 848.424 364.831 840.993 366.121 832.363 366.121 L 832.363 366.121 C 822.206 366.121 813.217 364.331 805.411 360.75 M 808.276 338.742 C 810.245 342.497 813.166 345.444 817.045 347.585 L 817.045 347.585 C 820.921 349.724 825.647 350.795 831.217 350.795 L 831.217 350.795 C 835.695 350.795 839.519 350.074 842.69 348.633 L 842.69 348.633 C 845.856 347.192 848.148 345.138 849.57 342.475 L 849.57 342.475 C 850.519 340.692 850.909 338.602 850.833 336.253 L 850.833 336.253 L 807.172 336.253 C 807.503 337.101 807.855 337.938 808.276 338.742" style="fill: none; stroke: url('#gradient-26'); paint-order: stroke;"/>
  </g>
  <g style="clip-path: url('#clippath13');" transform="matrix(0.5220839381217957, 0, 0, -0.5220839381217957, 7.604969024658203, 350.8148193359375)">
    <g transform="matrix(93.8938751 0 0 -93.8938751 780.4204102 329.8347778)">
      <rect x="-8.311728633724268" y="-6.072443187510961" width="9.585289765082878" height="9.585289765082878" style="fill: url('#shading13'); stroke: url('#gradient-27'); paint-order: stroke;"/>
    </g>
  </g>
  <g transform="matrix(0.5220839381217957, 0, 0, -0.5220839381217957, 7.604969024658203, 350.8148193359375)">
    <path d="M 176.674 631.479 C 175.954 630.726 176.716 629.855 177.231 629.026 L 177.231 629.026 C 182.66 620.278 188.014 611.482 193.431 602.725 L 193.431 602.725 C 193.96 601.87 194.368 601.166 193.495 600.201 L 193.495 600.201 C 184.324 606.192 174.569 611.05 164.364 614.953 L 164.364 614.953 C 146.851 621.65 128.912 625.762 110.003 622.78 L 110.003 622.78 C 87.94 619.301 74.949 604.724 74.197 582.587 L 74.197 582.587 C 73.864 572.762 76.084 563.366 79.654 554.287 L 79.654 554.287 C 88.322 532.242 102.471 514.037 119.74 498.17 L 119.74 498.17 C 140.926 478.703 164.624 463.707 192.099 455.719 L 192.099 455.719 C 197.97 452.497 204.229 450.139 210.869 448.664 L 210.869 448.664 C 214.689 447.815 218.549 447.107 222.502 447.285 L 222.502 447.285 C 224.424 446.974 226.362 447.103 228.291 447.129 L 228.291 447.129 C 231.058 447.166 233.833 447.175 236.547 447.85 L 236.547 447.85 C 236.774 447.757 236.98 447.788 237.164 447.952 L 237.164 447.952 C 237.359 447.944 237.559 447.902 237.747 447.934 L 237.747 447.934 C 243.515 448.885 249.104 450.432 254.487 452.748 L 254.487 452.748 C 268.499 458.777 279.582 468.259 287.591 481.192 L 287.591 481.192 C 290.848 486.45 293.347 491.874 295.133 497.444 L 295.133 497.444 C 295.288 496.379 295.872 495.441 296.629 494.324 L 296.629 494.324 C 304.884 482.145 311.558 469.221 312.839 454.257 L 312.839 454.257 C 314.003 440.672 309.619 429.451 297.641 421.979 L 297.641 421.979 C 289.669 417.008 280.764 415.457 271.549 415.309 L 271.549 415.309 C 252.143 414.997 234.032 420.373 216.46 428.023 L 216.46 428.023 C 215.39 428.488 213.542 428.58 213.901 430.258 L 213.901 430.258 C 214.124 431.308 215.126 431.281 216.072 431.254 L 216.072 431.254 C 216.374 431.246 216.669 431.237 216.932 431.264 L 216.932 431.264 C 229.147 432.48 241.367 433.663 253.585 434.856 L 253.585 434.856 C 253.589 435.014 253.592 435.172 253.596 435.332 L 253.596 435.332 C 227.484 439.452 201.372 443.572 175.261 447.692 L 175.261 447.692 C 175.188 447.442 175.115 447.193 175.042 446.944 L 175.042 446.944 C 193.343 429.053 211.646 411.165 229.947 393.276 L 229.947 393.276 C 230.26 393.521 230.572 393.768 230.884 394.014 L 230.884 394.014 C 230.294 395.078 229.749 396.172 229.107 397.203 L 229.107 397.203 C 223.932 405.512 218.731 413.804 213.563 422.116 L 213.563 422.116 C 213.037 422.961 211.855 423.94 212.628 424.867 L 212.628 424.867 C 213.642 426.08 214.778 424.814 215.672 424.26 L 215.672 424.26 C 223.322 419.518 231.35 415.511 239.668 412.125 L 239.668 412.125 C 257.685 404.79 276.214 399.928 295.868 402.736 L 295.868 402.736 C 312.195 405.069 324.92 412.692 330.58 429.146 L 330.58 429.146 C 334.111 439.408 333.328 449.823 330.691 460.156 L 330.691 460.156 C 326.377 477.071 317.74 491.767 307.126 505.396 L 307.126 505.396 C 304.551 508.702 302.003 512.102 298.37 515.425 L 298.37 515.425 C 298.607 520.537 298.313 525.749 297.47 531.058 L 297.47 531.058 C 295.406 544.06 290.08 555.673 281.542 565.751 L 281.542 565.751 C 272.012 576.996 260.195 584.732 246.014 588.833 L 246.014 588.833 C 243.022 589.698 239.944 590.075 236.897 590.638 L 236.897 590.638 C 232.427 591.466 227.934 591.803 223.397 591.331 L 223.397 591.331 C 223.202 591.533 222.957 591.511 222.706 591.498 L 222.706 591.498 C 221.657 591.444 220.616 591.347 219.575 591.244 L 219.575 591.244 C 206.064 604.444 192.749 617.846 178.834 630.627 L 178.834 630.627 C 178.395 631.03 177.975 631.864 177.386 631.864 L 177.386 631.864 C 177.174 631.864 176.94 631.756 176.674 631.479 M 117.419 522.394 C 107.264 534.744 99.231 548.412 95.882 564.289 L 95.882 564.289 C 93.117 577.393 94.436 589.692 105.039 599.346 L 105.039 599.346 C 112.149 605.821 120.922 608.525 130.273 609.298 L 130.273 609.298 C 151.798 611.078 171.797 605.196 191.227 596.702 L 191.227 596.702 C 191.915 596.401 193.004 596.226 192.854 595.215 L 192.854 595.215 C 192.695 594.157 191.591 594.391 190.84 594.316 L 190.84 594.316 C 184.812 593.71 178.781 593.141 172.751 592.562 L 172.751 592.562 C 165.879 591.903 159.007 591.248 152.136 590.592 L 152.136 590.592 C 152.919 589.772 153.689 589.535 154.477 589.41 L 154.477 589.41 C 167.363 587.371 180.25 585.342 193.138 583.311 L 193.138 583.311 C 192.595 583.023 192.044 582.755 191.506 582.452 L 191.506 582.452 C 188.41 580.708 185.548 578.644 182.625 576.659 L 182.625 576.659 C 181.608 575.968 180.753 575.035 179.824 574.214 L 179.824 574.214 C 180.655 573.865 181.295 573.865 181.936 573.865 L 181.936 573.865 C 192.43 573.863 202.924 573.862 213.419 573.866 L 213.419 573.866 C 213.762 573.866 214.105 573.939 214.447 573.978 L 214.447 573.978 C 214.992 573.944 215.536 573.885 216.08 573.883 L 216.08 573.883 C 217.797 573.878 219.515 573.887 221.234 573.896 L 221.234 573.896 C 224.896 573.916 228.557 573.935 232.214 573.819 L 232.214 573.819 C 237.41 573.655 242.504 572.773 247.277 570.547 L 247.277 570.547 C 259.233 564.971 264.622 552.598 261.843 540.598 L 261.843 540.598 C 259.991 532.591 255.136 527.113 247.647 523.876 L 247.647 523.876 C 246.957 523.578 246.189 523.397 245.466 522.713 L 245.466 522.713 C 246.683 522.318 247.714 521.991 248.739 521.647 L 248.739 521.647 C 253.723 519.974 258.255 517.571 261.681 513.452 L 261.681 513.452 C 265.777 508.528 267.429 502.76 267.493 496.444 L 267.493 496.444 C 267.611 484.821 262.844 475.854 252.849 469.85 L 252.849 469.85 C 248.53 467.257 243.555 466.753 238.679 466.046 L 238.679 466.046 C 236.671 465.755 234.631 465.69 232.657 465.171 L 232.657 465.171 C 232.439 465.387 232.253 465.357 232.096 465.098 L 232.096 465.098 C 230.544 465.124 229 464.997 227.454 464.87 L 227.454 464.87 C 225.745 464.729 224.034 464.589 222.312 464.656 L 222.312 464.656 C 219.991 464.745 217.66 464.607 215.333 464.571 L 215.333 464.571 C 214.924 464.863 214.468 464.832 214.02 464.801 L 214.02 464.801 C 213.878 464.791 213.736 464.78 213.598 464.781 L 213.598 464.781 C 206.371 464.788 199.144 464.783 191.918 464.779 L 191.918 464.779 C 162.962 477.877 138.158 497.172 117.419 522.394" style="fill: none; stroke: url('#gradient-28'); paint-order: stroke;"/>
  </g>
  <g style="clip-path: url('#clippath14');" transform="matrix(0.5220839381217957, 0, 0, -0.5220839381217957, 7.604969024658203, 350.8148193359375)">
    <g transform="matrix(258.7905579 0 0 -258.7905579 74.1643906 512.5699463)">
      <rect x="-0.2865807439105181" y="-1.4970795567035642" width="3.477715753245416" height="3.477715753245416" style="fill: url('#shading14'); stroke: url('#gradient-29'); paint-order: stroke;"/>
    </g>
  </g>
  <g transform="matrix(0.5220839381217957, 0, 0, -0.5220839381217957, 7.604969024658203, 350.8148193359375)">
    <path d="M 194.988 551.74 C 194.698 551.899 194.409 551.905 194.121 551.735 L 194.121 551.735 C 192.849 551.94 192.247 551.091 192.06 550.112 L 192.06 550.112 C 191.865 549.087 192.293 548.176 193.495 547.915 L 193.495 547.915 C 193.931 547.612 194.418 547.628 194.902 547.642 L 194.902 547.642 C 195.01 547.646 195.118 547.649 195.226 547.649 L 195.226 547.649 C 201.031 547.641 206.835 547.642 212.639 547.624 L 212.639 547.624 C 213.178 547.622 213.746 547.602 214.249 547.434 L 214.249 547.434 C 215.191 547.119 215.694 546.408 215.627 545.386 L 215.627 545.386 C 215.563 544.41 214.943 543.843 214.056 543.645 L 214.056 543.645 C 213.437 543.507 212.774 543.551 212.131 543.536 L 212.131 543.536 C 211.351 543.516 210.569 543.525 209.789 543.534 L 209.789 543.534 C 208.341 543.55 206.893 543.568 205.448 543.405 L 205.448 543.405 C 198.45 543.656 191.45 543.451 184.451 543.431 L 184.451 543.431 C 183.242 543.428 182.561 542.525 182.47 541.375 L 182.47 541.375 C 182.371 540.104 183.248 539.512 184.366 539.278 L 184.366 539.278 C 184.732 539.201 185.117 539.207 185.502 539.213 L 185.502 539.213 C 185.618 539.215 185.735 539.217 185.851 539.217 L 185.851 539.217 C 191.912 539.187 197.974 539.155 204.035 539.141 L 204.035 539.141 C 205.315 539.138 206.603 538.809 207.875 539.216 L 207.875 539.216 C 208.385 538.921 209.073 539.064 209.497 538.546 L 209.497 538.546 C 210.057 537.86 210.397 537.142 210.052 536.226 L 210.052 536.226 C 209.657 535.178 208.823 534.838 207.819 534.818 L 207.819 534.818 C 205.438 534.771 203.056 534.762 200.674 534.738 L 200.674 534.738 C 198.293 535.009 195.908 535.004 193.52 534.838 L 193.52 534.838 L 193.218 534.845 C 190.713 535.327 188.188 535.03 185.673 535.008 L 185.673 535.008 C 185.413 535.005 185.118 534.788 184.906 534.597 L 184.906 534.597 C 184.211 533.977 183.95 533.164 184.269 532.3 L 184.269 532.3 C 184.64 531.293 185.495 530.979 186.534 530.979 L 186.534 530.979 C 191.202 530.981 195.871 530.977 200.541 530.973 L 200.541 530.973 C 204.573 530.97 208.605 530.967 212.638 530.968 L 212.638 530.968 C 213.527 530.968 214.416 531.042 215.306 531.082 L 215.306 531.082 C 220.371 530.973 225.451 530.621 230.486 531.445 L 230.486 531.445 C 237.061 532.523 240.622 538.409 238.556 544.632 L 238.556 544.632 C 237.137 548.905 233.574 551.372 228.303 551.602 L 228.303 551.602 C 221.944 551.879 215.581 551.859 209.218 551.839 L 209.218 551.839 C 205.825 551.828 202.43 551.817 199.037 551.852 L 199.037 551.852 C 198.796 551.855 198.553 551.771 198.31 551.728 L 198.31 551.728 C 197.741 551.855 197.171 551.921 196.602 551.921 L 196.602 551.921 C 196.064 551.921 195.526 551.862 194.988 551.74" style="fill: none; stroke: url('#gradient-30'); paint-order: stroke;"/>
  </g>
  <g style="clip-path: url('#clippath15');" transform="matrix(0.5220839381217957, 0, 0, -0.5220839381217957, 7.604969024658203, 350.8148193359375)">
    <g transform="matrix(56.6790237 0 0 -56.6790237 182.46315 541.4172363)">
      <rect x="-3.2192359375449158" y="-6.326551522799079" width="15.878890306291568" height="15.878890306291568" style="fill: url('#shading15'); stroke: url('#gradient-31'); paint-order: stroke;"/>
    </g>
  </g>
  <g transform="matrix(0.5220839381217957, 0, 0, -0.5220839381217957, 7.604969024658203, 350.8148193359375)">
    <path d="M 173.782 538.295 C 172.569 538.158 171.707 537.461 171.769 536.135 L 171.769 536.135 C 171.824 534.956 172.513 534.126 173.73 534.078 L 173.73 534.078 C 175.818 533.995 177.913 533.985 179.999 534.069 L 179.999 534.069 C 181.281 534.121 181.999 534.981 181.996 536.246 L 181.996 536.246 C 181.994 537.56 181.16 538.229 179.901 538.308 L 179.901 538.308 C 178.91 538.369 177.91 538.32 176.915 538.32 L 176.915 538.32 C 176.274 538.32 175.629 538.354 174.989 538.355 L 174.989 538.355 C 174.584 538.355 174.181 538.341 173.782 538.295" style="fill: none; stroke: url('#gradient-32'); paint-order: stroke;"/>
  </g>
  <g style="clip-path: url('#clippath16');" transform="matrix(0.5220839381217957, 0, 0, -0.5220839381217957, 7.604969024658203, 350.8148193359375)">
    <g transform="matrix(10.2306337 0 0 -10.2306337 171.7657471 536.1826172)">
      <rect x="-16.789355589967023" y="-35.561568664119015" width="87.97109019747231" height="87.97109019747232" style="fill: url('#shading16'); stroke: url('#gradient-33'); paint-order: stroke;"/>
    </g>
  </g>
  <g transform="matrix(0.5220839381217957, 0, 0, -0.5220839381217957, 7.604969024658203, 350.8148193359375)">
    <path d="M 168.065 544.781 C 166.813 544.725 166.021 543.924 166.025 542.653 L 166.025 542.653 C 166.029 541.33 166.961 540.735 168.165 540.635 L 168.165 540.635 C 169.15 540.553 170.147 540.618 171.139 540.618 L 171.139 540.618 L 171.139 540.594 C 172.081 540.594 173.024 540.61 173.965 540.59 L 173.965 540.59 C 175.303 540.562 175.989 541.39 176.251 542.516 L 176.251 542.516 C 176.49 543.535 175.423 544.729 174.159 544.791 L 174.159 544.791 C 173.217 544.836 172.273 544.857 171.329 544.857 L 171.329 544.857 C 170.24 544.857 169.151 544.829 168.065 544.781" style="fill: none; stroke: url('#gradient-34'); paint-order: stroke;"/>
  </g>
  <g style="clip-path: url('#clippath17');" transform="matrix(0.5220839381217957, 0, 0, -0.5220839381217957, 7.604969024658203, 350.8148193359375)">
    <g transform="matrix(10.2600927 0 0 -10.2600927 166.0251007 542.7232666)">
      <rect x="-16.181637491442938" y="-34.821979084068126" width="87.71850570122042" height="87.71850570122042" style="fill: url('#shading17'); stroke: url('#gradient-35'); paint-order: stroke;"/>
    </g>
  </g>
  <g transform="matrix(0.5220839381217957, 0, 0, -0.5220839381217957, 7.604969024658203, 350.8148193359375)">
    <path d="M 183.905 550.737 C 183.5 550.737 183.096 550.737 182.692 550.737 L 182.692 550.737 C 182.153 550.737 181.614 550.736 181.076 550.738 L 181.076 550.738 C 179.779 550.742 178.997 550.084 178.838 548.824 L 178.838 548.824 C 178.666 547.466 179.527 546.691 180.71 546.586 L 180.71 546.586 C 182.876 546.396 185.067 546.289 187.233 546.643 L 187.233 546.643 C 188.423 546.836 189.129 547.589 188.987 548.822 L 188.987 548.822 C 188.852 549.995 188.084 550.674 186.883 550.727 L 186.883 550.727 C 186.496 550.745 186.109 550.75 185.721 550.75 L 185.721 550.75 C 185.116 550.75 184.51 550.737 183.905 550.737" style="fill: none; stroke: url('#gradient-36'); paint-order: stroke;"/>
  </g>
  <g style="clip-path: url('#clippath18');" transform="matrix(0.5220839381217957, 0, 0, -0.5220839381217957, 7.604969024658203, 350.8148193359375)">
    <g transform="matrix(10.1891003 0 0 -10.1891003 178.8160248 548.5802612)">
      <rect x="-17.54973643747525" y="-34.48977127058019" width="88.32968304375215" height="88.32968304375215" style="fill: url('#shading18'); stroke: url('#gradient-37'); paint-order: stroke;"/>
    </g>
  </g>
  <g transform="matrix(0.5220839381217957, 0, 0, -0.5220839381217957, 7.604969024658203, 350.8148193359375)">
    <path d="M 175.766 496.219 C 174.532 495.99 174.056 495.13 174.15 493.922 L 174.15 493.922 C 174.239 492.77 174.97 492.25 176.023 492.179 L 176.023 492.179 C 177.013 492.114 178.012 492.166 179.006 492.166 L 179.006 492.166 L 179.006 492.118 C 180.052 492.118 181.101 492.064 182.141 492.133 L 182.141 492.133 C 183.384 492.214 184.212 492.868 184.285 494.176 L 184.285 494.176 C 184.354 495.428 183.609 496.24 182.456 496.329 L 182.456 496.329 C 181.326 496.417 180.19 496.493 179.055 496.493 L 179.055 496.493 C 177.955 496.493 176.857 496.422 175.766 496.219" style="fill: none; stroke: url('#gradient-38'); paint-order: stroke;"/>
  </g>
  <g style="clip-path: url('#clippath19');" transform="matrix(0.5220839381217957, 0, 0, -0.5220839381217957, 7.604969024658203, 350.8148193359375)">
    <g transform="matrix(10.1509485 0 0 -10.1509485 174.138443 494.2957458)">
      <rect x="-17.154893752046913" y="-39.96712762359104" width="88.66166545914405" height="88.66166545914405" style="fill: url('#shading19'); stroke: url('#gradient-39'); paint-order: stroke;"/>
    </g>
  </g>
  <g transform="matrix(0.5220839381217957, 0, 0, -0.5220839381217957, 7.604969024658203, 350.8148193359375)">
    <path d="M 183.006 508.775 C 181.773 508.729 181.141 507.94 181.116 506.71 L 181.116 506.71 C 181.09 505.434 181.787 504.754 183.007 504.665 L 183.007 504.665 C 183.997 504.594 184.996 504.652 185.99 504.652 L 185.99 504.652 C 186.489 504.689 186.986 504.642 187.484 504.594 L 187.484 504.594 C 188.121 504.534 188.759 504.473 189.406 504.59 L 189.406 504.59 C 190.641 504.814 191.335 505.531 191.331 506.687 L 191.331 506.687 C 191.326 507.92 190.585 508.768 189.276 508.798 L 189.276 508.798 C 188.307 508.82 187.337 508.834 186.367 508.834 L 186.367 508.834 C 185.246 508.834 184.125 508.816 183.006 508.775" style="fill: none; stroke: url('#gradient-40'); paint-order: stroke;"/>
  </g>
  <g style="clip-path: url('#clippath20');" transform="matrix(0.5220839381217957, 0, 0, -0.5220839381217957, 7.604969024658203, 350.8148193359375)">
    <g transform="matrix(10.2149982 0 0 -10.2149982 181.1154785 506.6787109)">
      <rect x="-17.730348547687456" y="-38.50429352988041" width="88.10574239748765" height="88.10574239748765" style="fill: url('#shading20'); stroke: url('#gradient-41'); paint-order: stroke;"/>
    </g>
  </g>
  <g transform="matrix(0.5220839381217957, 0, 0, -0.5220839381217957, 7.604969024658203, 350.8148193359375)">
    <path d="M 173.46 502.811 L 173.46 502.777 C 172.419 502.777 171.375 502.826 170.339 502.764 L 170.339 502.764 C 169.207 502.696 168.457 502.03 168.357 500.911 L 168.357 500.911 C 168.253 499.768 168.906 498.965 170.039 498.835 L 170.039 498.835 C 172.253 498.577 174.49 498.557 176.705 498.793 L 176.705 498.793 C 177.906 498.922 178.499 499.795 178.414 501.005 L 178.414 501.005 C 178.33 502.197 177.55 502.745 176.432 502.801 L 176.432 502.801 C 176.052 502.821 175.673 502.826 175.293 502.826 L 175.293 502.826 C 174.682 502.826 174.071 502.811 173.46 502.811" style="fill: none; stroke: url('#gradient-42'); paint-order: stroke;"/>
  </g>
  <g style="clip-path: url('#clippath21');" transform="matrix(0.5220839381217957, 0, 0, -0.5220839381217957, 7.604969024658203, 350.8148193359375)">
    <g transform="matrix(10.0761461 0 0 -10.0761461 168.3461151 500.727356)">
      <rect x="-16.707391241577966" y="-39.6255314321018" width="89.31986406985503" height="89.31986406985503" style="fill: url('#shading21'); stroke: url('#gradient-43'); paint-order: stroke;"/>
    </g>
  </g>
  <g transform="matrix(0.5220839381217957, 0, 0, -0.5220839381217957, 7.604969024658203, 350.8148193359375)">
    <path d="M 197.28 509.944 C 195.89 509.93 195.28 508.688 195.671 507.297 L 195.671 507.297 C 195.845 506.052 196.674 505.735 197.792 505.737 L 197.792 505.737 C 202.272 505.743 206.752 505.727 211.231 505.717 L 211.231 505.717 C 211.531 505.716 211.832 505.72 212.134 505.724 L 212.134 505.724 C 212.879 505.732 213.625 505.742 214.365 505.683 L 214.365 505.683 C 215.566 505.586 216.565 504.554 216.434 503.535 L 216.434 503.535 C 216.283 502.357 215.573 501.672 214.325 501.656 L 214.325 501.656 C 213.927 501.651 213.53 501.639 213.133 501.635 L 213.133 501.635 C 209.802 501.595 206.471 501.557 203.139 501.519 L 203.139 501.519 C 198.088 502.002 193.021 501.829 187.96 501.801 L 187.96 501.801 C 186.599 501.794 185.745 500.71 185.854 499.576 L 185.854 499.576 C 185.983 498.252 186.821 497.509 188.269 497.488 L 188.269 497.488 C 191.8 497.44 195.333 497.468 198.862 497.353 L 198.862 497.353 C 202.388 497.239 205.911 497.029 209.442 497.193 L 209.442 497.193 C 211.419 496.16 211.593 495.342 210.304 493.116 L 210.304 493.116 C 209.426 492.909 208.49 493.103 207.636 492.724 L 207.636 492.724 C 207.156 492.863 206.675 492.864 206.195 492.725 L 206.195 492.725 C 205.893 492.979 205.543 492.962 205.197 492.946 L 205.197 492.946 C 205.099 492.942 205.002 492.937 204.907 492.939 L 204.907 492.939 C 201.182 493.007 197.458 493.063 193.734 493.111 L 193.734 493.111 C 192.74 493.124 191.74 493.168 190.756 493.074 L 190.756 493.074 C 189.664 492.968 189.097 492.207 189.049 491.165 L 189.049 491.165 C 189.003 490.132 189.336 489.289 190.617 489.323 L 190.617 489.323 C 190.86 489.284 191.104 489.212 191.347 489.211 L 191.347 489.211 C 204.091 489.181 216.835 489.146 229.579 489.155 L 229.579 489.155 C 230.762 489.155 231.95 489.415 233.126 489.613 L 233.126 489.613 C 240.122 490.8 243.572 498.137 240.139 504.379 L 240.139 504.379 C 237.917 508.421 234.177 509.522 230.018 509.664 L 230.018 509.664 C 224.447 509.854 218.871 509.872 213.297 509.925 L 213.297 509.925 C 212.014 509.936 210.715 510.124 209.443 509.773 L 209.443 509.773 C 207.491 509.973 205.536 510.029 203.58 510.029 L 203.58 510.029 C 201.48 510.029 199.379 509.964 197.28 509.944" style="fill: none; stroke: url('#gradient-44'); paint-order: stroke;"/>
  </g>
  <g style="clip-path: url('#clippath22');" transform="matrix(0.5220839381217957, 0, 0, -0.5220839381217957, 7.604969024658203, 350.8148193359375)">
    <g transform="matrix(55.6347771 0 0 -55.6347771 185.8450623 499.5909729)">
      <rect x="-3.3404476837564254" y="-7.197099511700928" width="16.176931892479892" height="16.176931892479892" style="fill: url('#shading22'); stroke: url('#gradient-45'); paint-order: stroke;"/>
    </g>
  </g>
</svg>