<?xml version="1.0" encoding="utf-8"?>
<svg viewBox="0 0.025 144.129 64.461" fill="none" xmlns="http://www.w3.org/2000/svg">
  <defs>
    <linearGradient id="paint0_linear_7_49619" x1="2" y1="32" x2="60.2886" y2="32" gradientUnits="userSpaceOnUse">
      <stop stop-color="#BD24DF"/>
      <stop offset="1" stop-color="#2D6ADE"/>
    </linearGradient>
  </defs>
  <path d="M32 62C48.5685 62 62 48.5685 62 32C62 15.4315 48.5685 2 32 2C15.4315 2 2 15.4315 2 32C2 48.5685 15.4315 62 32 62Z" fill="url(#paint0_linear_7_49619)" transform="matrix(1, 0, 0, 1, 1.7763568394002505e-15, 1.7763568394002505e-15)"/>
  <path d="M 17.64 24.222 C 18.358 24.39 18.916 24.735 19.315 25.256 C 19.713 25.778 19.912 26.382 19.912 27.066 C 19.912 28.11 19.567 28.915 18.877 29.482 C 18.187 30.048 17.196 30.331 15.906 30.331 L 9.661 30.331 L 9.661 18.414 L 15.738 18.414 C 16.949 18.414 17.904 18.678 18.599 19.205 C 19.295 19.733 19.643 20.502 19.643 21.511 C 19.643 22.207 19.46 22.793 19.096 23.271 C 18.731 23.748 18.246 24.064 17.64 24.222 Z M 13.397 23.061 L 14.845 23.061 C 15.182 23.061 15.432 22.993 15.594 22.858 C 15.757 22.724 15.838 22.516 15.838 22.235 C 15.838 21.943 15.757 21.727 15.594 21.587 C 15.432 21.447 15.182 21.377 14.845 21.377 L 13.397 21.377 L 13.397 23.061 Z M 15.098 27.336 C 15.434 27.336 15.684 27.271 15.847 27.142 C 16.009 27.013 16.091 26.802 16.091 26.51 C 16.091 25.939 15.76 25.652 15.098 25.652 L 13.397 25.652 L 13.397 27.336 L 15.098 27.336 Z M 20.67 25.585 C 20.67 24.586 20.841 23.719 21.183 22.985 C 21.525 22.249 21.993 21.689 22.589 21.301 C 23.183 20.914 23.851 20.72 24.591 20.72 C 25.209 20.72 25.741 20.846 26.19 21.1 C 26.639 21.352 26.981 21.696 27.217 22.135 L 27.217 20.838 L 30.937 20.838 L 30.937 30.331 L 27.217 30.331 L 27.217 29.036 C 26.981 29.473 26.639 29.818 26.19 30.071 C 25.741 30.323 25.209 30.449 24.591 30.449 C 23.851 30.449 23.183 30.256 22.589 29.869 C 21.993 29.482 21.525 28.92 21.183 28.186 C 20.841 27.45 20.67 26.584 20.67 25.585 Z M 27.217 25.585 C 27.217 25.08 27.088 24.688 26.83 24.406 C 26.572 24.126 26.241 23.986 25.836 23.986 C 25.433 23.986 25.102 24.126 24.844 24.406 C 24.586 24.688 24.456 25.08 24.456 25.585 C 24.456 26.09 24.586 26.483 24.844 26.763 C 25.102 27.044 25.433 27.184 25.836 27.184 C 26.241 27.184 26.572 27.044 26.83 26.763 C 27.088 26.483 27.217 26.09 27.217 25.585 Z M 32.114 25.585 C 32.114 24.598 32.319 23.736 32.729 23.002 C 33.138 22.266 33.71 21.703 34.446 21.309 C 35.18 20.917 36.02 20.72 36.963 20.72 C 38.196 20.72 39.238 21.069 40.084 21.764 C 40.932 22.46 41.468 23.425 41.692 24.659 L 37.737 24.659 C 37.59 24.166 37.305 23.919 36.878 23.919 C 36.576 23.919 36.336 24.059 36.163 24.339 C 35.989 24.62 35.902 25.035 35.902 25.585 C 35.902 26.135 35.989 26.55 36.163 26.83 C 36.336 27.111 36.576 27.251 36.878 27.251 C 37.305 27.251 37.59 27.004 37.737 26.51 L 41.692 26.51 C 41.468 27.745 40.932 28.711 40.084 29.406 C 39.238 30.102 38.196 30.449 36.963 30.449 C 36.02 30.449 35.18 30.253 34.446 29.86 C 33.71 29.468 33.138 28.904 32.729 28.169 C 32.319 27.434 32.114 26.572 32.114 25.585 Z M 48.947 30.331 L 46.607 26.545 L 46.607 30.331 L 42.87 30.331 L 42.87 17.875 L 46.607 17.875 L 46.607 24.39 L 48.98 20.838 L 53.323 20.838 L 49.771 25.619 L 53.407 30.331 L 48.947 30.331 Z" style="fill: rgb(255, 255, 255); paint-order: stroke; text-transform: capitalize;" transform="matrix(1, 0, 0, 1, 1.7763568394002505e-15, 1.7763568394002505e-15)"/>
  <path style="fill: rgb(255, 255, 255); paint-order: stroke; text-transform: capitalize;" transform="matrix(1, 0, 0, 1, 24.29418182373047, 2.1324930191040057)"/>
  <path d="M 10.873 41.188 C 10.873 40.01 11.112 38.961 11.589 38.041 C 12.065 37.12 12.747 36.405 13.634 35.895 C 14.52 35.384 15.563 35.128 16.764 35.128 C 17.797 35.128 18.719 35.322 19.533 35.71 C 20.347 36.097 21.008 36.643 21.519 37.351 C 22.03 38.058 22.369 38.882 22.538 39.825 L 18.599 39.825 C 18.419 39.433 18.165 39.127 17.833 38.908 C 17.502 38.689 17.123 38.58 16.697 38.58 C 16.069 38.58 15.572 38.815 15.207 39.286 C 14.843 39.758 14.66 40.392 14.66 41.188 C 14.66 41.986 14.843 42.62 15.207 43.09 C 15.572 43.562 16.069 43.798 16.697 43.798 C 17.123 43.798 17.502 43.688 17.833 43.47 C 18.165 43.25 18.419 42.945 18.599 42.552 L 22.538 42.552 C 22.369 43.494 22.03 44.32 21.519 45.026 C 21.008 45.733 20.347 46.28 19.533 46.667 C 18.719 47.054 17.797 47.248 16.764 47.248 C 15.563 47.248 14.52 46.992 13.634 46.482 C 12.747 45.971 12.065 45.256 11.589 44.337 C 11.112 43.416 10.873 42.366 10.873 41.188 Z M 28.395 47.282 C 27.441 47.282 26.583 47.085 25.819 46.693 C 25.056 46.299 24.458 45.736 24.026 45.001 C 23.595 44.266 23.379 43.404 23.379 42.418 C 23.379 41.43 23.595 40.568 24.026 39.834 C 24.458 39.098 25.056 38.535 25.819 38.142 C 26.583 37.749 27.441 37.553 28.395 37.553 C 29.348 37.553 30.207 37.749 30.97 38.142 C 31.733 38.535 32.33 39.098 32.762 39.834 C 33.195 40.568 33.411 41.43 33.411 42.418 C 33.411 43.404 33.195 44.266 32.762 45.001 C 32.33 45.736 31.733 46.299 30.97 46.693 C 30.207 47.085 29.348 47.282 28.395 47.282 Z M 28.395 44.05 C 28.742 44.05 29.034 43.912 29.269 43.637 C 29.506 43.363 29.623 42.955 29.623 42.418 C 29.623 41.879 29.506 41.471 29.269 41.197 C 29.034 40.922 28.742 40.784 28.395 40.784 C 28.046 40.784 27.755 40.922 27.519 41.197 C 27.284 41.471 27.165 41.879 27.165 42.418 C 27.165 42.955 27.281 43.363 27.511 43.637 C 27.741 43.912 28.036 44.05 28.395 44.05 Z M 47.263 37.603 C 48.476 37.603 49.415 37.968 50.083 38.697 C 50.751 39.426 51.084 40.414 51.084 41.66 L 51.084 47.164 L 47.365 47.164 L 47.365 42.131 C 47.365 41.727 47.244 41.411 47.002 41.18 C 46.761 40.95 46.439 40.835 46.035 40.835 C 45.619 40.835 45.294 40.95 45.059 41.18 C 44.823 41.411 44.705 41.727 44.705 42.131 L 44.705 47.164 L 40.986 47.164 L 40.986 42.131 C 40.986 41.727 40.865 41.411 40.623 41.18 C 40.382 40.95 40.06 40.835 39.656 40.835 C 39.24 40.835 38.915 40.95 38.68 41.18 C 38.443 41.411 38.326 41.727 38.326 42.131 L 38.326 47.164 L 34.589 47.164 L 34.589 37.671 L 38.326 37.671 L 38.326 38.949 C 38.595 38.545 38.963 38.22 39.428 37.973 C 39.894 37.726 40.44 37.603 41.069 37.603 C 41.754 37.603 42.359 37.752 42.888 38.049 C 43.415 38.346 43.836 38.764 44.149 39.303 C 44.498 38.809 44.94 38.403 45.479 38.083 C 46.018 37.763 46.612 37.603 47.263 37.603 Z" style="fill: rgb(255, 255, 255); paint-order: stroke; text-transform: capitalize;" transform="matrix(1, 0, 0, 1, 1.7763568394002505e-15, 1.7763568394002505e-15)"/>
  <path d="M 77.411 21.914 L 77.411 26.699 L 89.511 26.699 L 89.511 35.884 L 77.411 35.884 L 77.411 41.384 L 91.161 41.384 L 91.161 51.119 L 65.201 51.119 L 65.201 12.179 L 91.161 12.179 L 91.161 21.914 Z M 120.586 51.119 L 113.436 40.999 L 107.496 51.119 L 93.581 51.119 L 106.396 31.044 L 93.031 12.179 L 107.496 12.179 L 114.371 21.914 L 120.091 12.179 L 134.006 12.179 L 121.411 31.869 L 135.051 51.119 Z" style="fill: rgb(255, 255, 255); paint-order: stroke; text-transform: capitalize;" transform="matrix(1, 0, 0, 1, 1.7763568394002505e-15, 1.7763568394002505e-15)"/>
</svg>