<?xml version="1.0" encoding="utf-8"?>
<svg viewBox="20.787 22.027 684.277 194.547" style="enable-background:new 0 0 883 579;" xmlns="http://www.w3.org/2000/svg">
  <defs>
    <style type="text/css">
	.st0{fill:none;}
	.st1{fill:#1DA2B4;}
</style>
  </defs>
  <rect class="st0" width="725" height="237" transform="matrix(1, 0, 0, 1, 0, 1.4210854715202004e-14)"/>
  <path id="路径" class="st1" d="M 700.1 78.9 C 700.8 78.9 701.6 79.1 702.1 79.7 C 702.6 80.3 702.9 81 702.8 81.8 L 702.8 99.3 C 702.8 100.1 702.6 100.8 702.1 101.4 C 701.6 101.9 700.8 102.2 700.1 102.2 L 685.5 102.2 L 685.5 171.8 C 685.5 172.6 685.3 173.3 684.8 173.9 C 684.3 174.4 683.5 174.7 682.8 174.7 L 660.9 174.7 C 660.2 174.7 659.4 174.5 658.9 173.9 C 658.4 173.3 658.1 172.6 658.2 171.8 L 658.2 102.2 L 643.6 102.2 C 642.9 102.2 642.1 102 641.6 101.4 C 641.1 100.8 640.8 100.1 640.9 99.3 L 640.9 81.8 C 640.9 81 641.1 80.3 641.6 79.7 C 642.1 79.2 642.9 78.9 643.6 78.9 L 658.2 78.9 L 658.2 54.4 C 658.2 53.6 658.4 52.9 658.9 52.3 C 659.4 51.8 660.2 51.5 660.9 51.5 L 682.8 51.5 C 683.5 51.5 684.3 51.7 684.8 52.3 C 685.3 52.9 685.6 53.6 685.5 54.4 L 685.5 78.9 L 700.1 78.9 Z" transform="matrix(1, 0, 0, 1, 0, 1.4210854715202004e-14)"/>
  <path id="形状" class="st1" d="M 637.1 125.1 C 637.1 129.3 636.7 132.4 635.8 134.3 C 634.9 136.2 633.2 137 630.5 137 L 576.3 137 C 577.4 141.7 580.2 145.9 584.1 148.7 C 588.1 151.3 593.1 152.5 599.3 152.6 C 602.2 152.6 605.1 152.2 607.9 151.4 C 611 150.3 614 148.9 616.7 147 C 617.7 146 619.4 146 620.4 147 C 620.5 147.1 620.6 147.3 620.7 147.4 L 630.2 157 C 630.7 157.5 630.9 158.2 630.9 158.9 C 630.8 159.8 630.5 160.6 629.8 161.2 C 625.5 165.8 620.4 169.4 614.6 172 C 608.9 174.5 602.7 175.7 596.5 175.6 C 587.8 175.7 579.3 173.5 571.8 169.1 C 564.7 164.8 558.9 158.7 555 151.4 C 551 143.8 548.9 135.4 549 126.8 C 548.9 118.2 550.9 109.8 554.8 102.2 C 558.6 95 564.3 88.9 571.2 84.7 C 578.1 80.3 586.2 78.1 594.4 78.2 C 602.3 78.1 610 80.3 616.7 84.6 C 623.2 88.8 628.4 94.8 631.7 101.7 C 635.4 109 637.2 117 637.1 125.1 Z M 594.7 102.6 C 590.2 102.5 585.9 104 582.5 106.8 C 579.1 109.5 576.9 113.4 575.9 118.7 L 612.8 118.7 C 612 113.5 609.9 109.5 606.6 106.8 C 603.3 104 599.1 102.5 594.7 102.6 Z" transform="matrix(1, 0, 0, 1, 0, 1.4210854715202004e-14)"/>
  <path id="形状-2" class="st1" d="M 537.1 80.3 C 537.8 80.3 538.6 80.5 539.1 81.1 C 539.6 81.7 539.9 82.4 539.8 83.2 L 539.8 173.8 C 539.8 183.1 537.4 190.7 532.5 196.5 C 527.8 202.3 521.5 206.7 514.4 209 C 507.2 211.4 499.7 212.7 492.1 212.6 C 484.6 212.6 477.1 211.5 470 209.1 C 463.6 207.2 457.6 204.2 452.3 200.2 C 451.6 199.7 451.2 198.9 451.2 198.1 C 451.2 197.5 451.3 196.9 451.6 196.4 L 458.7 182.9 C 459.4 181.9 460.2 181.4 460.9 181.4 C 461.4 181.4 461.9 181.5 462.4 181.8 C 466.4 184.3 470.7 186.2 475.2 187.4 C 480 188.6 485 189.2 490 189.2 C 495.9 189.3 501.8 187.8 507 185 C 512.1 182.3 514.7 177.7 514.7 171.3 L 514.7 162.4 C 507.6 170.9 498.9 175.1 488.4 175.1 C 480.5 175.2 472.8 172.9 466.3 168.6 C 459.7 164.2 454.3 158.1 450.8 150.9 C 443.5 135.6 443.5 117.8 450.8 102.4 C 454.3 95.2 459.7 89.1 466.3 84.7 C 472.8 80.3 480.5 78.1 488.4 78.2 C 498.4 78.2 506.9 82.4 514 90.7 L 514.5 83.2 C 514.7 81.3 515.7 80.3 517.2 80.3 L 537.1 80.3 Z M 491.9 148.8 C 497.4 148.8 502.7 146.3 506.1 142 C 509.9 137.7 512 132.2 512 126.5 C 512.1 120.8 510 115.3 506.2 111.1 C 502.7 106.8 497.5 104.3 492 104.4 C 486.5 104.3 481.2 106.7 477.6 110.9 C 473.7 115.1 471.6 120.7 471.8 126.5 C 471.6 132.4 473.6 138.1 477.5 142.5 C 481 146.6 486.3 148.9 491.9 148.8 Z" transform="matrix(1, 0, 0, 1, 0, 1.4210854715202004e-14)"/>
  <path id="路径-2" class="st1" d="M 436.1 78.9 C 436.8 78.9 437.6 79.1 438.1 79.7 C 438.6 80.3 438.9 81 438.8 81.8 L 438.8 99.3 C 438.8 100.1 438.6 100.8 438.1 101.4 C 437.6 101.9 436.8 102.2 436.1 102.2 L 421.5 102.2 L 421.5 171.8 C 421.5 172.6 421.3 173.3 420.8 173.9 C 420.3 174.4 419.5 174.7 418.8 174.7 L 396.9 174.7 C 396.2 174.7 395.4 174.5 394.9 173.9 C 394.4 173.3 394.1 172.6 394.2 171.8 L 394.2 102.2 L 379.6 102.2 C 378.9 102.2 378.1 102 377.6 101.4 C 377.1 100.8 376.8 100.1 376.9 99.3 L 376.9 81.8 C 376.9 81 377.1 80.3 377.6 79.7 C 378.1 79.2 378.9 78.9 379.6 78.9 L 394.2 78.9 L 394.2 54.4 C 394.2 53.6 394.4 52.9 394.9 52.3 C 395.4 51.8 396.2 51.5 396.9 51.5 L 418.8 51.5 C 419.5 51.5 420.3 51.7 420.8 52.3 C 421.3 52.9 421.6 53.6 421.5 54.4 L 421.5 78.9 L 436.1 78.9 Z" transform="matrix(1, 0, 0, 1, 0, 1.4210854715202004e-14)"/>
  <path id="形状-3" class="st1" d="M 353 71 C 349.1 71.1 345.3 69.5 342.6 66.6 C 339.8 63.6 338.3 59.7 338.4 55.6 C 338.3 51.5 339.8 47.6 342.6 44.6 C 347.8 38.9 356.6 38.4 362.4 43.6 C 362.8 43.9 363.1 44.3 363.4 44.6 C 366.2 47.6 367.7 51.5 367.6 55.6 C 367.7 59.7 366.2 63.6 363.4 66.6 C 360.7 69.5 356.9 71.1 353 71 Z M 339.3 81.7 C 339.3 80.9 339.5 80.2 340 79.6 C 340.5 79.1 341.3 78.8 342 78.8 L 364 78.8 C 364.7 78.8 365.5 79 366 79.6 C 366.5 80.2 366.8 80.9 366.7 81.7 L 366.7 171.7 C 366.7 172.5 366.5 173.2 366 173.8 C 365.5 174.3 364.7 174.6 364 174.6 L 342 174.6 C 341.3 174.6 340.5 174.4 340 173.8 C 339.5 173.2 339.2 172.5 339.3 171.7 L 339.3 81.7 Z" transform="matrix(1, 0, 0, 1, 0, 1.4210854715202004e-14)"/>
  <path id="形状-4" class="st1" d="M 304.2 102.8 C 311.1 104.8 317.2 108.9 321.7 114.5 C 326.7 120.5 329.4 128.1 329.2 135.9 C 329.2 148.9 325.2 158.6 317.3 165.1 C 309.5 171.5 297.6 174.7 281.5 174.7 L 236.6 174.7 C 235.9 174.7 235.1 174.5 234.6 173.9 C 234.1 173.3 233.8 172.6 233.9 171.8 L 233.9 42.9 C 233.9 42.1 234.1 41.4 234.6 40.8 C 235.1 40.3 235.9 40 236.6 40 L 281.3 40 C 289.3 40 296.2 41.5 301.9 44.6 C 307.4 47.4 312 51.7 315 57.1 C 318.1 62.5 319.7 68.6 319.6 74.8 C 319.7 80.9 318.2 87 315 92.3 C 312.2 97.4 308.6 100.8 304.2 102.8 Z M 293.2 78.7 C 293.2 70.5 288.4 66.4 278.8 66.4 L 262.2 66.4 L 262.2 92.2 L 278.8 92.2 C 283.3 92.2 286.8 91.1 289.4 88.9 C 291.9 86.6 293.2 83.2 293.2 78.7 Z M 282.6 148.3 C 288.2 148.3 292.6 147 295.9 144.3 C 299.2 141.6 300.8 137.6 300.8 132.2 C 300.8 126.9 299.2 123.1 295.9 120.7 C 292.6 118.1 288.2 116.8 282.6 116.8 L 262.2 116.8 L 262.2 148.3 L 282.6 148.3 Z" transform="matrix(1, 0, 0, 1, 0, 1.4210854715202004e-14)"/>
  <path id="路径-3" class="st1" d="M 77.3 28 C 79.6 25.4 82.9 24 86.3 24 L 108.3 24 C 110.1 24.1 111.6 25.6 111.5 27.4 C 111.5 28.2 111.2 28.9 110.6 29.5 L 67 77.9 L 91 77.9 L 115.5 104.9 L 67 104.9 L 115.5 158.8 L 86.2 158.8 C 82.8 158.8 79.5 157.4 77.2 154.8 L 28.1 100 C 23.7 95.1 23.7 87.6 28.1 82.7 L 77.3 28 Z" transform="matrix(1, 0, 0, 1, 0, 1.4210854715202004e-14)"/>
  <path id="路径-4" class="st1" d="M 145 208.6 C 142.7 211.2 139.4 212.6 136 212.6 L 114 212.6 C 112.2 212.5 110.7 211 110.8 209.2 C 110.8 208.4 111.1 207.7 111.7 207.1 L 155.2 158.7 L 131.2 158.7 L 106.7 131.8 L 155.2 131.8 L 106.7 77.9 L 136 77.9 C 139.4 77.9 142.7 79.4 145 81.9 L 194.2 136.6 C 198.6 141.5 198.6 149 194.2 153.9 L 145 208.6 Z" transform="matrix(1, 0, 0, 1, 0, 1.4210854715202004e-14)"/>
</svg>