<svg width="96" height="24" viewBox="0 0 96 24" fill="none" xmlns="http://www.w3.org/2000/svg">
<path d="M41.4775 4.28604V7.23728H37.2653V19.909H34.1904V7.23728H30V4.28604H41.4775Z" fill="#2A64FB"/>
<path d="M50.8986 18.2961C50.3524 18.8503 49.6992 19.2874 48.9788 19.5806C48.2583 19.8739 47.4858 20.0172 46.7082 20.0018C45.9332 20.01 45.1643 19.8633 44.4467 19.5702C43.729 19.2771 43.0771 18.8435 42.529 18.2948C41.981 17.7462 41.5478 17.0935 41.255 16.3751C40.9622 15.6568 40.8156 14.8871 40.8238 14.1112C40.8156 13.3355 40.9622 12.5659 41.2551 11.8476C41.5479 11.1293 41.9811 10.4768 42.5291 9.9283C43.0772 9.37982 43.7292 8.94642 44.4468 8.65352C45.1645 8.36062 45.9333 8.21413 46.7082 8.22262C47.4843 8.21363 48.2544 8.35963 48.9735 8.65208C49.6926 8.94454 50.3462 9.37756 50.8961 9.92585C51.446 10.4741 51.8812 11.1267 52.1763 11.8453C52.4713 12.564 52.6203 13.3343 52.6144 14.1112C52.6303 14.8893 52.4861 15.6622 52.191 16.3822C51.8958 17.1021 51.4559 17.7536 50.8986 18.2961ZM44.5586 16.3128C44.8369 16.5997 45.1716 16.8259 45.5416 16.9771C45.9116 17.1283 46.3088 17.2013 46.7082 17.1914C47.1088 17.2018 47.5073 17.1299 47.8791 16.9802C48.2509 16.8304 48.5881 16.606 48.8698 16.3207C49.1575 16.0312 49.3831 15.6858 49.5327 15.3059C49.6822 14.9259 49.7526 14.5194 49.7396 14.1112C49.7526 13.7033 49.6822 13.2971 49.5326 12.9175C49.383 12.5379 49.1575 12.1929 48.8698 11.9037C48.5881 11.6184 48.2509 11.394 47.8791 11.2442C47.5073 11.0945 47.1088 11.0226 46.7082 11.033C46.309 11.0218 45.9118 11.0934 45.5415 11.2432C45.1712 11.3931 44.8359 11.618 44.5566 11.9037C44.2717 12.1944 44.0488 12.5399 43.9013 12.9194C43.7539 13.2988 43.6849 13.7043 43.6987 14.1112C43.6849 14.5185 43.7538 14.9242 43.9013 15.304C44.0487 15.6838 44.2717 16.0297 44.5566 16.3207L44.5586 16.3128Z" fill="#2A64FB"/>
<path d="M64.3113 18.2961C63.1925 19.3898 61.6907 20.0021 60.1269 20.0021C58.5631 20.0021 57.0613 19.3898 55.9424 18.2961C55.3876 17.7522 54.95 17.1003 54.6566 16.3805C54.3632 15.6607 54.2202 14.8884 54.2365 14.1112C54.2283 13.3355 54.3749 12.5659 54.6678 11.8476C54.9606 11.1293 55.3937 10.4768 55.9418 9.9283C56.4899 9.37982 57.1419 8.94642 57.8595 8.65352C58.5772 8.36062 59.346 8.21413 60.1209 8.22262C60.897 8.21363 61.6671 8.35963 62.3862 8.65208C63.1053 8.94454 63.7589 9.37756 64.3088 9.92585C64.8587 10.4741 65.2939 11.1267 65.589 11.8453C65.884 12.564 66.033 13.3343 66.0271 14.1112C66.043 14.8893 65.8988 15.6622 65.6037 16.3822C65.3085 17.1021 64.8686 17.7536 64.3113 18.2961ZM57.9712 16.3128C58.2506 16.5985 58.5859 16.8234 58.9562 16.9732C59.3264 17.1231 59.7237 17.1947 60.1229 17.1834C60.5235 17.1939 60.922 17.122 61.2938 16.9722C61.6656 16.8225 62.0028 16.598 62.2845 16.3128C62.5722 16.0232 62.7978 15.6779 62.9473 15.2979C63.0969 14.918 63.1673 14.5115 63.1543 14.1033C63.1673 13.6954 63.0968 13.2892 62.9473 12.9096C62.7977 12.5299 62.5721 12.185 62.2845 11.8958C62.0028 11.6105 61.6656 11.3861 61.2938 11.2363C60.922 11.0866 60.5235 11.0147 60.1229 11.0251C59.7237 11.0139 59.3264 11.0855 58.9562 11.2353C58.5859 11.3851 58.2506 11.61 57.9712 11.8958C57.6864 12.1864 57.4635 12.532 57.316 12.9114C57.1685 13.2909 57.0996 13.6964 57.1134 14.1033C57.0982 14.5117 57.1663 14.9189 57.3134 15.3001C57.4606 15.6813 57.6837 16.0286 57.9693 16.3207L57.9712 16.3128Z" fill="#2A64FB"/>
<path d="M75.075 8.4511C75.8004 8.44389 76.5189 8.59261 77.182 8.88721C77.8451 9.18181 78.4373 9.61543 78.9186 10.1588C79.9763 11.2899 80.5458 12.7929 80.5037 14.3417C80.5449 15.8903 79.9755 17.393 78.9186 18.5246C78.4373 19.0679 77.8451 19.5016 77.182 19.7962C76.5189 20.0908 75.8004 20.2395 75.075 20.2323C73.515 20.2323 72.3117 19.6895 71.4651 18.6039V19.9189H68.5883V4.28604H71.4651V10.0695C72.3117 8.99057 73.515 8.4511 75.075 8.4511ZM72.3329 16.5968C72.6205 16.8876 72.9649 17.116 73.3447 17.2675C73.7245 17.419 74.1314 17.4905 74.54 17.4774C74.95 17.4898 75.3582 17.4181 75.7395 17.2667C76.1208 17.1152 76.4671 16.8872 76.7571 16.5968C77.0504 16.2993 77.2799 15.9449 77.4315 15.5554C77.5831 15.1659 77.6536 14.7495 77.6387 14.3318C77.6534 13.914 77.5828 13.4977 77.4312 13.1083C77.2796 12.7188 77.0502 12.3644 76.7571 12.0668C76.4671 11.7763 76.1208 11.5483 75.7395 11.3969C75.3582 11.2454 74.95 11.1737 74.54 11.1862C74.1314 11.1731 73.7245 11.2445 73.3447 11.3961C72.9649 11.5476 72.6205 11.7759 72.3329 12.0668C72.0432 12.3662 71.8169 12.7213 71.6678 13.1105C71.5187 13.4998 71.4497 13.9152 71.4651 14.3318C71.4496 14.7484 71.5185 15.1638 71.6677 15.5531C71.8168 15.9423 72.0431 16.2974 72.3329 16.5968Z" fill="#2A64FB"/>
<path d="M84.6478 7.59045C84.4329 7.59148 84.2201 7.54877 84.0222 7.46489C83.8243 7.38102 83.6455 7.25774 83.4967 7.10254C83.3404 6.95402 83.2163 6.7749 83.1321 6.57632C83.0479 6.37774 83.0055 6.16394 83.0073 5.94822C83.0063 5.73117 83.0491 5.51614 83.1332 5.31608C83.2173 5.11601 83.341 4.93502 83.4967 4.78399C83.6439 4.62596 83.8221 4.50015 84.0202 4.41447C84.2183 4.32879 84.432 4.28511 84.6478 4.28617C84.8671 4.28341 85.0846 4.32623 85.2864 4.41192C85.4883 4.49761 85.6703 4.6243 85.8207 4.78399C85.9754 4.93552 86.0979 5.11674 86.181 5.31678C86.2641 5.51683 86.306 5.73159 86.3042 5.94822C86.306 6.16394 86.2636 6.37774 86.1794 6.57632C86.0952 6.7749 85.9711 6.95402 85.8148 7.10254C85.6636 7.25903 85.4822 7.38301 85.2815 7.4669C85.0809 7.55079 84.8653 7.59283 84.6478 7.59045ZM83.2213 19.9091V8.75468H86.106V19.9091H83.2213Z" fill="#2A64FB"/>
<path d="M95.9914 11.5213H93.4732V16.1604C93.4598 16.3143 93.4786 16.4692 93.5284 16.6154C93.5782 16.7616 93.6579 16.8957 93.7624 17.0093C94.002 17.2045 94.3015 17.311 94.6104 17.3108C95.0726 17.3323 95.5356 17.3283 95.9973 17.2989V19.909C94.016 20.1338 92.6232 19.948 91.8188 19.3517C91.0144 18.7553 90.6096 17.6916 90.6043 16.1604V11.5213H88.6646V8.75455H90.6043V4.29794L93.4732 4.28604V8.75455H95.9914V11.5213Z" fill="#2A64FB"/>
<path d="M12 24C18.6274 24 24 18.6274 24 12C24 5.37258 18.6274 0 12 0C5.37258 0 0 5.37258 0 12C0 18.6274 5.37258 24 12 24Z" fill="#2A64FB"/>
<path d="M16.2889 7.66675C16.1478 7.66306 16.0067 7.67049 15.8667 7.68897C15.6017 7.26915 15.2717 6.8941 14.8889 6.57786C14.761 6.47433 14.6274 6.37789 14.4889 6.28897C14.5778 6.15564 15.1112 5.37786 15.5112 5.15564C15.6379 5.09375 15.7348 4.98407 15.7807 4.85071C15.8265 4.71735 15.8175 4.57124 15.7556 4.44453C15.725 4.38178 15.6823 4.32569 15.6299 4.27945C15.5776 4.23321 15.5167 4.19773 15.4507 4.17503C15.3173 4.12919 15.1712 4.1382 15.0445 4.20008C14.3556 4.55564 13.5778 5.68897 13.5778 5.68897C13.5607 5.72881 13.5382 5.76618 13.5112 5.80008C13.0125 5.61998 12.4858 5.52969 11.9556 5.53342C11.52 5.53499 11.0865 5.59477 10.6667 5.71119C10.6667 5.68897 9.91116 4.57786 9.17783 4.24453C9.05112 4.18264 8.90501 4.17363 8.77165 4.21947C8.63829 4.26531 8.5286 4.36226 8.46672 4.48897C8.40483 4.61569 8.39582 4.76179 8.44167 4.89515C8.48751 5.02851 8.58445 5.1382 8.71116 5.20008C9.0445 5.35564 9.4445 5.86675 9.6445 6.15564C9.4445 6.28897 9.2445 6.4223 9.0445 6.57786C8.64922 6.88741 8.31084 7.26339 8.0445 7.68897C7.95561 7.68897 7.8445 7.66675 7.73339 7.66675H7.68894C7.13218 7.66735 6.58132 7.78079 6.06962 8.00022C5.55792 8.21966 5.09601 8.54052 4.71177 8.94345C4.32754 9.34638 4.02896 9.823 3.83407 10.3445C3.63917 10.8661 3.552 11.4217 3.57783 11.9779C3.60405 12.5458 3.74831 13.1021 4.00139 13.6112C4.25448 14.1203 4.61085 14.5711 5.0478 14.9349C5.48474 15.2987 5.99268 15.5674 6.53924 15.724C7.08579 15.8806 7.65898 15.9217 8.22227 15.8445C8.73903 16.9917 9.98517 18.413 10.4615 18.8344C10.6631 19.0543 10.6264 18.9993 10.8646 19.2558C11.1878 19.6039 11.2494 19.6222 12.0001 20.8223C12.4586 20.0436 12.77 19.7138 13.1556 19.289C13.2889 19.1112 13.4506 18.9677 13.5395 18.8344C14.5106 17.8084 15.2581 16.9863 15.7778 15.8223C15.7778 15.8001 15.7778 15.8001 15.8001 15.7779C15.9692 15.8047 16.14 15.8195 16.3112 15.8223C17.3976 15.8155 18.4383 15.3839 19.2107 14.6198C19.9831 13.8557 20.4259 12.8197 20.4445 11.7334C20.4123 10.6497 19.9615 9.62061 19.1866 8.8623C18.4117 8.10399 17.3731 7.67547 16.2889 7.66675ZM10.101 7.57006C10.7042 7.08054 11.201 6.88701 11.9778 6.88779C12.754 6.89076 13.2496 7.08387 13.8547 7.57006C14.0465 7.71748 14.1817 7.85266 14.3291 8.04453C13.1736 8.57786 12.5556 9.55564 12.0001 10.3334C11.4223 9.55564 10.8043 8.55564 9.62653 8.0223C9.78208 7.86675 9.901 7.74784 10.101 7.57006ZM12.88 17.4603C12.88 17.4603 12.6054 17.6679 12.4219 17.7901C12.4177 17.7929 12.4134 17.7958 12.409 17.7987C12.1304 17.9826 11.7687 17.97 11.4875 17.7901L11.0661 17.4603C10.4327 16.8712 9.94903 16.2005 9.56885 15.4235C10.2521 15.0847 10.7168 14.7268 11.2223 14.1556L11.5556 13.8223L10.6445 12.5779L10.1334 13.1112C9.31116 13.9779 8.48894 14.4223 7.71116 14.4223C7.02749 14.4223 6.37183 14.1507 5.8884 13.6673C5.40497 13.1839 5.13339 12.5282 5.13339 11.8445C5.13339 11.1609 5.40497 10.5052 5.8884 10.0218C6.37183 9.53834 7.02749 9.26675 7.71116 9.26675C8.30572 9.28544 8.88002 9.48722 9.35561 9.84453C10.0889 10.4227 10.7007 11.1401 11.1556 11.9556L11.2889 12.1779C11.3556 12.2668 12.4457 14.4457 14.4235 15.4013C14.0358 16.1861 13.5207 16.864 12.88 17.4603ZM16.2445 14.3779C15.8666 14.3685 15.4951 14.2775 15.1556 14.1112C14.6382 13.8193 14.1727 13.4439 13.7778 13.0001C13.438 12.6209 13.1331 12.2118 12.8667 11.7779C13.3778 10.9556 14.6667 9.20008 16.2667 9.2223C16.6052 9.22376 16.9402 9.29188 17.2523 9.42278C17.5645 9.55367 17.8479 9.74477 18.0862 9.98517C18.3246 10.2256 18.5132 10.5106 18.6414 10.8239C18.7696 11.1372 18.8348 11.4727 18.8334 11.8112C18.8319 12.1497 18.7638 12.4846 18.6329 12.7968C18.502 13.109 18.3109 13.3924 18.0705 13.6307C17.8301 13.869 17.5451 14.0577 17.2318 14.1859C16.9185 14.3141 16.583 14.3793 16.2445 14.3779Z" fill="white"/>
</svg>
